<?xml version="1.0" encoding="utf-8"?>

<svg version="1.1" xmlns="http://www.w3.org/2000/svg" xmlns:xlink="http://www.w3.org/1999/xlink" width="312" height="403">
<g transform="translate(153, 315)">
<circle fill="#666" cx="2" cy="8" r="2" xmlns="http://www.w3.org/2000/svg" />
<circle fill="#666" cx="8" cy="8" r="2" xmlns="http://www.w3.org/2000/svg" />
<circle fill="#666" cx="14" cy="8" r="2" xmlns="http://www.w3.org/2000/svg" />
</g>

<g transform="translate(204, 298)">
<path fill="#666" d="M13,4L7.5,9L2,4v3l5.5,5L13,7V4z" xmlns="http://www.w3.org/2000/svg" />
</g>

<g transform="translate(221, 281)">
<circle fill="#757575" cx="2" cy="8" r="2" xmlns="http://www.w3.org/2000/svg" />
<circle fill="#757575" cx="8" cy="8" r="2" xmlns="http://www.w3.org/2000/svg" />
<circle fill="#757575" cx="14" cy="8" r="2" xmlns="http://www.w3.org/2000/svg" />
</g>

<g transform="translate(135, 362)">
<path fill="#FFF" d="M0,0v14h14V0H0z M6,12L2,8l1-2l3,3l5-6l1,2L6,12z" xmlns="http://www.w3.org/2000/svg" />
</g>

<g transform="translate(150, 185)">
<g xmlns="http://www.w3.org/2000/svg">
	<path fill="#666666" d="M18,4h-3V1H3v16h3v3h3v3h12V7h-3V4z M4,16V2h10v2H6v12H4z M7,19V5h10v2H9v12H7z M10,22V8h10v14H10z" />
</g>
</g>

<g transform="translate(175, 210)">
<g xmlns="http://www.w3.org/2000/svg">
	<polygon fill="#666666" points="19,13 18,13 18,17 14,17 14,18 18,18 18,22 19,22 19,18 23,18 23,17 19,17 	" />
	<path fill="#666666" d="M13,1l-3,3H1v14h12v-1H2V5h8l3,3h9v8h1V1H13z M22,7h-8l-3-2.5L14,2h8V7z" />
</g>
</g>

<g transform="translate(275, 185)">
<g xmlns="http://www.w3.org/2000/svg">
	<path fill="#666666" d="M21,4l-1-1l-8,8L4,3L3,4l7.9,8L3,20l1,1l8-7.9l8,7.9l1-1l-8-8L21,4L21,4z" />
</g>
</g>

<g transform="translate(50, 235)">
<g xmlns="http://www.w3.org/2000/svg">
	<path fill="#666666" d="M19,24v-1H4v1H19z M17.9,12.5L12,18V1h-1v17l-5.9-5.5L4,13.6l7.5,7.4l7.5-7.4L17.9,12.5z" />
</g>
</g>

<g transform="translate(100, 210)">
<g xmlns="http://www.w3.org/2000/svg">
	<polygon fill="#666" points="6,3 6,13 7,13 7,4 19,4 19,20 7,20 7,16 6,16 6,21 7,21 19,21 20,21 20,3" />
	<polygon fill="#666" points="11,17 11,18 12,18 15,15 15,14 12,11 11,11 11,12 13,14 4,14 4,15 13,15" />
</g>
</g>

<g transform="translate(275, 210)">
<g xmlns="http://www.w3.org/2000/svg">
	<path fill="#666666" d="M21.3,9H18V8h2.9c-1.6-3-4.7-5-8.4-5c-4,0-7.4,2.5-8.8,6H2.6C4,4.9,7.9,2,12.5,2c4.2,0,7.8,2.5,9.5,6l0,0V4&#xD;&#xA;		h1v4v1h-0.6H21.3z M3.3,15H7v1H3.7c1.4,3.5,4.8,6,8.8,6c4.4,0,8.1-3,9.2-7h1c-1.1,4.6-5.3,8-10.2,8c-4.2,0-7.8-2.5-9.5-6v3H2v-4v-1&#xD;&#xA;		h0.3H3.3z" />
</g>
</g>

<g transform="translate(125, 185)">
<g xmlns="http://www.w3.org/2000/svg">
	<path fill="#666" d="M20.9,13l-1.8,1.9L14,20l-4,1l1-4l5.1-5.1L18,10l0,0c0,0,0.3-0.1,0.5-0.1c1.4,0,2.5,1.1,2.5,2.5C21,12.7,20.9,13,20.9,13L20.9,13z M12,19l2-1l5-5l-1-1l-5,5L12,19z" />
	<polygon fill="#666" points="4,3 4,21 9,21 9,20 5,20 5,4 17,4 17,9 18,9 18,3" />
</g>
</g>

<g transform="translate(75, 235)">
<g xmlns="http://www.w3.org/2000/svg">
	<path fill="#666666" d="M4,0v1h15V0H4z M19,10.4L11.5,3L4,10.4l1.1,1.1L11,6v17h1V6l5.9,5.5L19,10.4z" />
</g>
</g>

<g transform="translate(60, 362)">
<path fill="#009688" d="M0,0v14h14V0H0z M6,12L2,8l1-2l3,3l5-6l1,2L6,12z" xmlns="http://www.w3.org/2000/svg" />
</g>

<g transform="translate(210, 332)">
<g xmlns="http://www.w3.org/2000/svg">
	<path opacity="0.6" d="M0,14V0h14v14H0z M13,1H1v12h12V1z" />
</g>
</g>

<g transform="translate(60, 332)">
<path fill="#FFF" d="M0,0v14h14V0H0z M6,12L2,8l1-2l3,3l5-6l1,2L6,12z" xmlns="http://www.w3.org/2000/svg" />
</g>

<g transform="translate(0, 347)">
<g xmlns="http://www.w3.org/2000/svg">
	<path fill="#009688" d="M0,14V0h14v14H0z M13,1H1v12h12V1z" />
	<rect x="3" y="3" fill="#009688" width="8" height="8" />
</g>

</g>

<g transform="translate(255, 332)">
<g xmlns="http://www.w3.org/2000/svg">
	<path fill="#FFFFFF" d="M0,14V0h14v14H0z M13,1H1v12h12V1z" />
</g>
</g>

<g transform="translate(242, 235)">
<path fill="#FFFFFF" d="M10,0C4.5,0,0,4.5,0,10s4.5,10,10,10s10-4.5,10-10S15.5,0,10,0z M15,13.6L13.6,15L10,11.4L6.4,15L5,13.6L8.6,10L5,6.4L6.4,5&#xD;&#xA;	L10,8.6L13.6,5L15,6.4L11.4,10L15,13.6z" xmlns="http://www.w3.org/2000/svg" />
</g>

<g transform="translate(42, 260)">
<g xmlns="http://www.w3.org/2000/svg">
	<path fill="#FFFFFF" fill-rule="evenodd" clip-rule="evenodd" d="M11,17V3h2v14H11z M7,3h2v14H7V3z" />
</g>
</g>

<g transform="translate(126, 260)">
<g xmlns="http://www.w3.org/2000/svg">
	<path fill="#FFFFFF" fill-rule="evenodd" clip-rule="evenodd" d="M6,3v14l9-7L6,3z" />
</g>
</g>

<g transform="translate(204, 362)">
<path fill="#FFFFFF" d="M2.5,10.5L4,12l6-6L4,0L2.5,1.4L7,6L2.5,10.5z" xmlns="http://www.w3.org/2000/svg" />
</g>

<g transform="translate(217, 362)">
<path fill="#FFFFFF" d="M2.5,10.5L4,12l6-6L4,0L2.5,1.4L7,6L2.5,10.5z" xmlns="http://www.w3.org/2000/svg" />
</g>

<g transform="translate(52, 377)">
<path fill="#FFFFFF" d="M1.5,2.5L0,4l6,6l6-6l-1.5-1.5L6,7L1.5,2.5z" xmlns="http://www.w3.org/2000/svg" />
</g>

<g transform="translate(178, 362)">
<path fill="#FFFFFF" d="M1.5,2.5L0,4l6,6l6-6l-1.5-1.5L6,7L1.5,2.5z" xmlns="http://www.w3.org/2000/svg" />
</g>

<g transform="translate(52, 390)">
<path fill="#FFFFFF" d="M7.5,1.5L6,0L0,6l6,6l1.5-1.5L3,6L7.5,1.5z" xmlns="http://www.w3.org/2000/svg" />
</g>

<g transform="translate(165, 362)">
<path fill="#FFFFFF" d="M7.5,1.5L6,0L0,6l6,6l1.5-1.5L3,6L7.5,1.5z" xmlns="http://www.w3.org/2000/svg" />
</g>

<g transform="translate(295, 362)">
<path fill="#FFFFFF" d="M6,5l4.5,4.5L12,8L6,2L0,8l1.5,1.5L6,5z" xmlns="http://www.w3.org/2000/svg" />
</g>

<g transform="translate(78, 377)">
<path fill="#FFFFFF" d="M6,5l4.5,4.5L12,8L6,2L0,8l1.5,1.5L6,5z" xmlns="http://www.w3.org/2000/svg" />
</g>

<g transform="translate(34, 298)">
<path fill="#FFFFFF" d="M13,4L7.5,9L2,4v3l5.5,5L13,7V4z" xmlns="http://www.w3.org/2000/svg" />
</g>

<g transform="translate(253, 315)">
<path fill="#FFFFFF" d="M6,12l5-5.5L6,1H3l5,5.5L3,12H6z" xmlns="http://www.w3.org/2000/svg" />
</g>

<g transform="translate(0, 362)">
<path fill="#FFFFFF" d="M11,12L6,6.5L11,1H8L3,6.5L8,12H11z" xmlns="http://www.w3.org/2000/svg" />
</g>

<g transform="translate(0, 281)">
<path fill="#FFFFFF" d="M13,4L7.5,9L2,4v3l5.5,5L13,7V4z" xmlns="http://www.w3.org/2000/svg" />
</g>

<g transform="translate(204, 260)">
<path fill="#FFFFFF" d="M6,12L1.5,8L0,9.5L6,15L18,3.5L16.5,2L6,12z" xmlns="http://www.w3.org/2000/svg" />
</g>

<g transform="translate(150, 362)">
<path fill="#FFFFFF" d="M6,12l5-5.5L6,1H3l5,5.5L3,12H6z" xmlns="http://www.w3.org/2000/svg" />
</g>

<g transform="translate(270, 332)">
<path fill="#666" d="M11,12L6,6.5L11,1H8L3,6.5L8,12H11z" xmlns="http://www.w3.org/2000/svg" />
</g>

<g transform="translate(51, 281)">
<path fill="#BDBDBD" d="M13,4L7.5,9L2,4v3l5.5,5L13,7V4z" xmlns="http://www.w3.org/2000/svg" />
</g>

<g transform="translate(90, 332)">
<path fill="#BDBDBD" d="M6,12l5-5.5L6,1H3l5,5.5L3,12H6z" xmlns="http://www.w3.org/2000/svg" />
</g>

<g transform="translate(238, 315)">
<path fill="#BDBDBD" d="M11,12L6,6.5L11,1H8L3,6.5L8,12H11z" xmlns="http://www.w3.org/2000/svg" />
</g>

<g transform="translate(25, 185)">
<g xmlns="http://www.w3.org/2000/svg">
	<path fill="#FFF" d="M18,4h-3V1H3v16h3v3h3v3h12V7h-3V4z M4,16V2h10v2H6v12H4z M7,19V5h10v2H9v12H7z M10,22V8h10v14H10z" />
</g>
</g>

<g transform="translate(100, 235)">
<g xmlns="http://www.w3.org/2000/svg">
	<polygon fill="#FFF" points="19,13 18,13 18,17 14,17 14,18 18,18 18,22 19,22 19,18 23,18 23,17 19,17 	" />
	<path fill="#FFF" d="M13,1l-3,3H1v14h12v-1H2V5h8l3,3h9v8h1V1H13z M22,7h-8l-3-2.5L14,2h8V7z" />
</g>
</g>

<g transform="translate(100, 185)">
<g xmlns="http://www.w3.org/2000/svg">
	<path fill="#FFF" d="M21,4l-1-1l-8,8L4,3L3,4l7.9,8L3,20l1,1l8-7.9l8,7.9l1-1l-8-8L21,4L21,4z" />
</g>
</g>

<g transform="translate(25, 235)">
<g xmlns="http://www.w3.org/2000/svg">
	<path fill="#FFF" d="M19,24v-1H4v1H19z M17.9,12.5L12,18V1h-1v17l-5.9-5.5L4,13.6l7.5,7.4l7.5-7.4L17.9,12.5z" />
</g>
</g>

<g transform="translate(50, 210)">
<g xmlns="http://www.w3.org/2000/svg">
	<polygon fill="#FFF" points="6,3 6,13 7,13 7,4 19,4 19,20 7,20 7,16 6,16 6,21 7,21 19,21 20,21 20,3" />
	<polygon fill="#FFF" points="11,17 11,18 12,18 15,15 15,14 12,11 11,11 11,12 13,14 4,14 4,15 13,15" />
</g>
</g>

<g transform="translate(125, 235)">
<g xmlns="http://www.w3.org/2000/svg">
	<path fill="#FFF" d="M21.3,9H18V8h2.9c-1.6-3-4.7-5-8.4-5c-4,0-7.4,2.5-8.8,6H2.6C4,4.9,7.9,2,12.5,2c4.2,0,7.8,2.5,9.5,6l0,0V4&#xD;&#xA;		h1v4v1h-0.6H21.3z M3.3,15H7v1H3.7c1.4,3.5,4.8,6,8.8,6c4.4,0,8.1-3,9.2-7h1c-1.1,4.6-5.3,8-10.2,8c-4.2,0-7.8-2.5-9.5-6v3H2v-4v-1&#xD;&#xA;		h0.3H3.3z" />
</g>
</g>

<g transform="translate(200, 185)">
<g xmlns="http://www.w3.org/2000/svg">
	<path fill="#FFF" d="M20.9,13l-1.8,1.9L14,20l-4,1l1-4l5.1-5.1L18,10l0,0c0,0,0.3-0.1,0.5-0.1c1.4,0,2.5,1.1,2.5,2.5C21,12.7,20.9,13,20.9,13L20.9,13z M12,19l2-1l5-5l-1-1l-5,5L12,19z" />
	<polygon fill="#FFF" points="4,3 4,21 9,21 9,20 5,20 5,4 17,4 17,9 18,9 18,3" />
</g>
</g>

<g transform="translate(75, 185)">
<g xmlns="http://www.w3.org/2000/svg">
	<path fill="#FFF" d="M4,0v1h15V0H4z M19,10.4L11.5,3L4,10.4l1.1,1.1L11,6v17h1V6l5.9,5.5L19,10.4z" />
</g>
</g>

<g transform="translate(51, 315)">
<circle fill="#666" cx="2" cy="8" r="2" xmlns="http://www.w3.org/2000/svg" />
<circle fill="#666" cx="8" cy="8" r="2" xmlns="http://www.w3.org/2000/svg" />
<circle fill="#666" cx="14" cy="8" r="2" xmlns="http://www.w3.org/2000/svg" />
</g>

<g transform="translate(153, 298)">
<path fill="#666" d="M13,4L7.5,9L2,4v3l5.5,5L13,7V4z" xmlns="http://www.w3.org/2000/svg" />
</g>

<g transform="translate(150, 332)">
<path fill="#666" d="M6,12l5-5.5L6,1H3l5,5.5L3,12H6z" xmlns="http://www.w3.org/2000/svg" />
</g>

<g transform="translate(165, 332)">
<path fill="#666" d="M11,12L6,6.5L11,1H8L3,6.5L8,12H11z" xmlns="http://www.w3.org/2000/svg" />
</g>

<g transform="translate(298, 315)">
<style type="text/css" xmlns="http://www.w3.org/2000/svg">
	.st0{fill:#757575;}
</style>
<polygon class="st0" points="13,6 4.4,6 7.2,3.2 5.8,1.8 0.6,7 0.6,7 0.6,7 5.8,12.2 7.2,10.8 4.4,8 13,8 " xmlns="http://www.w3.org/2000/svg" />
</g>

<g transform="translate(129, 390)">
<path fill="#FFFFFF" d="M1,2L0,3l4.5,5L9,3L8,2L4.5,5.8L1,2z" xmlns="http://www.w3.org/2000/svg" />
</g>

<g transform="translate(189, 390)">
<path fill="#FFFFFF" d="M8,7l1-1L4.5,1L0,6l1,1l3.5-3.8L8,7z" xmlns="http://www.w3.org/2000/svg" />
</g>

<g transform="translate(139, 390)">
<path fill="#666" d="M1,2L0,3l4.5,5L9,3L8,2L4.5,5.8L1,2z" xmlns="http://www.w3.org/2000/svg" />
</g>

<g transform="translate(159, 390)">
<path fill="#666" d="M8,7l1-1L4.5,1L0,6l1,1l3.5-3.8L8,7z" xmlns="http://www.w3.org/2000/svg" />
</g>

<g transform="translate(17, 298)">
<path fill="#FFFFFF" d="M13,4L7.5,9L2,4v3l5.5,5L13,7V4z" xmlns="http://www.w3.org/2000/svg" />
</g>

<g transform="translate(30, 347)">
<path fill="#FFFFFF" d="M5,13L0,8l2-2l3,3l7-7l2,2L5,13z" xmlns="http://www.w3.org/2000/svg" />
</g>

<g transform="translate(90, 362)">
<path fill="#FFFFFF" d="M6,12l5-5.5L6,1H3l5,5.5L3,12H6z" xmlns="http://www.w3.org/2000/svg" />
</g>

<g transform="translate(210, 347)">
<path fill="#FFFFFF" d="M11,12L6,6.5L11,1H8L3,6.5L8,12H11z" xmlns="http://www.w3.org/2000/svg" />
</g>

<g transform="translate(85, 298)">
<path fill="#666" d="M13,4L7.5,9L2,4v3l5.5,5L13,7V4z" xmlns="http://www.w3.org/2000/svg" />
</g>

<g transform="translate(225, 347)">
<path fill="#666" d="M6,12l5-5.5L6,1H3l5,5.5L3,12H6z" xmlns="http://www.w3.org/2000/svg" />
</g>

<g transform="translate(15, 332)">
<path fill="#666" d="M11,12L6,6.5L11,1H8L3,6.5L8,12H11z" xmlns="http://www.w3.org/2000/svg" />
</g>

<g transform="translate(285, 347)">
<path fill="#FFFFFF" d="M6,12l5-5.5L6,1H3l5,5.5L3,12H6z" xmlns="http://www.w3.org/2000/svg" />
</g>

<g transform="translate(135, 332)">
<path fill="#FFFFFF" d="M6,12l5-5.5L6,1H3l5,5.5L3,12H6z" xmlns="http://www.w3.org/2000/svg" />
</g>

<g transform="translate(105, 332)">
<path fill="#666" d="M6,12l5-5.5L6,1H3l5,5.5L3,12H6z" xmlns="http://www.w3.org/2000/svg" />
</g>

<g transform="translate(296, 111)">
<path fill="#FFFFFF" d="M6,12l5-5.5L6,1H3l5,5.5L3,12H6z" xmlns="http://www.w3.org/2000/svg" />
</g>

<g transform="translate(296, 148)">
<path fill="#666" d="M6,12l5-5.5L6,1H3l5,5.5L3,12H6z" xmlns="http://www.w3.org/2000/svg" />
</g>

<g transform="translate(45, 362)">
<path fill="#757575" d="M6,12l5-5.5L6,1H3l5,5.5L3,12H6z" xmlns="http://www.w3.org/2000/svg" />
</g>

<g transform="translate(17, 281)">
<g xmlns="http://www.w3.org/2000/svg">
	<path fill-rule="evenodd" clip-rule="evenodd" fill="#666666" d="M13,4L7.5,9L2,4v3l5.5,5L13,7V4z" />
</g>
</g>

<g transform="translate(221, 315)">
<g xmlns="http://www.w3.org/2000/svg">
	<path fill="#bdbdbd" d="M1,14h12V4H1V14z M2,7h10v6H2V7z" />
	<polygon fill="#bdbdbd" points="4,1 4,3 5,3 5,2 15,2 15,10 14,10 14,11 16,11 16,1 	" />
</g>
</g>

<g transform="translate(297, 59)">
<path fill="#666" d="M10,5l1,0l3-2v7l-3-2l-1,0l-4,3V8L0,6.5L6,5V2.1L10,5z" xmlns="http://www.w3.org/2000/svg" />
</g>

<g transform="translate(300, 185)">
<polygon fill="#FFF" points="10,3 5,8 0,3 " xmlns="http://www.w3.org/2000/svg" />
</g>

<g transform="translate(185, 260)">
<g xmlns="http://www.w3.org/2000/svg">
	<path fill="#009688" d="M0,15h18v-2H0V15z M0,10h18V8H0V10z M0,3v2h18V3H0z" />
</g>
</g>

<g transform="translate(187, 281)">
<g xmlns="http://www.w3.org/2000/svg">
	<path fill="#009688" d="M7,0v12.2L1.4,6.6L0,8l8,8l8-8l-1.4-1.4L9,12.2V0L7,0z" />
</g>
</g>

<g transform="translate(102, 281)">
<g xmlns="http://www.w3.org/2000/svg">
	<path fill="#009688" d="M16,7H3.8l5.6-5.6L8,0L0,8l8,8l1.4-1.4L3.8,9H16V7z" />
</g>
</g>

<g transform="translate(68, 315)">
<g xmlns="http://www.w3.org/2000/svg">
	<path fill="#009688" d="M0,9h12.2l-5.6,5.6L8,16l8-8L8,0L6.6,1.4L12.2,7H0L0,9z" />
</g>
</g>

<g transform="translate(238, 298)">
<g xmlns="http://www.w3.org/2000/svg">
	<path fill="#009688" d="M9,16V3.8l5.6,5.6L16,8L8,0L0,8l1.4,1.4L7,3.8V16H9z" />
</g>
</g>

<g transform="translate(242, 260)">
<g xmlns="http://www.w3.org/2000/svg">
	<path fill="#009688" d="M0,15h18v-2H0V15z M0,10h18V8H0V10z M0,3v2h18V3H0z" />
</g>
</g>

<g transform="translate(272, 281)">
<g xmlns="http://www.w3.org/2000/svg">
	<path fill="#009688" d="M7,0v12.2L1.4,6.6L0,8l8,8l8-8l-1.4-1.4L9,12.2V0L7,0z" />
</g>
</g>

<g transform="translate(255, 281)">
<g xmlns="http://www.w3.org/2000/svg">
	<path fill="#009688" d="M16,7H3.8l5.6-5.6L8,0L0,8l8,8l1.4-1.4L3.8,9H16V7z" />
</g>
</g>

<g transform="translate(170, 298)">
<g xmlns="http://www.w3.org/2000/svg">
	<path fill="#009688" d="M0,9h12.2l-5.6,5.6L8,16l8-8L8,0L6.6,1.4L12.2,7H0L0,9z" />
</g>
</g>

<g transform="translate(136, 281)">
<g xmlns="http://www.w3.org/2000/svg">
	<path fill="#009688" d="M9,16V3.8l5.6,5.6L16,8L8,0L0,8l1.4,1.4L7,3.8V16H9z" />
</g>
</g>

<g transform="translate(136, 298)">
<g xmlns="http://www.w3.org/2000/svg">
	<path fill="#757575" d="M15,2.4L13.6,1L8,6.6L2.4,1L1,2.4L6.6,8L1,13.6L2.4,15L8,9.4l5.6,5.6l1.4-1.4L9.4,8L15,2.4z" />
</g>
</g>

<g transform="translate(255, 298)">
<g xmlns="http://www.w3.org/2000/svg">
	<path fill="#757575" d="M9,16V3.8l5.6,5.6L16,8L8,0L0,8l1.4,1.4L7,3.8V16H9z" />
</g>
</g>

<g transform="translate(136, 315)">
<g xmlns="http://www.w3.org/2000/svg">
	<path fill="#757575" d="M0,9h12.2l-5.6,5.6L8,16l8-8L8,0L6.6,1.4L12.2,7H0L0,9z" />
</g>
</g>

<g transform="translate(119, 298)">
<g xmlns="http://www.w3.org/2000/svg">
	<path fill="#757575" d="M16,7H3.8l5.6-5.6L8,0L0,8l8,8l1.4-1.4L3.8,9H16V7z" />
</g>
</g>

<g transform="translate(68, 298)">
<g xmlns="http://www.w3.org/2000/svg">
	<path fill="#757575" d="M7,0v12.2L1.4,6.6L0,8l8,8l8-8l-1.4-1.4L9,12.2V0L7,0z" />
</g>
</g>

<g transform="translate(119, 281)">
<g xmlns="http://www.w3.org/2000/svg">
	<path fill="#009688" d="M15,2.4L13.6,1L8,6.6L2.4,1L1,2.4L6.6,8L1,13.6L2.4,15L8,9.4l5.6,5.6l1.4-1.4L9.4,8L15,2.4z" />
</g>
</g>

<g transform="translate(170, 315)">
<g xmlns="http://www.w3.org/2000/svg">
	<path fill="#009688" d="M9,16V3.8l5.6,5.6L16,8L8,0L0,8l1.4,1.4L7,3.8V16H9z" />
</g>
</g>

<g transform="translate(102, 315)">
<g xmlns="http://www.w3.org/2000/svg">
	<path fill="#009688" d="M0,9h12.2l-5.6,5.6L8,16l8-8L8,0L6.6,1.4L12.2,7H0L0,9z" />
</g>
</g>

<g transform="translate(85, 315)">
<g xmlns="http://www.w3.org/2000/svg">
	<path fill="#009688" d="M16,7H3.8l5.6-5.6L8,0L0,8l8,8l1.4-1.4L3.8,9H16V7z" />
</g>
</g>

<g transform="translate(34, 281)">
<g xmlns="http://www.w3.org/2000/svg">
	<path fill="#009688" d="M7,0v12.2L1.4,6.6L0,8l8,8l8-8l-1.4-1.4L9,12.2V0L7,0z" />
</g>
</g>

<g transform="translate(204, 315)">
<g xmlns="http://www.w3.org/2000/svg">
	<path fill="#009688" d="M15,2.4L13.6,1L8,6.6L2.4,1L1,2.4L6.6,8L1,13.6L2.4,15L8,9.4l5.6,5.6l1.4-1.4L9.4,8L15,2.4z" />
</g>
</g>

<g transform="translate(221, 298)">
<g xmlns="http://www.w3.org/2000/svg">
	<path fill="#009688" d="M9,16V3.8l5.6,5.6L16,8L8,0L0,8l1.4,1.4L7,3.8V16H9z" />
</g>
</g>

<g transform="translate(102, 298)">
<g xmlns="http://www.w3.org/2000/svg">
	<path fill="#009688" d="M0,9h12.2l-5.6,5.6L8,16l8-8L8,0L6.6,1.4L12.2,7H0L0,9z" />
</g>
</g>

<g transform="translate(187, 298)">
<g xmlns="http://www.w3.org/2000/svg">
	<path fill="#009688" d="M16,7H3.8l5.6-5.6L8,0L0,8l8,8l1.4-1.4L3.8,9H16V7z" />
</g>
</g>

<g transform="translate(289, 281)">
<g xmlns="http://www.w3.org/2000/svg">
	<path fill="#009688" d="M7,0v12.2L1.4,6.6L0,8l8,8l8-8l-1.4-1.4L9,12.2V0L7,0z" />
</g>
</g>

<g transform="translate(98, 390)">
<polygon fill="#FFF" points="10,3 5,8 0,3 " xmlns="http://www.w3.org/2000/svg" />
</g>

<g transform="translate(253, 390)">
<polygon fill="#FFFFFF" points="7,0 0,0 3.5,4 " xmlns="http://www.w3.org/2000/svg" />
</g>

<g transform="translate(237, 390)">
<polygon fill="#FFFFFF" points="7,3 0,3 3.5,7 " xmlns="http://www.w3.org/2000/svg" />
<rect fill="#FFFFFF" x="0" y="1" width="7" height="1" xmlns="http://www.w3.org/2000/svg" />
</g>

<g transform="translate(285, 390)">
<polygon fill="#FFFFFF" points="7,4 0,4 3.5,0 " xmlns="http://www.w3.org/2000/svg" />
</g>

<g transform="translate(199, 390)">
<path fill="#FFFFFF" d="M1,2L0,3l4.5,5L9,3L8,2L4.5,5.8L1,2z" xmlns="http://www.w3.org/2000/svg" />
</g>

<g transform="translate(169, 390)">
<path fill="#FFFFFF" d="M1,2L0,3l4.5,5L9,3L8,2L4.5,5.8L1,2z" xmlns="http://www.w3.org/2000/svg" />
</g>

<g transform="translate(209, 390)">
<path fill="#FFFFFF" d="M1,2L0,3l4.5,5L9,3L8,2L4.5,5.8L1,2z" xmlns="http://www.w3.org/2000/svg" />
</g>

<g transform="translate(119, 390)">
<path fill="#FFFFFF" d="M1,2L0,3l4.5,5L9,3L8,2L4.5,5.8L1,2z" xmlns="http://www.w3.org/2000/svg" />
</g>

<g transform="translate(219, 390)">
<path fill="#FFFFFF" d="M1,2L0,3l4.5,5L9,3L8,2L4.5,5.8L1,2z" xmlns="http://www.w3.org/2000/svg" />
</g>

<g transform="translate(26, 390)">
<path fill="#FFFFFF" d="M6,5l4.5,4.5L12,8L6,2L0,8l1.5,1.5L6,5z" xmlns="http://www.w3.org/2000/svg" />
</g>

<g transform="translate(247, 377)">
<path fill="#FFFFFF" d="M6,5l4.5,4.5L12,8L6,2L0,8l1.5,1.5L6,5z" xmlns="http://www.w3.org/2000/svg" />
</g>

<g transform="translate(299, 260)">
<path fill="#FFFFFF" d="M1.5,2.5L0,4l6,6l6-6l-1.5-1.5L6,7L1.5,2.5z" xmlns="http://www.w3.org/2000/svg" />
</g>

<g transform="translate(282, 362)">
<path fill="#FFFFFF" d="M1.5,2.5L0,4l6,6l6-6l-1.5-1.5L6,7L1.5,2.5z" xmlns="http://www.w3.org/2000/svg" />
</g>

<g transform="translate(0, 377)">
<path fill="#666" d="M1.5,2.5L0,4l6,6l6-6l-1.5-1.5L6,7L1.5,2.5z" xmlns="http://www.w3.org/2000/svg" />
</g>

<g transform="translate(165, 347)">
<path fill="#FFF" d="M0,0v14h14V0H0z M6,12L2,8l1-2l3,3l5-6l1,2L6,12z" xmlns="http://www.w3.org/2000/svg" />
</g>

<g transform="translate(225, 332)">
<g xmlns="http://www.w3.org/2000/svg">
	<path fill="#009688" d="M0,14V0h14v14H0z M13,1H1v12h12V1z" />
	<rect x="3" y="3" fill="#009688" width="8" height="8" />
</g>

</g>

<g transform="translate(105, 362)">
<g xmlns="http://www.w3.org/2000/svg">
	<path opacity="0.6" d="M0,14V0h14v14H0z M13,1H1v12h12V1z" />
</g>
</g>

<g transform="translate(297, 170)">
<path fill="#FFF" d="M0,0v14h14V0H0z M6,12L2,8l1-2l3,3l5-6l1,2L6,12z" xmlns="http://www.w3.org/2000/svg" />
</g>

<g transform="translate(120, 362)">
<g xmlns="http://www.w3.org/2000/svg">
	<path fill="#FFFFFF" d="M0,14V0h14v14H0z M13,1H1v12h12V1z" />
	<rect x="3" y="3" fill="#FFFFFF" width="8" height="8" />
</g>

</g>

<g transform="translate(90, 347)">
<g xmlns="http://www.w3.org/2000/svg">
	<path fill="#FFFFFF" d="M0,14V0h14v14H0z M13,1H1v12h12V1z" />
</g>
</g>

<g transform="translate(0, 298)">
<g xmlns="http://www.w3.org/2000/svg">
	<path fill="#FFF" d="M8,2L6,4H0v10h16V2H8L8,2z" />
</g>
</g>

<g transform="translate(204, 281)">
<g xmlns="http://www.w3.org/2000/svg">
	<path fill="#FFF" d="M8,2L6,4H0v10h16V2H8L8,2z" />
</g>
<path fill="#999" d="M14,8V7c0-1.1-0.9-2-2-2s-2,0.9-2,2v1H9v5h6V8H14z M11,7c0-0.6,0.4-1,1-1s1,0.4,1,1v1h-2V7z M14,12h-4V9h4&#xD;&#xA;	V12z" xmlns="http://www.w3.org/2000/svg" />
</g>

<g transform="translate(75, 362)">
<path fill="#009688" d="M0,0v14h14V0H0z M6,12L2,8l1-2l3,3l5-6l1,2L6,12z" xmlns="http://www.w3.org/2000/svg" />
</g>

<g transform="translate(296, 37)">

<path opacity="0.3" d="M0,0v14h14V0H0z M6,12L2,8l1-2l3,3l5-6l1,2L6,12z" xmlns="http://www.w3.org/2000/svg" />
</g>

<g transform="translate(105, 347)">
<g xmlns="http://www.w3.org/2000/svg">
	<path fill="#009688" d="M0,14V0h14v14H0z M13,1H1v12h12V1z" />
	<rect x="3" y="3" fill="#009688" width="8" height="8" />
</g>

</g>

<g transform="translate(45, 332)">
<g opacity="0.5" xmlns="http://www.w3.org/2000/svg">
	<path opacity="0.6" d="M0,14V0h14v14H0z M13,1H1v12h12V1z" />
	<rect x="3" y="3" opacity="0.3" width="8" height="8" />
</g>

</g>

<g transform="translate(30, 332)">
<g xmlns="http://www.w3.org/2000/svg">
	<path opacity="0.6" d="M0,14V0h14v14H0z M13,1H1v12h12V1z" />
</g>
</g>

<g transform="translate(270, 347)">
<g xmlns="http://www.w3.org/2000/svg">
	<path opacity="0.3" d="M0,14V0h14v14H0z M13,1H1v12h12V1z" />
</g>
</g>

<g transform="translate(305, 235)">
<polygon fill="#666" points="0,0 0,7 4,3.5 " xmlns="http://www.w3.org/2000/svg" />
</g>

<g transform="translate(195, 347)">
	<path fill="#666" d="M13,6H1.9L5,2.9L4.3,2.1L0,6.5l4.3,4.4L5,10.1L1.9,7H13V6L13,6z" xmlns="http://www.w3.org/2000/svg" />
</g>

<g transform="translate(180, 347)">
	<path fill="#666" opacity="0.5" d="M13,6H1.9L5,2.9L4.3,2.1L0,6.5l4.3,4.4L5,10.1L1.9,7H13V6L13,6z" xmlns="http://www.w3.org/2000/svg" />
</g>

<g transform="translate(283, 315)">
	<path fill="#FFF" d="M13,6H1.9L5,2.9L4.3,2.1L0,6.5l4.3,4.4L5,10.1L1.9,7H13V6L13,6z" xmlns="http://www.w3.org/2000/svg" />
</g>

<g transform="translate(175, 235)">
<g xmlns="http://www.w3.org/2000/svg">
	<path fill="#666666" d="M18,4h-3V1H3v16h3v3h3v3h12V7h-3V4z M4,16V2h10v2H6v12H4z M7,19V5h10v2H9v12H7z M10,22V8h10v14H10z" />
</g>
</g>

<g transform="translate(250, 210)">
<g xmlns="http://www.w3.org/2000/svg">
	<path opacity="0.5" fill="#666666" d="M18,4h-3V1H3v16h3v3h3v3h12V7h-3V4z M4,16V2h10v2H6v12H4z M7,19V5h10v2H9v12H7z M10,22V8h10v14H10z" />
</g>
</g>

<g transform="translate(175, 185)">
<g xmlns="http://www.w3.org/2000/svg">
	<polygon fill="#666666" points="19,13 18,13 18,17 14,17 14,18 18,18 18,22 19,22 19,18 23,18 23,17 19,17 	" />
	<path fill="#666666" d="M13,1l-3,3H1v14h12v-1H2V5h8l3,3h9v8h1V1H13z M22,7h-8l-3-2.5L14,2h8V7z" />
</g>
</g>

<g transform="translate(225, 210)">
<g xmlns="http://www.w3.org/2000/svg">
	<polygon opacity="0.5" fill="#666666" points="19,13 18,13 18,17 14,17 14,18 18,18 18,22 19,22 19,18 23,18 23,17 19,17 	" />
	<path opacity="0.5" fill="#666666" d="M13,1l-3,3H1v14h12v-1H2V5h8l3,3h9v8h1V1H13z M22,7h-8l-3-2.5L14,2h8V7z" />
</g>
</g>

<g transform="translate(250, 185)">
<g xmlns="http://www.w3.org/2000/svg">
	<path fill="#666666" d="M21,4l-1-1l-8,8L4,3L3,4l7.9,8L3,20l1,1l8-7.9l8,7.9l1-1l-8-8L21,4L21,4z" />
</g>
</g>

<g transform="translate(50, 185)">
<g xmlns="http://www.w3.org/2000/svg">
	<path opacity="0.5" fill="#666666" d="M21,4l-1-1l-8,8L4,3L3,4l7.9,8L3,20l1,1l8-7.9l8,7.9l1-1l-8-8L21,4L21,4z" />
</g>
</g>

<g transform="translate(75, 210)">
<g xmlns="http://www.w3.org/2000/svg">
	<path fill="#666666" d="M19,24v-1H4v1H19z M17.9,12.5L12,18V1h-1v17l-5.9-5.5L4,13.6l7.5,7.4l7.5-7.4L17.9,12.5z" />
</g>
</g>

<g transform="translate(200, 210)">
<g xmlns="http://www.w3.org/2000/svg">
	<path opacity="0.5" fill="#666666" d="M19,24v-1H4v1H19z M17.9,12.5L12,18V1h-1v17l-5.9-5.5L4,13.6l7.5,7.4l7.5-7.4L17.9,12.5z" />
</g>
</g>

<g transform="translate(280, 260)">
<g xmlns="http://www.w3.org/2000/svg">
	<path fill="#757576" d="M0,15h18v-2H0V15z M0,10h18V8H0V10z M0,3v2h18V3H0z" />
</g>
</g>

<g transform="translate(119, 315)">
<g xmlns="http://www.w3.org/2000/svg">
	<path fill="#999" d="M8,2L6,4H0v10h16V2H8L8,2z" />
</g>
</g>

<g transform="translate(17, 315)">
<g xmlns="http://www.w3.org/2000/svg">
	<path fill="#999" d="M8,2L6,4H0v10h16V2H8L8,2z" />
</g>
<path fill="#FFF" d="M14,8V7c0-1.1-0.9-2-2-2s-2,0.9-2,2v1H9v5h6V8H14z M11,7c0-0.6,0.4-1,1-1s1,0.4,1,1v1h-2V7z M14,12h-4V9h4&#xD;&#xA;	V12z" xmlns="http://www.w3.org/2000/svg" />
</g>

<g transform="translate(225, 185)">
<g xmlns="http://www.w3.org/2000/svg">
	<polygon fill="#666" points="6,3 6,13 7,13 7,4 19,4 19,20 7,20 7,16 6,16 6,21 7,21 19,21 20,21 20,3" />
	<polygon fill="#666" points="11,17 11,18 12,18 15,15 15,14 12,11 11,11 11,12 13,14 4,14 4,15 13,15" />
</g>
</g>

<g transform="translate(150, 210)">
<g opacity="0.5" xmlns="http://www.w3.org/2000/svg">
	<polygon fill="#666" points="6,3 6,13 7,13 7,4 19,4 19,20 7,20 7,16 6,16 6,21 7,21 19,21 20,21 20,3" />
	<polygon fill="#666" points="11,17 11,18 12,18 15,15 15,14 12,11 11,11 11,12 13,14 4,14 4,15 13,15" />
</g>
</g>

<g transform="translate(0, 185)">
<g xmlns="http://www.w3.org/2000/svg">
	<path fill="#666666" d="M21.3,9H18V8h2.9c-1.6-3-4.7-5-8.4-5c-4,0-7.4,2.5-8.8,6H2.6C4,4.9,7.9,2,12.5,2c4.2,0,7.8,2.5,9.5,6l0,0V4&#xD;&#xA;		h1v4v1h-0.6H21.3z M3.3,15H7v1H3.7c1.4,3.5,4.8,6,8.8,6c4.4,0,8.1-3,9.2-7h1c-1.1,4.6-5.3,8-10.2,8c-4.2,0-7.8-2.5-9.5-6v3H2v-4v-1&#xD;&#xA;		h0.3H3.3z" />
</g>
</g>

<g transform="translate(125, 210)">
<g xmlns="http://www.w3.org/2000/svg">
	<path opacity="0.5" fill="#666666" d="M21.3,9H18V8h2.9c-1.6-3-4.7-5-8.4-5c-4,0-7.4,2.5-8.8,6H2.6C4,4.9,7.9,2,12.5,2c4.2,0,7.8,2.5,9.5,6l0,0V4&#xD;&#xA;		h1v4v1h-0.6H21.3z M3.3,15H7v1H3.7c1.4,3.5,4.8,6,8.8,6c4.4,0,8.1-3,9.2-7h1c-1.1,4.6-5.3,8-10.2,8c-4.2,0-7.8-2.5-9.5-6v3H2v-4v-1&#xD;&#xA;		h0.3H3.3z" />
</g>
</g>

<g transform="translate(0, 235)">
<g xmlns="http://www.w3.org/2000/svg">
	<path fill="#666" d="M20.9,13l-1.8,1.9L14,20l-4,1l1-4l5.1-5.1L18,10l0,0c0,0,0.3-0.1,0.5-0.1c1.4,0,2.5,1.1,2.5,2.5C21,12.7,20.9,13,20.9,13L20.9,13z M12,19l2-1l5-5l-1-1l-5,5L12,19z" />
	<polygon fill="#666" points="4,3 4,21 9,21 9,20 5,20 5,4 17,4 17,9 18,9 18,3" />
</g>
</g>

<g transform="translate(0, 210)">
<g opacity="0.5" xmlns="http://www.w3.org/2000/svg">
	<path fill="#666" d="M20.9,13l-1.8,1.9L14,20l-4,1l1-4l5.1-5.1L18,10l0,0c0,0,0.3-0.1,0.5-0.1c1.4,0,2.5,1.1,2.5,2.5C21,12.7,20.9,13,20.9,13L20.9,13z M12,19l2-1l5-5l-1-1l-5,5L12,19z" />
	<polygon fill="#666" points="4,3 4,21 9,21 9,20 5,20 5,4 17,4 17,9 18,9 18,3" />
</g>
</g>

<g transform="translate(150, 235)">
<g xmlns="http://www.w3.org/2000/svg">
	<path fill="#666666" d="M4,0v1h15V0H4z M19,10.4L11.5,3L4,10.4l1.1,1.1L11,6v17h1V6l5.9,5.5L19,10.4z" />
</g>
</g>

<g transform="translate(25, 210)">
<g xmlns="http://www.w3.org/2000/svg">
	<path opacity="0.5" fill="#666666" d="M4,0v1h15V0H4z M19,10.4L11.5,3L4,10.4l1.1,1.1L11,6v17h1V6l5.9,5.5L19,10.4z" />
</g>
</g>

<g transform="translate(84, 260)">
<path fill="#FFFFFF" d="M10,0C4.5,0,0,4.5,0,10s4.5,10,10,10s10-4.5,10-10S15.5,0,10,0z M15,13.6L13.6,15L10,11.4L6.4,15L5,13.6L8.6,10L5,6.4L6.4,5&#xD;&#xA;	L10,8.6L13.6,5L15,6.4L11.4,10L15,13.6z" xmlns="http://www.w3.org/2000/svg" />
</g>

<g transform="translate(208, 377)">
<g xmlns="http://www.w3.org/2000/svg">
	<path fill="#FFFFFF" fill-rule="evenodd" clip-rule="evenodd" d="M6,2.7L1.4,7L0,5.7L6,0l6,5.7L10.6,7L6,2.7z M12,10.7L10.6,12L6,7.6L1.4,12L0,10.7L6,5L12,10.7z" />
</g>
</g>

<g transform="translate(222, 74)">
<g xmlns="http://www.w3.org/2000/svg">
	<path fill="#FFFFFF" clip-rule="evenodd" fill-rule="evenodd" d="M18,0c9.9,0,18,8.1,18,18c0,9.9-8.1,18-18,18C8.1,36,0,27.9,0,18C0,8.1,8.1,0,18,0z" />
</g>
<g xmlns="http://www.w3.org/2000/svg">
	<path fill="#757575" d="M19.3,18L15,22.6l1.4,1.4l5.7-6l-5.7-6L15,13.4L19.3,18z" />
</g>
</g>

<g transform="translate(148, 37)">
<g xmlns="http://www.w3.org/2000/svg">
	<path fill="#DADADA" clip-rule="evenodd" fill-rule="evenodd" d="M18,0c9.9,0,18,8.1,18,18c0,9.9-8.1,18-18,18C8.1,36,0,27.9,0,18C0,8.1,8.1,0,18,0z" />
</g>
<g xmlns="http://www.w3.org/2000/svg">
	<path fill="#757575" d="M19.3,18L15,22.6l1.4,1.4l5.7-6l-5.7-6L15,13.4L19.3,18z" />
</g>
</g>

<g transform="translate(0, 37)">
<g xmlns="http://www.w3.org/2000/svg">
	<path fill="#009688" clip-rule="evenodd" fill-rule="evenodd" d="M18,0c9.9,0,18,8.1,18,18c0,9.9-8.1,18-18,18C8.1,36,0,27.9,0,18C0,8.1,8.1,0,18,0z" />
</g>
<g xmlns="http://www.w3.org/2000/svg">
	<path fill="#FFFFFF" d="M19.3,18L15,22.6l1.4,1.4l5.7-6l-5.7-6L15,13.4L19.3,18z" />
</g>
</g>

<g transform="translate(148, 148)">
<g xmlns="http://www.w3.org/2000/svg">
	<path fill="#009688" clip-rule="evenodd" fill-rule="evenodd" d="M18,0c9.9,0,18,8.1,18,18c0,9.9-8.1,18-18,18C8.1,36,0,27.9,0,18C0,8.1,8.1,0,18,0z" />
</g>
<g xmlns="http://www.w3.org/2000/svg">
	<path fill="#FFFFFF" d="M19.3,18L15,22.6l1.4,1.4l5.7-6l-5.7-6L15,13.4L19.3,18z" />
</g>
</g>

<g transform="translate(0, 260)">
<g xmlns="http://www.w3.org/2000/svg">
	<path fill="#FFFFFF" fill-rule="evenodd" clip-rule="evenodd" d="M11,17V3h2v14H11z M7,3h2v14H7V3z" />
</g>
</g>

<g transform="translate(105, 260)">
<g xmlns="http://www.w3.org/2000/svg">
	<path fill="#FFFFFF" fill-rule="evenodd" clip-rule="evenodd" d="M6,3v14l9-7L6,3z" />
</g>
</g>

<g transform="translate(148, 74)">
<g xmlns="http://www.w3.org/2000/svg">
	<path fill="#FFFFFF" clip-rule="evenodd" fill-rule="evenodd" d="M18,0c9.9,0,18,8.1,18,18c0,9.9-8.1,18-18,18C8.1,36,0,27.9,0,18C0,8.1,8.1,0,18,0z" />
</g>
<g xmlns="http://www.w3.org/2000/svg">
	<path fill="#757575" d="M21,13.4L19.7,12L14,18l5.7,6l1.4-1.4L16.7,18L21,13.4z" />
</g>
</g>

<g transform="translate(74, 111)">
<g xmlns="http://www.w3.org/2000/svg">
	<path fill="#DADADA" clip-rule="evenodd" fill-rule="evenodd" d="M18,0c9.9,0,18,8.1,18,18c0,9.9-8.1,18-18,18C8.1,36,0,27.9,0,18C0,8.1,8.1,0,18,0z" />
</g>
<g xmlns="http://www.w3.org/2000/svg">
	<path fill="#757575" d="M21,13.4L19.7,12L14,18l5.7,6l1.4-1.4L16.7,18L21,13.4z" />
</g>
</g>

<g transform="translate(185, 37)">
<g xmlns="http://www.w3.org/2000/svg">
	<path fill="#009688" clip-rule="evenodd" fill-rule="evenodd" d="M18,0c9.9,0,18,8.1,18,18c0,9.9-8.1,18-18,18C8.1,36,0,27.9,0,18C0,8.1,8.1,0,18,0z" />
</g>
<g xmlns="http://www.w3.org/2000/svg">
	<path fill="#FFFFFF" d="M21,13.4L19.7,12L14,18l5.7,6l1.4-1.4L16.7,18L21,13.4z" />
</g>
</g>

<g transform="translate(74, 74)">
<g xmlns="http://www.w3.org/2000/svg">
	<path fill="#009688" clip-rule="evenodd" fill-rule="evenodd" d="M18,0c9.9,0,18,8.1,18,18c0,9.9-8.1,18-18,18C8.1,36,0,27.9,0,18C0,8.1,8.1,0,18,0z" />
</g>
<g xmlns="http://www.w3.org/2000/svg">
	<path fill="#FFFFFF" d="M21,13.4L19.7,12L14,18l5.7,6l1.4-1.4L16.7,18L21,13.4z" />
</g>
</g>

<g transform="translate(284, 235)">
<path fill="#767676" d="M10,0C4.5,0,0,4.5,0,10c0,5.5,4.5,10,10,10s10-4.5,10-10C20,4.5,15.5,0,10,0z M10,18c-4.4,0-8-3.6-8-8s3.6-8,8-8s8,3.6,8,8&#xD;&#xA;	S14.4,18,10,18z" xmlns="http://www.w3.org/2000/svg" />
</g>

<g transform="translate(263, 235)">
<path fill="#bdbdbd" d="M10,0C4.5,0,0,4.5,0,10c0,5.5,4.5,10,10,10s10-4.5,10-10C20,4.5,15.5,0,10,0z M10,18c-4.4,0-8-3.6-8-8s3.6-8,8-8s8,3.6,8,8&#xD;&#xA;	S14.4,18,10,18z" xmlns="http://www.w3.org/2000/svg" />
</g>

<g transform="translate(21, 260)">
<g xmlns="http://www.w3.org/2000/svg">
	<path fill="#009688" d="M10,5c-2.8,0-5,2.2-5,5c0,2.8,2.2,5,5,5c2.8,0,5-2.2,5-5C15,7.2,12.8,5,10,5z" />
	<path fill="#757576" d="M10,18c-4.4,0-8-3.6-8-8c0-4.4,3.6-8,8-8c4.4,0,8,3.6,8,8C18,14.4,14.4,18,10,18 M10,0C4.5,0,0,4.5,0,10&#xD;&#xA;		c0,5.5,4.5,10,10,10c5.5,0,10-4.5,10-10C20,4.5,15.5,0,10,0" />
</g>
</g>

<g transform="translate(259, 148)">
<g xmlns="http://www.w3.org/2000/svg">
	<path fill="#009688" clip-rule="evenodd" fill-rule="evenodd" d="M18,0c9.9,0,18,8.1,18,18c0,9.9-8.1,18-18,18C8.1,36,0,27.9,0,18C0,8.1,8.1,0,18,0z" />
</g>
<g xmlns="http://www.w3.org/2000/svg">
	<path fill="#FFF" d="M19.3,18L15,22.6l1.4,1.4l5.7-6l-5.7-6L15,13.4L19.3,18z" />
</g>
</g>

<g transform="translate(0, 111)">
<g xmlns="http://www.w3.org/2000/svg">
	<path fill="#009284" clip-rule="evenodd" fill-rule="evenodd" d="M18,0c9.9,0,18,8.1,18,18c0,9.9-8.1,18-18,18C8.1,36,0,27.9,0,18C0,8.1,8.1,0,18,0z" />
</g>
<g xmlns="http://www.w3.org/2000/svg">
	<path fill="#FFFFFF" d="M19.3,18L15,22.6l1.4,1.4l5.7-6l-5.7-6L15,13.4L19.3,18z" />
</g>
</g>

<g transform="translate(222, 37)">
<g xmlns="http://www.w3.org/2000/svg">
	<path fill="#009284" clip-rule="evenodd" fill-rule="evenodd" d="M18,0c9.9,0,18,8.1,18,18c0,9.9-8.1,18-18,18C8.1,36,0,27.9,0,18C0,8.1,8.1,0,18,0z" />
</g>
<g xmlns="http://www.w3.org/2000/svg">
	<path fill="#FFFFFF" d="M19.3,18L15,22.6l1.4,1.4l5.7-6l-5.7-6L15,13.4L19.3,18z" />
</g>
</g>

<g transform="translate(185, 111)">
<g xmlns="http://www.w3.org/2000/svg">
	<path fill="#F1F1F1" clip-rule="evenodd" fill-rule="evenodd" d="M18,0c9.9,0,18,8.1,18,18c0,9.9-8.1,18-18,18C8.1,36,0,27.9,0,18C0,8.1,8.1,0,18,0z" />
</g>
<g xmlns="http://www.w3.org/2000/svg">
	<path fill="#bdbdbd" d="M19.3,18L15,22.6l1.4,1.4l5.7-6l-5.7-6L15,13.4L19.3,18z" />
</g>
</g>

<g transform="translate(37, 0)">
<g xmlns="http://www.w3.org/2000/svg">
	<path fill-rule="evenodd" clip-rule="evenodd" fill="#009688" d="M0,18C0,8.1,8.1,0,18,0c9.9,0,18,8.1,18,18c0,9.9-8.1,18-18,18C8.1,36,0,27.9,0,18z" />
</g>
<g xmlns="http://www.w3.org/2000/svg">
	<path fill="#FFF" d="M13.4,15.5L12,16.8l6,5.7l6-5.7l-1.4-1.3L18,19.8L13.4,15.5z" />
</g>
</g>

<g transform="translate(111, 148)">
<g xmlns="http://www.w3.org/2000/svg">
	<path fill-rule="evenodd" clip-rule="evenodd" fill="#009284" d="M0,18C0,8.1,8.1,0,18,0c9.9,0,18,8.1,18,18c0,9.9-8.1,18-18,18C8.1,36,0,27.9,0,18z" />
</g>
<g xmlns="http://www.w3.org/2000/svg">
	<path fill="#FFFFFF" d="M13.4,15.5L12,16.8l6,5.7l6-5.7l-1.4-1.3L18,19.8L13.4,15.5z" />
</g>
</g>

<g transform="translate(111, 0)">
<g xmlns="http://www.w3.org/2000/svg">
	<path fill-rule="evenodd" clip-rule="evenodd" fill="#009284" d="M0,18C0,8.1,8.1,0,18,0c9.9,0,18,8.1,18,18c0,9.9-8.1,18-18,18C8.1,36,0,27.9,0,18z" />
</g>
<g xmlns="http://www.w3.org/2000/svg">
	<path fill="#FFFFFF" d="M13.4,15.5L12,16.8l6,5.7l6-5.7l-1.4-1.3L18,19.8L13.4,15.5z" />
</g>
</g>

<g transform="translate(148, 111)">
<g xmlns="http://www.w3.org/2000/svg">
	<path fill-rule="evenodd" clip-rule="evenodd" fill="#F1F1F1" d="M0,18C0,8.1,8.1,0,18,0c9.9,0,18,8.1,18,18c0,9.9-8.1,18-18,18C8.1,36,0,27.9,0,18z" />
</g>
<g xmlns="http://www.w3.org/2000/svg">
	<path fill="#bdbdbd" d="M13.4,15.5L12,16.8l6,5.7l6-5.7l-1.4-1.3L18,19.8L13.4,15.5z" />
</g>
</g>

<g transform="translate(26, 377)">
<path fill="#666" d="M2.5,10.5L4,12l6-6L4,0L2.5,1.4L7,6L2.5,10.5z" xmlns="http://www.w3.org/2000/svg" />
</g>

<g transform="translate(191, 362)">
<path fill="#bdbdbd" d="M2.5,10.5L4,12l6-6L4,0L2.5,1.4L7,6L2.5,10.5z" xmlns="http://www.w3.org/2000/svg" />
</g>

<g transform="translate(74, 148)">
<g xmlns="http://www.w3.org/2000/svg">
	<path fill="#009688" clip-rule="evenodd" fill-rule="evenodd" d="M18,0c9.9,0,18,8.1,18,18c0,9.9-8.1,18-18,18C8.1,36,0,27.9,0,18C0,8.1,8.1,0,18,0z" />
</g>
<g xmlns="http://www.w3.org/2000/svg">
	<path fill="#FFF" d="M19.3,18L15,22.6l1.4,1.4l5.7-6l-5.7-6L15,13.4L19.3,18z" />
</g>
</g>

<g transform="translate(37, 74)">
<g xmlns="http://www.w3.org/2000/svg">
	<path fill="#009284" clip-rule="evenodd" fill-rule="evenodd" d="M18,0c9.9,0,18,8.1,18,18c0,9.9-8.1,18-18,18C8.1,36,0,27.9,0,18C0,8.1,8.1,0,18,0z" />
</g>
<g xmlns="http://www.w3.org/2000/svg">
	<path fill="#FFFFFF" d="M19.3,18L15,22.6l1.4,1.4l5.7-6l-5.7-6L15,13.4L19.3,18z" />
</g>
</g>

<g transform="translate(37, 111)">
<g xmlns="http://www.w3.org/2000/svg">
	<path fill="#009284" clip-rule="evenodd" fill-rule="evenodd" d="M18,0c9.9,0,18,8.1,18,18c0,9.9-8.1,18-18,18C8.1,36,0,27.9,0,18C0,8.1,8.1,0,18,0z" />
</g>
<g xmlns="http://www.w3.org/2000/svg">
	<path fill="#FFFFFF" d="M19.3,18L15,22.6l1.4,1.4l5.7-6l-5.7-6L15,13.4L19.3,18z" />
</g>
</g>

<g transform="translate(185, 0)">
<g xmlns="http://www.w3.org/2000/svg">
	<path fill="#f1f1f1" clip-rule="evenodd" fill-rule="evenodd" d="M18,0c9.9,0,18,8.1,18,18c0,9.9-8.1,18-18,18C8.1,36,0,27.9,0,18C0,8.1,8.1,0,18,0z" />
</g>
<g xmlns="http://www.w3.org/2000/svg">
	<path fill="#bdbdbd" d="M19.3,18L15,22.6l1.4,1.4l5.7-6l-5.7-6L15,13.4L19.3,18z" />
</g>
</g>

<g transform="translate(195, 377)">
<path fill="#666" d="M1.5,2.5L0,4l6,6l6-6l-1.5-1.5L6,7L1.5,2.5z" xmlns="http://www.w3.org/2000/svg" />
</g>

<g transform="translate(256, 362)">
<path fill="#bdbdbd" d="M1.5,2.5L0,4l6,6l6-6l-1.5-1.5L6,7L1.5,2.5z" xmlns="http://www.w3.org/2000/svg" />
</g>

<g transform="translate(148, 0)">
<g xmlns="http://www.w3.org/2000/svg">
	<path fill-rule="evenodd" clip-rule="evenodd" fill="#009688" d="M0,18C0,8.1,8.1,0,18,0c9.9,0,18,8.1,18,18c0,9.9-8.1,18-18,18C8.1,36,0,27.9,0,18z" />
</g>
<g xmlns="http://www.w3.org/2000/svg">
	<path fill="#FFF" d="M13.4,15.5L12,16.8l6,5.7l6-5.7l-1.4-1.3L18,19.8L13.4,15.5z" />
</g>
</g>

<g transform="translate(222, 111)">
<g xmlns="http://www.w3.org/2000/svg">
	<path fill-rule="evenodd" clip-rule="evenodd" fill="#009284" d="M0,18C0,8.1,8.1,0,18,0c9.9,0,18,8.1,18,18c0,9.9-8.1,18-18,18C8.1,36,0,27.9,0,18z" />
</g>
<g xmlns="http://www.w3.org/2000/svg">
	<path fill="#FFFFFF" d="M13.4,15.5L12,16.8l6,5.7l6-5.7l-1.4-1.3L18,19.8L13.4,15.5z" />
</g>
</g>

<g transform="translate(259, 111)">
<g xmlns="http://www.w3.org/2000/svg">
	<path fill-rule="evenodd" clip-rule="evenodd" fill="#009284" d="M0,18C0,8.1,8.1,0,18,0c9.9,0,18,8.1,18,18c0,9.9-8.1,18-18,18C8.1,36,0,27.9,0,18z" />
</g>
<g xmlns="http://www.w3.org/2000/svg">
	<path fill="#FFFFFF" d="M13.4,15.5L12,16.8l6,5.7l6-5.7l-1.4-1.3L18,19.8L13.4,15.5z" />
</g>
</g>

<g transform="translate(0, 74)">
<g xmlns="http://www.w3.org/2000/svg">
	<path fill-rule="evenodd" clip-rule="evenodd" fill="#f1f1f1" d="M0,18C0,8.1,8.1,0,18,0c9.9,0,18,8.1,18,18c0,9.9-8.1,18-18,18C8.1,36,0,27.9,0,18z" />
</g>
<g xmlns="http://www.w3.org/2000/svg">
	<path fill="#bdbdbd" d="M13.4,15.5L12,16.8l6,5.7l6-5.7l-1.4-1.3L18,19.8L13.4,15.5z" />
</g>
</g>

<g transform="translate(63, 260)">
<g xmlns="http://www.w3.org/2000/svg">
	<path fill="#FFFFFF" fill-rule="evenodd" clip-rule="evenodd" d="M11,17V3h2v14H11z M7,3h2v14H7V3z" />
</g>
</g>

<g transform="translate(221, 235)">
<g xmlns="http://www.w3.org/2000/svg">
	<path fill="#FFFFFF" fill-rule="evenodd" clip-rule="evenodd" d="M6,3v14l9-7L6,3z" />
</g>
</g>

<g transform="translate(74, 0)">
<g xmlns="http://www.w3.org/2000/svg">
	<path fill="#009688" clip-rule="evenodd" fill-rule="evenodd" d="M18,0c9.9,0,18,8.1,18,18c0,9.9-8.1,18-18,18C8.1,36,0,27.9,0,18C0,8.1,8.1,0,18,0z" />
</g>
<g xmlns="http://www.w3.org/2000/svg">
	<path fill="#FFF" d="M21,13.4L19.7,12L14,18l5.7,6l1.4-1.4L16.7,18L21,13.4z" />
</g>
</g>

<g transform="translate(222, 0)">
<g xmlns="http://www.w3.org/2000/svg">
	<path fill="#009284" clip-rule="evenodd" fill-rule="evenodd" d="M18,0c9.9,0,18,8.1,18,18c0,9.9-8.1,18-18,18C8.1,36,0,27.9,0,18C0,8.1,8.1,0,18,0z" />
</g>
<g xmlns="http://www.w3.org/2000/svg">
	<path fill="#FFFFFF" d="M21,13.4L19.7,12L14,18l5.7,6l1.4-1.4L16.7,18L21,13.4z" />
</g>
</g>

<g transform="translate(37, 37)">
<g xmlns="http://www.w3.org/2000/svg">
	<path fill="#009284" clip-rule="evenodd" fill-rule="evenodd" d="M18,0c9.9,0,18,8.1,18,18c0,9.9-8.1,18-18,18C8.1,36,0,27.9,0,18C0,8.1,8.1,0,18,0z" />
</g>
<g xmlns="http://www.w3.org/2000/svg">
	<path fill="#FFFFFF" d="M21,13.4L19.7,12L14,18l5.7,6l1.4-1.4L16.7,18L21,13.4z" />
</g>
</g>

<g transform="translate(259, 37)">
<g xmlns="http://www.w3.org/2000/svg">
	<path fill="#f1f1f1" clip-rule="evenodd" fill-rule="evenodd" d="M18,0c9.9,0,18,8.1,18,18c0,9.9-8.1,18-18,18C8.1,36,0,27.9,0,18C0,8.1,8.1,0,18,0z" />
</g>
<g xmlns="http://www.w3.org/2000/svg">
	<path fill="#bdbdbd" d="M21,13.4L19.7,12L14,18l5.7,6l1.4-1.4L16.7,18L21,13.4z" />
</g>
</g>

<g transform="translate(259, 74)">
<g xmlns="http://www.w3.org/2000/svg">
	<path fill-rule="evenodd" clip-rule="evenodd" fill="#009688" d="M18,0c9.9,0,18,8.1,18,18c0,9.9-8.1,18-18,18C8.1,36,0,27.9,0,18C0,8.1,8.1,0,18,0z" />
</g>
<g xmlns="http://www.w3.org/2000/svg">
	<path fill="#FFF" d="M18,16.2l4.6,4.3l1.4-1.3l-6-5.7l-6,5.7l1.4,1.3L18,16.2z" />
</g>
</g>

<g transform="translate(185, 74)">
<g xmlns="http://www.w3.org/2000/svg">
	<path fill-rule="evenodd" clip-rule="evenodd" fill="#009284" d="M18,0c9.9,0,18,8.1,18,18c0,9.9-8.1,18-18,18C8.1,36,0,27.9,0,18C0,8.1,8.1,0,18,0z" />
</g>
<g xmlns="http://www.w3.org/2000/svg">
	<path fill="#FFFFFF" d="M18,16.2l4.6,4.3l1.4-1.3l-6-5.7l-6,5.7l1.4,1.3L18,16.2z" />
</g>
</g>

<g transform="translate(111, 74)">
<g xmlns="http://www.w3.org/2000/svg">
	<path fill-rule="evenodd" clip-rule="evenodd" fill="#009284" d="M18,0c9.9,0,18,8.1,18,18c0,9.9-8.1,18-18,18C8.1,36,0,27.9,0,18C0,8.1,8.1,0,18,0z" />
</g>
<g xmlns="http://www.w3.org/2000/svg">
	<path fill="#FFFFFF" d="M18,16.2l4.6,4.3l1.4-1.3l-6-5.7l-6,5.7l1.4,1.3L18,16.2z" />
</g>
</g>

<g transform="translate(185, 148)">
<g xmlns="http://www.w3.org/2000/svg">
	<path fill-rule="evenodd" clip-rule="evenodd" fill="#f1f1f1" d="M18,0c9.9,0,18,8.1,18,18c0,9.9-8.1,18-18,18C8.1,36,0,27.9,0,18C0,8.1,8.1,0,18,0z" />
</g>
<g xmlns="http://www.w3.org/2000/svg">
	<path fill="#bdbdbd" d="M18,16.2l4.6,4.3l1.4-1.3l-6-5.7l-6,5.7l1.4,1.3L18,16.2z" />
</g>
</g>

<g transform="translate(221, 377)">
<path fill="#666" d="M7.5,1.5L6,0L0,6l6,6l1.5-1.5L3,6L7.5,1.5z" xmlns="http://www.w3.org/2000/svg" />
</g>

<g transform="translate(243, 362)">
<path fill="#bdbdbd" d="M7.5,1.5L6,0L0,6l6,6l1.5-1.5L3,6L7.5,1.5z" xmlns="http://www.w3.org/2000/svg" />
</g>

<g transform="translate(111, 111)">
<g xmlns="http://www.w3.org/2000/svg">
	<path fill="#009688" clip-rule="evenodd" fill-rule="evenodd" d="M18,0c9.9,0,18,8.1,18,18c0,9.9-8.1,18-18,18C8.1,36,0,27.9,0,18C0,8.1,8.1,0,18,0z" />
</g>
<g xmlns="http://www.w3.org/2000/svg">
	<path fill="#FFF" d="M21,13.4L19.7,12L14,18l5.7,6l1.4-1.4L16.7,18L21,13.4z" />
</g>
</g>

<g transform="translate(74, 37)">
<g xmlns="http://www.w3.org/2000/svg">
	<path fill="#009284" clip-rule="evenodd" fill-rule="evenodd" d="M18,0c9.9,0,18,8.1,18,18c0,9.9-8.1,18-18,18C8.1,36,0,27.9,0,18C0,8.1,8.1,0,18,0z" />
</g>
<g xmlns="http://www.w3.org/2000/svg">
	<path fill="#FFFFFF" d="M21,13.4L19.7,12L14,18l5.7,6l1.4-1.4L16.7,18L21,13.4z" />
</g>
</g>

<g transform="translate(259, 0)">
<g xmlns="http://www.w3.org/2000/svg">
	<path fill="#009284" clip-rule="evenodd" fill-rule="evenodd" d="M18,0c9.9,0,18,8.1,18,18c0,9.9-8.1,18-18,18C8.1,36,0,27.9,0,18C0,8.1,8.1,0,18,0z" />
</g>
<g xmlns="http://www.w3.org/2000/svg">
	<path fill="#FFFFFF" d="M21,13.4L19.7,12L14,18l5.7,6l1.4-1.4L16.7,18L21,13.4z" />
</g>
</g>

<g transform="translate(0, 0)">
<g xmlns="http://www.w3.org/2000/svg">
	<path fill="#F1F1F1" clip-rule="evenodd" fill-rule="evenodd" d="M18,0c9.9,0,18,8.1,18,18c0,9.9-8.1,18-18,18C8.1,36,0,27.9,0,18C0,8.1,8.1,0,18,0z" />
</g>
<g xmlns="http://www.w3.org/2000/svg">
	<path fill="#bdbdbd" d="M21,13.4L19.7,12L14,18l5.7,6l1.4-1.4L16.7,18L21,13.4z" />
</g>
</g>

<g transform="translate(117, 377)">
<path fill="#666" d="M6,5l4.5,4.5L12,8L6,2L0,8l1.5,1.5L6,5z" xmlns="http://www.w3.org/2000/svg" />
</g>

<g transform="translate(39, 377)">
<path fill="#bdbdbd" d="M6,5l4.5,4.5L12,8L6,2L0,8l1.5,1.5L6,5z" xmlns="http://www.w3.org/2000/svg" />
</g>

<g transform="translate(111, 37)">
<g xmlns="http://www.w3.org/2000/svg">
	<path fill-rule="evenodd" clip-rule="evenodd" fill="#009688" d="M18,0c9.9,0,18,8.1,18,18c0,9.9-8.1,18-18,18C8.1,36,0,27.9,0,18C0,8.1,8.1,0,18,0z" />
</g>
<g xmlns="http://www.w3.org/2000/svg">
	<path fill="#FFF" d="M18,16.2l4.6,4.3l1.4-1.3l-6-5.7l-6,5.7l1.4,1.3L18,16.2z" />
</g>
</g>

<g transform="translate(0, 148)">
<g xmlns="http://www.w3.org/2000/svg">
	<path fill-rule="evenodd" clip-rule="evenodd" fill="#009284" d="M18,0c9.9,0,18,8.1,18,18c0,9.9-8.1,18-18,18C8.1,36,0,27.9,0,18C0,8.1,8.1,0,18,0z" />
</g>
<g xmlns="http://www.w3.org/2000/svg">
	<path fill="#FFFFFF" d="M18,16.2l4.6,4.3l1.4-1.3l-6-5.7l-6,5.7l1.4,1.3L18,16.2z" />
</g>
</g>

<g transform="translate(222, 148)">
<g xmlns="http://www.w3.org/2000/svg">
	<path fill-rule="evenodd" clip-rule="evenodd" fill="#009284" d="M18,0c9.9,0,18,8.1,18,18c0,9.9-8.1,18-18,18C8.1,36,0,27.9,0,18C0,8.1,8.1,0,18,0z" />
</g>
<g xmlns="http://www.w3.org/2000/svg">
	<path fill="#FFFFFF" d="M18,16.2l4.6,4.3l1.4-1.3l-6-5.7l-6,5.7l1.4,1.3L18,16.2z" />
</g>
</g>

<g transform="translate(37, 148)">
<g xmlns="http://www.w3.org/2000/svg">
	<path fill-rule="evenodd" clip-rule="evenodd" fill="#F1F1F1" d="M18,0c9.9,0,18,8.1,18,18c0,9.9-8.1,18-18,18C8.1,36,0,27.9,0,18C0,8.1,8.1,0,18,0z" />
</g>
<g xmlns="http://www.w3.org/2000/svg">
	<path fill="#bdbdbd" d="M18,16.2l4.6,4.3l1.4-1.3l-6-5.7l-6,5.7l1.4,1.3L18,16.2z" />
</g>
</g>

<g transform="translate(272, 298)">
<polygon fill="#757575" points="4,13 3,12 7,8 3,4 4,3 8,7 12,3 13,4 9,8 13,12 12,13 8,9 " xmlns="http://www.w3.org/2000/svg" />
</g>

<g transform="translate(150, 347)">
<g xmlns="http://www.w3.org/2000/svg">
	<path fill-rule="evenodd" clip-rule="evenodd" fill="#BDBDBD" d="M9.9,9.3h0.7l3.4,3.4L12.7,14l-3.4-3.4V9.9L9.1,9.7c-1,0.8-2.2,1.3-3.6,1.3C2.5,11,0,8.6,0,5.5&#xD;&#xA;		C0,2.5,2.5,0,5.5,0C8.6,0,11,2.5,11,5.5c0,1.4-0.5,2.6-1.3,3.6L9.9,9.3z M5.5,2C3.6,2,2,3.6,2,5.5C2,7.4,3.6,9,5.5,9&#xD;&#xA;		C7.4,9,9,7.4,9,5.5C9,3.6,7.4,2,5.5,2z M6,8H5V6H3V5h2V3h1v2h2v1H6V8z" />
</g>
</g>

<g transform="translate(68, 281)">
<circle fill="#009688" cx="2" cy="8" r="2" xmlns="http://www.w3.org/2000/svg" />
<circle fill="#009688" cx="8" cy="8" r="2" xmlns="http://www.w3.org/2000/svg" />
<circle fill="#009688" cx="14" cy="8" r="2" xmlns="http://www.w3.org/2000/svg" />
</g>

<g transform="translate(34, 315)">
<path fill="#757575" d="M13,4L7.5,9L2,4v3l5.5,5L13,7V4z" xmlns="http://www.w3.org/2000/svg" />
</g>

<g transform="translate(149, 390)">
<path fill="#009688" d="M1,2L0,3l4.5,5L9,3L8,2L4.5,5.8L1,2z" xmlns="http://www.w3.org/2000/svg" />
</g>

<g transform="translate(109, 390)">
<path fill="#009688" d="M8,7l1-1L4.5,1L0,6l1,1l3.5-3.8L8,7z" xmlns="http://www.w3.org/2000/svg" />
</g>

<g transform="translate(261, 260)">
</g>

<g transform="translate(166, 260)">
<path fill="#FFFFFF" d="M6,12L1.5,8L0,9.5L6,15L18,3.5L16.5,2L6,12z" xmlns="http://www.w3.org/2000/svg" />
</g>

<g transform="translate(180, 332)">
<path fill="#757575" d="M6,12l5-5.5L6,1H3l5,5.5L3,12H6z" xmlns="http://www.w3.org/2000/svg" />
</g>

<g transform="translate(297, 133)">
<path fill="#757575" d="M11,12L6,6.5L11,1H8L3,6.5L8,12H11z" xmlns="http://www.w3.org/2000/svg" />
</g>

<g transform="translate(91, 377)">
<path fill="#757575" d="M1.5,2.5L0,4l6,6l6-6l-1.5-1.5L6,7L1.5,2.5z" xmlns="http://www.w3.org/2000/svg" />
</g>

<g transform="translate(130, 377)">
<path fill="#757575" d="M0,10.5L1.5,12l6-6l-6-6L0,1.4L4.5,6L0,10.5z" xmlns="http://www.w3.org/2000/svg" />
</g>

<g transform="translate(76, 390)">
<g xmlns="http://www.w3.org/2000/svg">
	<g>
		<path fill="#757575" fill-rule="evenodd" clip-rule="evenodd" d="M0,4h4V0H0V4z M6,0v4h4V0H6z M6,10h4V6H6V10z M0,10h4V6H0V10z" />
	</g>
</g>
</g>

<g transform="translate(300, 347)">
<g xmlns="http://www.w3.org/2000/svg">
	<g>
		<path fill="#bdbdbd" fill-rule="evenodd" clip-rule="evenodd" d="M0,4h4V0H0V4z M6,0v4h4V0H6z M6,10h4V6H6V10z M0,10h4V6H0V10z" />
	</g>
</g>
</g>

<g transform="translate(153, 281)">
<polygon fill="#666666" points="14.5,3.8 12.2,1.5 8,5.7 3.8,1.5 1.5,3.8 5.7,8 1.5,12.2 3.8,14.5 8,10.3 12.2,14.5 14.5,12.2 &#xD;&#xA;	10.3,8 " xmlns="http://www.w3.org/2000/svg" />
</g>

<g transform="translate(289, 298)">
<g xmlns="http://www.w3.org/2000/svg">
	<path fill-rule="evenodd" clip-rule="evenodd" fill="#666666" d="M13,9L7.5,4L2,9v3l5.5-5l5.5,5V9z" />
</g>
</g>

<g transform="translate(238, 281)">
<g xmlns="http://www.w3.org/2000/svg">
	<path fill-rule="evenodd" clip-rule="evenodd" fill="#666666" d="M13,9L7.5,4L2,9v3l5.5-5l5.5,5V9z" />
</g>
</g>

<g transform="translate(0, 315)">
<g xmlns="http://www.w3.org/2000/svg">
	<path fill-rule="evenodd" clip-rule="evenodd" fill="#666666" d="M1,15V2h15v13H1z M11,3h-1v1h1V3z M13,3h-1v1h1V3z M15,3h-1v1h1V3&#xD;&#xA;		z M15,5H2v9h13V5z" />
</g>
</g>

<g transform="translate(296, 74)">
<path fill-rule="evenodd" clip-rule="evenodd" fill="#666" d="M12,8H9l-1.5,6H8H7.5L6,8H3l3-4V3L4,0l0,0h7l0,0L9,3v1L12,8z" xmlns="http://www.w3.org/2000/svg" />
</g>

<g transform="translate(0, 332)">
<g xmlns="http://www.w3.org/2000/svg">
	<path fill="#666" d="M12.6,2.9C11.4,1.1,9.3,0,7,0C3.8,0,1.2,2.1,0.3,5h1.9C2.9,3.1,4.8,1.8,7,1.8c1.8,0,3.4,1,4.4,2.4L9.5,6h2.6&#xD;&#xA;		h1.8H14V1.5L12.6,2.9z" />
	<path fill="#666" d="M7.2,12.3c-1.7,0-3.2-1-4.2-2.3l2-2H2.1H0.3H0v5l1.8-1.8C3.1,12.8,5,14,7.2,14c3.2,0,5.8-2.1,6.7-5H12&#xD;&#xA;		C11.3,10.9,9.4,12.3,7.2,12.3z" />
</g>
</g>

<g transform="translate(60, 347)">
<g xmlns="http://www.w3.org/2000/svg">
	<g>
		<rect fill="#CCCCCC" x="12" y="12" width="2" height="2" />
		<rect fill="#CCCCCC" x="12" y="8" width="2" height="2" />
		<rect fill="#CCCCCC" x="12" y="4" width="2" height="2" />
		<rect fill="#CCCCCC" x="12" width="2" height="2" />
		<rect fill="#CCCCCC" x="8" y="12" width="2" height="2" />
		<rect fill="#CCCCCC" x="8" y="8" width="2" height="2" />
		<rect fill="#CCCCCC" x="8" y="4" width="2" height="2" />
		<rect fill="#CCCCCC" x="4" y="12" width="2" height="2" />
		<rect fill="#CCCCCC" x="4" y="8" width="2" height="2" />
		<rect fill="#CCCCCC" y="12" width="2" height="2" />
	</g>
</g>
</g>

<g transform="translate(15, 362)">
<g xmlns="http://www.w3.org/2000/svg">
	<g>
		<rect x="0" y="12" fill="#CCCCCC" width="2" height="2" />
		<rect x="0" y="8" fill="#CCCCCC" width="2" height="2" />
		<rect x="0" y="4" fill="#CCCCCC" width="2" height="2" />
		<rect x="0" y="0" fill="#CCCCCC" width="2" height="2" />
		<rect x="4" y="12" fill="#CCCCCC" width="2" height="2" />
		<rect x="4" y="8" fill="#CCCCCC" width="2" height="2" />
		<rect x="4" y="4" fill="#CCCCCC" width="2" height="2" />
		<rect x="8" y="12" fill="#CCCCCC" width="2" height="2" />
		<rect x="8" y="8" fill="#CCCCCC" width="2" height="2" />
		<rect x="12" y="12" fill="#CCCCCC" width="2" height="2" />
	</g>
</g>
</g>

<g transform="translate(240, 347)">
<g xmlns="http://www.w3.org/2000/svg">
	<path fill="#666666" d="M8,12L3,6.5L8,1H5L0,6.5L5,12H8z" />
	<path fill="#666666" d="M13,12L8,6.5L13,1h-3L5,6.5l5,5.5H13z" />
</g>
</g>

<g transform="translate(30, 362)">
<g opacity="0.5" xmlns="http://www.w3.org/2000/svg">
	<path fill="#666666" d="M8,12L3,6.5L8,1H5L0,6.5L5,12H8z" />
	<path fill="#666666" d="M13,12L8,6.5L13,1h-3L5,6.5l5,5.5H13z" />
</g>
</g>

<g transform="translate(120, 332)">
<g xmlns="http://www.w3.org/2000/svg">
	<path fill="#666666" d="M9,12l5-5.5L9,1H6l5,5.5L6,12H9z" />
	<path fill="#666666" d="M4,12l5-5.5L4,1H1l5,5.5L1,12H4z" />
</g>
</g>

<g transform="translate(255, 347)">
<g opacity="0.5" xmlns="http://www.w3.org/2000/svg">
	<path fill="#666666" d="M9,12l5-5.5L9,1H6l5,5.5L6,12H9z" />
	<path fill="#666666" d="M4,12l5-5.5L4,1H1l5,5.5L1,12H4z" />
</g>
</g>

<g transform="translate(75, 347)">
<g xmlns="http://www.w3.org/2000/svg">
	<path fill="#666666" d="M6,12l5-5.5L6,1H3l5,5.5L3,12H6z" />
</g>
</g>

<g transform="translate(75, 332)">
<g opacity="0.5" xmlns="http://www.w3.org/2000/svg">
	<path fill="#666666" d="M6,12l5-5.5L6,1H3l5,5.5L3,12H6z" />
</g>
</g>

<g transform="translate(147, 260)">
<g xmlns="http://www.w3.org/2000/svg">
	<path fill="#757576" d="M0,15h18v-2H0V15z M0,10h18V8H0V10z M0,3v2h18V3H0z" />
</g>
</g>

<g transform="translate(85, 281)">
<g xmlns="http://www.w3.org/2000/svg">
	<path fill="#757575" d="M7,0v12.2L1.4,6.6L0,8l8,8l8-8l-1.4-1.4L9,12.2V0L7,0z" />
</g>
</g>

<g transform="translate(170, 281)">
<g xmlns="http://www.w3.org/2000/svg">
	<path fill="#757575" d="M16,7H3.8l5.6-5.6L8,0L0,8l8,8l1.4-1.4L3.8,9H16V7z" />
</g>
</g>

<g transform="translate(51, 298)">
<g xmlns="http://www.w3.org/2000/svg">
	<path fill="#757575" d="M0,9h12.2l-5.6,5.6L8,16l8-8L8,0L6.6,1.4L12.2,7H0L0,9z" />
</g>
</g>

<g transform="translate(187, 315)">
<g xmlns="http://www.w3.org/2000/svg">
	<path fill="#757575" d="M9,16V3.8l5.6,5.6L16,8L8,0L0,8l1.4,1.4L7,3.8V16H9z" />
</g>
</g>

<g transform="translate(301, 224)">
<polygon fill="#666666" points="10,3 5,8 0,3 " xmlns="http://www.w3.org/2000/svg" />
</g>

<g transform="translate(65, 390)">
<polygon fill="#f1f1f1" points="10,3 5,8 0,3 " xmlns="http://www.w3.org/2000/svg" />
</g>

<g transform="translate(240, 332)">
<g xmlns="http://www.w3.org/2000/svg">
	<path fill="#666666" d="M11,12L6,6.5L11,1H8L3,6.5L8,12H11z" />
</g>
</g>

<g transform="translate(120, 347)">
<g opacity="0.5" xmlns="http://www.w3.org/2000/svg">
	<path fill="#666666" d="M11,12L6,6.5L11,1H8L3,6.5L8,12H11z" />
</g>
</g>

<g transform="translate(296, 89)">
<polyline fill="#757576" points="6,0 0,6 6,6 6,0 " xmlns="http://www.w3.org/2000/svg" />
</g>

<g transform="translate(303, 126)">
<polyline fill="#bdbdbd" points="6,0 0,6 6,6 6,0 " xmlns="http://www.w3.org/2000/svg" />
</g>

<g transform="translate(296, 126)">
<polyline fill="#009688" points="6,0 0,6 6,6 6,0 " xmlns="http://www.w3.org/2000/svg" />
</g>

<g transform="translate(303, 89)">
<polyline fill="#009688" points="6,0 0,6 6,6 6,0 " xmlns="http://www.w3.org/2000/svg" />
</g>

<g transform="translate(296, 398)">
<polygon fill="#009688" points="7,0 0,0 3.5,4 " xmlns="http://www.w3.org/2000/svg" />
</g>

<g transform="translate(269, 390)">
<polygon fill="#666" opacity="0.5" points="7,0 0,0 3.5,4 " xmlns="http://www.w3.org/2000/svg" />
</g>

<g transform="translate(296, 165)">
<polygon fill="#FFFFFF" points="7,0 0,0 3.5,4 " xmlns="http://www.w3.org/2000/svg" />
</g>

<g transform="translate(229, 390)">
<polygon fill="#009688" points="7,3 0,3 3.5,7 " xmlns="http://www.w3.org/2000/svg" />
<rect fill="#009688" x="0" y="1" width="7" height="1" xmlns="http://www.w3.org/2000/svg" />
</g>

<g transform="translate(245, 390)">
<polygon fill="#bdbdbd" points="7,3 0,3 3.5,7 " xmlns="http://www.w3.org/2000/svg" />
<rect fill="#bdbdbd" x="0" y="1" width="7" height="1" xmlns="http://www.w3.org/2000/svg" />
</g>

<g transform="translate(304, 273)">
<polygon fill="#FFFFFF" points="7,3 0,3 3.5,7 " xmlns="http://www.w3.org/2000/svg" />
<rect fill="#FFFFFF" x="0" y="1" width="7" height="1" xmlns="http://www.w3.org/2000/svg" />
</g>

<g transform="translate(261, 390)">
<polygon fill="#009688" points="7,4 0,4 3.5,0 " xmlns="http://www.w3.org/2000/svg" />
</g>

<g transform="translate(304, 165)">
<polygon fill="#bdbdbd" points="7,4 0,4 3.5,0 " xmlns="http://www.w3.org/2000/svg" />
</g>

<g transform="translate(293, 390)">
<polygon fill="#FFFFFF" points="7,4 0,4 3.5,0 " xmlns="http://www.w3.org/2000/svg" />
</g>

<g transform="translate(156, 377)">
<path fill="#009688" d="M6,5l4.5,4.5L12,8L6,2L0,8l1.5,1.5L6,5z" xmlns="http://www.w3.org/2000/svg" />
</g>

<g transform="translate(169, 377)">
<path fill="#FFFFFF" d="M6,5l4.5,4.5L12,8L6,2L0,8l1.5,1.5L6,5z" xmlns="http://www.w3.org/2000/svg" />
</g>

<g transform="translate(182, 377)">
<path fill="#FFFFFF" d="M6,5l4.5,4.5L12,8L6,2L0,8l1.5,1.5L6,5z" xmlns="http://www.w3.org/2000/svg" />
</g>

<g transform="translate(286, 377)">
<path fill="#009688" d="M1.5,2.5L0,4l6,6l6-6l-1.5-1.5L6,7L1.5,2.5z" xmlns="http://www.w3.org/2000/svg" />
</g>

<g transform="translate(13, 390)">
<path fill="#bdbdbd" d="M1.5,2.5L0,4l6,6l6-6l-1.5-1.5L6,7L1.5,2.5z" xmlns="http://www.w3.org/2000/svg" />
</g>

<g transform="translate(143, 377)">
<path fill="#FFFFFF" d="M1.5,2.5L0,4l6,6l6-6l-1.5-1.5L6,7L1.5,2.5z" xmlns="http://www.w3.org/2000/svg" />
</g>

<g transform="translate(269, 362)">
<path fill="#FFFFFF" d="M1.5,2.5L0,4l6,6l6-6l-1.5-1.5L6,7L1.5,2.5z" xmlns="http://www.w3.org/2000/svg" />
</g>

<g transform="translate(230, 362)">
<path fill="#bdbdbd" d="M6,5l4.5,4.5L12,8L6,2L0,8l1.5,1.5L6,5z" xmlns="http://www.w3.org/2000/svg" />
</g>

<g transform="translate(39, 390)">
<path fill="#666" d="M6,5l4.5,4.5L12,8L6,2L0,8l1.5,1.5L6,5z" xmlns="http://www.w3.org/2000/svg" />
</g>

<g transform="translate(45, 347)">
<path fill="#666" d="M10,5l1,0l3-2v7l-3-2l-1,0l-4,3V8L0,6.5L6,5V2.1L10,5z" xmlns="http://www.w3.org/2000/svg" />
</g>

<g transform="translate(179, 390)">
<path fill="#757575" d="M1,2L0,3l4.5,5L9,3L8,2L4.5,5.8L1,2z" xmlns="http://www.w3.org/2000/svg" />
</g>

<g transform="translate(304, 398)">
<polygon fill="#757575" points="7,4 0,4 3.5,0 " xmlns="http://www.w3.org/2000/svg" />
</g>

<g transform="translate(277, 390)">
<polygon fill="#FFFFFF" points="7,4 0,4 3.5,0 " xmlns="http://www.w3.org/2000/svg" />
</g>

<g transform="translate(301, 390)">
<polygon fill="#666" points="7,0 0,0 3.5,4 " xmlns="http://www.w3.org/2000/svg" />
</g>

<g transform="translate(288, 398)">
<polygon fill="#FFFFFF" points="7,0 0,0 3.5,4 " xmlns="http://www.w3.org/2000/svg" />
</g>

<g transform="translate(296, 17)">
<g xmlns="http://www.w3.org/2000/svg">
	<rect fill="#757575" width="1" height="4" />
	<rect x="2" fill="#757575" width="1" height="4" />
	<rect x="4" fill="#757575" width="1" height="4" />
	<rect x="6" fill="#757575" width="1" height="4" />
	<rect x="8" fill="#757575" width="1" height="4" />
	<rect x="10" fill="#757575" width="1" height="4" />
	<rect x="12" fill="#757575" width="1" height="4" />
	<rect x="14" fill="#757575" width="1" height="4" />
</g>
</g>

<g transform="translate(296, 54)">
<g xmlns="http://www.w3.org/2000/svg">
	<rect fill="#FFFFFF" width="1" height="4" />
	<rect x="2" fill="#FFFFFF" width="1" height="4" />
	<rect x="4" fill="#FFFFFF" width="1" height="4" />
	<rect x="6" fill="#FFFFFF" width="1" height="4" />
	<rect x="8" fill="#FFFFFF" width="1" height="4" />
	<rect x="10" fill="#FFFFFF" width="1" height="4" />
	<rect x="12" fill="#FFFFFF" width="1" height="4" />
	<rect x="14" fill="#FFFFFF" width="1" height="4" />
</g>
</g>

<g transform="translate(306, 0)">
<polygon fill="#757575" points="4,0 4,7 0,3.5 " xmlns="http://www.w3.org/2000/svg" />
</g>

<g transform="translate(306, 9)">
<polygon fill="#FFFFFF" points="4,0 4,7 0,3.5 " xmlns="http://www.w3.org/2000/svg" />
</g>

<g transform="translate(307, 252)">
<polygon fill="#666" points="0,0 0,7 4,3.5 " xmlns="http://www.w3.org/2000/svg" />
</g>

<g transform="translate(305, 244)">
<polygon fill="#FFFFFF" points="0,0 0,7 4,3.5 " xmlns="http://www.w3.org/2000/svg" />
</g>

<g transform="translate(296, 0)">
<g xmlns="http://www.w3.org/2000/svg">
	<rect fill="#757575" width="4" height="1" />
	<rect y="2" fill="#757575" width="4" height="1" />
	<rect y="4" fill="#757575" width="4" height="1" />
	<rect y="6" fill="#757575" width="4" height="1" />
	<rect y="8" fill="#757575" width="4" height="1" />
	<rect y="10" fill="#757575" width="4" height="1" />
	<rect y="12" fill="#757575" width="4" height="1" />
	<rect y="14" fill="#757575" width="4" height="1" />
</g>
</g>

<g transform="translate(301, 0)">
<g xmlns="http://www.w3.org/2000/svg">
	<rect fill="#FFFFFF" width="4" height="1" />
	<rect y="2" fill="#FFFFFF" width="4" height="1" />
	<rect y="4" fill="#FFFFFF" width="4" height="1" />
	<rect y="6" fill="#FFFFFF" width="4" height="1" />
	<rect y="8" fill="#FFFFFF" width="4" height="1" />
	<rect y="10" fill="#FFFFFF" width="4" height="1" />
	<rect y="12" fill="#FFFFFF" width="4" height="1" />
	<rect y="14" fill="#FFFFFF" width="4" height="1" />
</g>
</g>

<g transform="translate(234, 377)">
<path fill="#757575" d="M7.5,1.5L6,0L0,6l6,6l1.5-1.5L3,6L7.5,1.5z" xmlns="http://www.w3.org/2000/svg" />
</g>

<g transform="translate(299, 377)">
<path fill="#bdbdbd" d="M7.5,1.5L6,0L0,6l6,6l1.5-1.5L3,6L7.5,1.5z" xmlns="http://www.w3.org/2000/svg" />
</g>

<g transform="translate(104, 377)">
<path fill="#FFFFFF" d="M7.5,1.5L6,0L0,6l6,6l1.5-1.5L3,6L7.5,1.5z" xmlns="http://www.w3.org/2000/svg" />
</g>

<g transform="translate(273, 377)">
<path fill="#FFFFFF" d="M7.5,1.5L6,0L0,6l6,6l1.5-1.5L3,6L7.5,1.5z" xmlns="http://www.w3.org/2000/svg" />
</g>

<g transform="translate(260, 377)">
<path fill="#757575" d="M0,10.5L1.5,12l6-6l-6-6L0,1.4L4.5,6L0,10.5z" xmlns="http://www.w3.org/2000/svg" />
</g>

<g transform="translate(13, 377)">
<path fill="#bdbdbd" d="M0,10.5L1.5,12l6-6l-6-6L0,1.4L4.5,6L0,10.5z" xmlns="http://www.w3.org/2000/svg" />
</g>

<g transform="translate(0, 390)">
<path fill="#FFFFFF" d="M0,10.5L1.5,12l6-6l-6-6L0,1.4L4.5,6L0,10.5z" xmlns="http://www.w3.org/2000/svg" />
</g>

<g transform="translate(65, 377)">
<path fill="#FFFFFF" d="M0,10.5L1.5,12l6-6l-6-6L0,1.4L4.5,6L0,10.5z" xmlns="http://www.w3.org/2000/svg" />
</g>

<g transform="translate(301, 199)">
<polygon fill="#757575" points="10,3 5,8 0,3 " xmlns="http://www.w3.org/2000/svg" />
</g>

<g transform="translate(87, 390)">
<polygon fill="#757575" points="10,3 5,8 0,3 " xmlns="http://www.w3.org/2000/svg" />
</g>

<g transform="translate(300, 210)">
<polygon fill="#757575" points="3,0 8,5 3,10 " xmlns="http://www.w3.org/2000/svg" />
</g>

<g transform="translate(300, 332)">
<polygon fill="#757575" points="7,10 2,5 7,0 " xmlns="http://www.w3.org/2000/svg" />
</g>

<g transform="translate(200, 235)">
<path fill="#dc4c40" d="M10,0C4.5,0,0,4.5,0,10s4.5,10,10,10s10-4.5,10-10S15.5,0,10,0z M15,13.6L13.6,15L10,11.4L6.4,15L5,13.6L8.6,10L5,6.4L6.4,5&#xD;&#xA;	L10,8.6L13.6,5L15,6.4L11.4,10L15,13.6z" xmlns="http://www.w3.org/2000/svg" />
</g>

<g transform="translate(223, 260)">
<path fill="#bdbdbd" d="M9,0C4,0,0,4,0,9s4,9,9,9s9-4,9-9S14,0,9,0z M14,12l-2,2l-3-3l-3,3l-2-2l3-3L4,6l2-2l3,3l3-3l2,2l-3,3L14,12z" xmlns="http://www.w3.org/2000/svg" />
</g>

<g transform="translate(268, 315)">
<path fill="#FFFFFF" d="M0,0v14h14V0H0z M6,12L2,8l1-2l3,3l5-6l1,2L6,12z" xmlns="http://www.w3.org/2000/svg" />
</g>

<g transform="translate(297, 22)">
<g xmlns="http://www.w3.org/2000/svg">
	<path fill="#FFFFFF" d="M0,14V0h14v14H0z M13,1H1v12h12V1z" />
</g>
</g>

<g transform="translate(15, 347)">
<path fill="#FFFFFF" d="M0,0v14h14V0H0z M6,12L2,8l1-2l3,3l5-6l1,2L6,12z" xmlns="http://www.w3.org/2000/svg" />
</g>

<g transform="translate(285, 332)">
<path fill="#FFFFFF" d="M0,0v14h14V0H0z M6,12L2,8l1-2l3,3l5-6l1,2L6,12z" xmlns="http://www.w3.org/2000/svg" />
</g>

<g transform="translate(297, 96)">
<path fill="#FFFFFF" d="M0,0v14h14V0H0z M6,12L2,8l1-2l3,3l5-6l1,2L6,12z" xmlns="http://www.w3.org/2000/svg" />
</g>

<g transform="translate(195, 332)">
<path fill="#FFFFFF" d="M0,0v14h14V0H0z M6,12L2,8l1-2l3,3l5-6l1,2L6,12z" xmlns="http://www.w3.org/2000/svg" />
</g>

<g transform="translate(135, 347)">
<path fill="#FFFFFF" d="M0,0v14h14V0H0z M6,12L2,8l1-2l3,3l5-6l1,2L6,12z" xmlns="http://www.w3.org/2000/svg" />
</g>


</svg>

