<?xml version="1.0" encoding="utf-8"?>

<svg version="1.1" xmlns="http://www.w3.org/2000/svg" xmlns:xlink="http://www.w3.org/1999/xlink" width="25" height="164">
<g transform="translate(0, 150)">
<style type="text/css" xmlns="http://www.w3.org/2000/svg">
	.st0{fill:#757575;}
</style>
<polygon class="st0" points="13,6 4.4,6 7.2,3.2 5.8,1.8 0.6,7 0.6,7 0.6,7 5.8,12.2 7.2,10.8 4.4,8 13,8 " xmlns="http://www.w3.org/2000/svg" />
</g>

<g transform="translate(0, 0)">
<style type="text/css" xmlns="http://www.w3.org/2000/svg">
	.st0{fill-rule:evenodd;clip-rule:evenodd;fill:#2A2A2A;}
</style>
<g xmlns="http://www.w3.org/2000/svg">
	<rect fill="#D1D1D1" width="24" height="24" />
</g>
<g xmlns="http://www.w3.org/2000/svg">
	<rect fill="#F1F1F1" x="1" y="1" width="22" height="22" />
</g>
<path class="st0" d="M5,14l-2,2l6,6L21,5l-2-2L9,17.8L5,14z" xmlns="http://www.w3.org/2000/svg" />
</g>

<g transform="translate(0, 100)">
<style type="text/css" xmlns="http://www.w3.org/2000/svg">
	.st1{opacity:0.25;fill-rule:evenodd;clip-rule:evenodd;fill:#2B2B2B;}
</style>
<g xmlns="http://www.w3.org/2000/svg">
	<rect fill="#D1D1D1" width="24" height="24" />
</g>
<g xmlns="http://www.w3.org/2000/svg">
	<rect fill="#F1F1F1" x="1" y="1" width="22" height="22" />
</g>
<path class="st1" d="M5,14l-2,2l6,6L21,5l-2-2L9,17.8L5,14z" xmlns="http://www.w3.org/2000/svg" />
</g>

<g transform="translate(0, 125)">
<style type="text/css" xmlns="http://www.w3.org/2000/svg">
	.st2{fill-rule:evenodd;clip-rule:evenodd;fill:#2B2B2B;}
</style>
<g xmlns="http://www.w3.org/2000/svg">
	<rect fill="#D1D1D1" width="24" height="24" />
</g>
<g xmlns="http://www.w3.org/2000/svg">
	<rect fill="#F1F1F1" x="1" y="1" width="22" height="22" />
</g>
<path class="st2" d="M7,7h10v10H7V7z" xmlns="http://www.w3.org/2000/svg" />
</g>

<g transform="translate(0, 75)">
  <style type="text/css" xmlns="http://www.w3.org/2000/svg">
	  .st3{opacity:0.25;fill-rule:evenodd;clip-rule:evenodd;fill:#2B2B2B;}
  </style>
  <g xmlns="http://www.w3.org/2000/svg">
	  <rect fill="#D1D1D1" width="24" height="24" />
  </g>
  <g xmlns="http://www.w3.org/2000/svg">
	  <rect fill="#F1F1F1" x="1" y="1" width="22" height="22" />
  </g>
  <path class="st3" d="M7,7h10v10H7V7z" xmlns="http://www.w3.org/2000/svg" />
</g>

<g transform="translate(0, 25)">
<g xmlns="http://www.w3.org/2000/svg">
	<rect fill="#D1D1D1" width="24" height="24" />
</g>
<g xmlns="http://www.w3.org/2000/svg">
	<rect fill="#F1F1F1" x="1" y="1" width="22" height="22" />
</g>
</g>

<g transform="translate(0, 50)">
<g xmlns="http://www.w3.org/2000/svg">
	<rect fill="#D1D1D1" width="24" height="24" />
</g>
<g xmlns="http://www.w3.org/2000/svg">
	<rect fill="#F1F1F1" x="1" y="1" width="22" height="22" />
</g>
</g>


</svg>

