<?xml version="1.0" encoding="utf-8"?>

<svg version="1.1" xmlns="http://www.w3.org/2000/svg" xmlns:xlink="http://www.w3.org/1999/xlink" width="102" height="115">
<g transform="translate(17, 0)">
<path fill="#FFFFFF" d="M12,0H0v10h4h1l0,0V9l0,0V7l0,0V6l0,0V4h8V3V0H12z M1,1h3v2H1V1z M4,9H1V7h3V9z M4,6H1V4h3V6z M5,3V1h3v2H5z&#xD;&#xA;	 M9,3V1h3v2H9z" xmlns="http://www.w3.org/2000/svg" />
<g xmlns="http://www.w3.org/2000/svg">
	<path fill="#FFFFFF" d="M4,3v13h12V3H4z M15,15H5V4h10V15z" />
	<rect x="6" y="8" fill="#FFFFFF" width="8" height="1" />
	<rect x="6" y="10" fill="#FFFFFF" width="8" height="1" />
	<rect x="6" y="12" fill="#FFFFFF" width="8" height="1" />
	<rect x="6" y="6" fill="#FFFFFF" width="8" height="1" />
</g>
</g>

<g transform="translate(51, 34)">
<g xmlns="http://www.w3.org/2000/svg">
	<path fill="#FFFFFF" d="M11.5,15C9,15,7,13.4,7,11.5S9,8,11.5,8S16,9.6,16,11.5S14,15,11.5,15z M11.5,9C10.1,9,9,10.1,9,11.5&#xD;&#xA;		s1.1,2.5,2.5,2.5s2.5-1.1,2.5-2.5S12.9,9,11.5,9z M11.5,13c-0.8,0-1.5-0.7-1.5-1.5s0.7-1.5,1.5-1.5s1.5,0.7,1.5,1.5&#xD;&#xA;		S12.3,13,11.5,13z M6,12l-2,2V7L0,4V2h10v2L6,7V12z" />
</g>
</g>

<g transform="translate(89, 102)">
<polygon fill="#666" points="0,0 0,7 4,3.5 " xmlns="http://www.w3.org/2000/svg" />
</g>

<g transform="translate(84, 102)">
<polygon points="4,0 4,7 0,3.5 " xmlns="http://www.w3.org/2000/svg" />
</g>

<g transform="translate(68, 0)">
	<g xmlns="http://www.w3.org/2000/svg">
		<polygon fill="#666" points="16,15 15,16 12.5,13.5 10,16 9,15 11.5,12.5 9,10 10,9 12.5,11.5 15,9 16,10 13.5,12.5 " />
		<polygon fill="#666" points="7,14 5,14 5,8 0,3 0,2 12,2 12,3 7,8 " />
	</g>
</g>

<g transform="translate(85, 17)">
	<g opacity="0.5" xmlns="http://www.w3.org/2000/svg">
		<polygon fill="#666" points="16,15 15,16 12.5,13.5 10,16 9,15 11.5,12.5 9,10 10,9 12.5,11.5 15,9 16,10 13.5,12.5 " />
		<polygon fill="#666" points="7,14 5,14 5,8 0,3 0,2 12,2 12,3 7,8 " />
	</g>
</g>

<g transform="translate(85, 51)">
<path fill="#757575" d="M1,1v14h14V1H1z M12,9H4V7h8V9z" xmlns="http://www.w3.org/2000/svg" />
</g>

<g transform="translate(34, 51)">
<path fill="#BDBDBD" d="M1,1v14h14V1H1z M12,9H4V7h8V9z" xmlns="http://www.w3.org/2000/svg" />
</g>

<g transform="translate(0, 51)">
<polygon fill="#DC4C40" points="14,4 12,2 8,6 4,2 2,4 6,8 2,12 4,14 8,10 12,14 14,12 10,8 " xmlns="http://www.w3.org/2000/svg" />
</g>

<g transform="translate(68, 85)">
<polygon fill="#BDBDBD" points="14,4 12,2 8,6 4,2 2,4 6,8 2,12 4,14 8,10 12,14 14,12 10,8 " xmlns="http://www.w3.org/2000/svg" />
</g>

<g transform="translate(34, 34)">
<g xmlns="http://www.w3.org/2000/svg">
	<path fill="#757575" d="M10,2l-8,8v4h3.9L14,6L10,2z M5,13l-2-2l6-6l2,2L5,13z" />
	<rect x="9" y="13" fill="#757575" width="5" height="1" />
</g>
</g>

<g transform="translate(34, 85)">
<g xmlns="http://www.w3.org/2000/svg">
	<path fill="#BDBDBD" d="M10,2l-8,8v4h3.9L14,6L10,2z M5,13l-2-2l6-6l2,2L5,13z" />
	<rect x="9" y="13" fill="#BDBDBD" width="5" height="1" />
</g>
</g>

<g transform="translate(51, 17)">
<path fill="#757575" d="M1,1v14h14V1H1z M12,9H9v3H7V9H4V7h3V4h2v3h3V9z" xmlns="http://www.w3.org/2000/svg" />
</g>

<g transform="translate(51, 0)">
<path fill="#BDBDBD" d="M1,1v14h14V1H1z M12,9H9v3H7V9H4V7h3V4h2v3h3V9z" xmlns="http://www.w3.org/2000/svg" />
</g>

<g transform="translate(0, 34)">
<style type="text/css" xmlns="http://www.w3.org/2000/svg">
	.stexp0{fill-rule:evenodd;clip-rule:evenodd;fill:#757575;}
</style>
<g xmlns="http://www.w3.org/2000/svg">
	<rect x="6" y="8" class="stexp0" width="1" height="3" />
	<rect x="2" y="8" class="stexp0" width="1" height="1" />
</g>
<g xmlns="http://www.w3.org/2000/svg">
	<rect x="6" y="8" class="stexp0" width="1" height="3" />
	<rect x="2" y="8" class="stexp0" width="1" height="3" />
	<path class="stexp0" d="M13,0H4c0,0,0,0,0,0.1C4,1,4,6,4,6H0v7h4v3h12V3L13,0z M4,11l-1,1H1V7h2l1,1V11z M6,2h5v3h3v1H6V2z M11,11v1&#xD;&#xA;		h-1l-1-1V8l1-1h1v1h-1v3H11z M5,8l1-1h1l1,1v3l-1,1H6l-1-1V8z M14,14H6v-1h6h2V14z M15,8l-1,1v1l1,1v1h-1l-0.5-1L13,12h-1v-1l1-1V9&#xD;&#xA;		l-1-1V7h1l0.5,1L14,7h1V8z" />
</g>
</g>

<g transform="translate(34, 17)">
<style type="text/css" xmlns="http://www.w3.org/2000/svg">
	.stexpdis1{fill-rule:evenodd;clip-rule:evenodd;fill:#BDBDBD;}
</style>
<g xmlns="http://www.w3.org/2000/svg">
	<rect x="6" y="8" class="stexpdis1" width="1" height="3" />
	<rect x="2" y="8" class="stexpdis1" width="1" height="1" />
</g>
<g xmlns="http://www.w3.org/2000/svg">
	<rect x="6" y="8" class="stexpdis1" width="1" height="3" />
	<rect x="2" y="8" class="stexpdis1" width="1" height="3" />
	<path class="stexpdis1" d="M13,0H4c0,0,0,0,0,0.1C4,1,4,6,4,6H0v7h4v3h12V3L13,0z M4,11l-1,1H1V7h2l1,1V11z M6,2h5v3h3v1H6V2z M11,11v1&#xD;&#xA;		h-1l-1-1V8l1-1h1v1h-1v3H11z M5,8l1-1h1l1,1v3l-1,1H6l-1-1V8z M14,14H6v-1h6h2V14z M15,8l-1,1v1l1,1v1h-1l-0.5-1L13,12h-1v-1l1-1V9&#xD;&#xA;		l-1-1V7h1l0.5,1L14,7h1V8z" />
</g>
</g>

<g transform="translate(17, 51)">
<style type="text/css" xmlns="http://www.w3.org/2000/svg">
	.stexp0{fill-rule:evenodd;clip-rule:evenodd;fill:#757575;}
</style>
<g xmlns="http://www.w3.org/2000/svg">
	<rect x="6" y="8" class="stexp0" width="1" height="3" />
	<rect x="2" y="8" class="stexp0" width="1" height="1" />
	<path class="stexp0" d="M13,0H4c0,0,0,0,0,0.1C4,1,4,6,4,6H0v7h4v3h12V3L13,0z M4,9l-1,1H2v2H1V7h2l1,1V9z M5,7h2l1,1v3l-1,1H5V7z&#xD;&#xA;		 M14,14H6v-1h6h1V7V6H6V2h5v3h3V14z M11,9v1h-1v2H9V7h3v1h-2v1H11z" />
</g>
</g>

<g transform="translate(0, 17)">
<style type="text/css" xmlns="http://www.w3.org/2000/svg">
	.stexpdis1{fill-rule:evenodd;clip-rule:evenodd;fill:#BDBDBD;}
</style>
<g xmlns="http://www.w3.org/2000/svg">
	<rect x="6" y="8" class="stexpdis1" width="1" height="3" />
	<rect x="2" y="8" class="stexpdis1" width="1" height="1" />
	<path class="stexpdis1" d="M13,0H4c0,0,0,0,0,0.1C4,1,4,6,4,6H0v7h4v3h12V3L13,0z M4,9l-1,1H2v2H1V7h2l1,1V9z M5,7h2l1,1v3l-1,1H5V7z&#xD;&#xA;		 M14,14H6v-1h6h1V7V6H6V2h5v3h3V14z M11,9v1h-1v2H9V7h3v1h-2v1H11z" />
</g>
</g>

<g transform="translate(17, 68)">
<style type="text/css" xmlns="http://www.w3.org/2000/svg">
	.stexp0{fill:#757575;}
</style>
<g xmlns="http://www.w3.org/2000/svg">
	<rect x="2" y="8" class="stexp0" width="1" height="1" />
	<path class="stexp0" d="M13,0H4c0,0,0,0,0,0.1C4,1,4,6,4,6H0v7h4v3h12V3L13,0z M4,9H3l1,1v2H3v-2H2v2H1V7h2l1,1V9z M5,7h3v1H7v4H6V8H5&#xD;&#xA;		V7z M14,14H6v-1h6h1V7V6H6V2h5v3h3V14z M11,9v1h-1v2H9V7h3v1h-2v1H11z" />
</g>
</g>

<g transform="translate(0, 0)">
<style type="text/css" xmlns="http://www.w3.org/2000/svg">
	.stexpdis1{fill:#BDBDBD;}
</style>
<g xmlns="http://www.w3.org/2000/svg">
	<rect x="2" y="8" class="stexpdis1" width="1" height="1" />
	<path class="stexpdis1" d="M13,0H4c0,0,0,0,0,0.1C4,1,4,6,4,6H0v7h4v3h12V3L13,0z M4,9H3l1,1v2H3v-2H2v2H1V7h2l1,1V9z M5,7h3v1H7v4H6V8H5&#xD;&#xA;		V7z M14,14H6v-1h6h1V7V6H6V2h5v3h3V14z M11,9v1h-1v2H9V7h3v1h-2v1H11z" />
</g>
</g>

<g transform="translate(68, 51)">
<style type="text/css" xmlns="http://www.w3.org/2000/svg">
	.stexp0{fill-rule:evenodd;clip-rule:evenodd;fill:#757575;}
</style>
<path class="stexp0" d="M13,0H4c0,0,0,0,0,0.1C4,1,4,6,4,6H0v7h4v3h12V3L13,0z M4,8L3,9v1l1,1v1H3l-0.5-1L2,12H1v-1l1-1V9L1,8V7h1&#xD;&#xA;	l0.5,1L3,7h1V8z M5,7h1v4h1v1H5V7z M14,14H6v-1h6h1V7V6H6V2h5v3h3V14z M9,10L8,9V8l1-1h2v1H9v1h1l1,1v1l-1,1H8v-1h2v-1H9z" xmlns="http://www.w3.org/2000/svg" />
</g>

<g transform="translate(51, 51)">
<style type="text/css" xmlns="http://www.w3.org/2000/svg">
	.stexpdis1{fill-rule:evenodd;clip-rule:evenodd;fill:#BDBDBD;}
</style>
<path class="stexpdis1" d="M13,0H4c0,0,0,0,0,0.1C4,1,4,6,4,6H0v7h4v3h12V3L13,0z M4,8L3,9v1l1,1v1H3l-0.5-1L2,12H1v-1l1-1V9L1,8V7h1&#xD;&#xA;	l0.5,1L3,7h1V8z M5,7h1v4h1v1H5V7z M14,14H6v-1h6h1V7V6H6V2h5v3h3V14z M9,10L8,9V8l1-1h2v1H9v1h1l1,1v1l-1,1H8v-1h2v-1H9z" xmlns="http://www.w3.org/2000/svg" />
</g>

<g transform="translate(0, 85)">
<style type="text/css" xmlns="http://www.w3.org/2000/svg">
	.stexp0{fill-rule:evenodd;clip-rule:evenodd;fill:#757575;}
</style>
<path class="stexp0" d="M13,0H4c0,0,0,0,0,0.1C4,1,4,6,4,6H0v7h4v3h12V3L13,0z M4,8L3,9v1l1,1v1H3l-0.5-1L2,12H1v-1l1-1V9L1,8V7h1&#xD;&#xA;	l0.5,1L3,7h1V8z M6,2h5v3h3v1H6V2z M10,9l1,1v1l-1,1H8v-1h2v-1H9L8,9V8l1-1h2v1H9v1H10z M5,7h1v4h1v1H5V7z M14,14H6v-1h6h2V14z&#xD;&#xA;	 M15,8l-1,1v1l1,1v1h-1l-0.5-1L13,12h-1v-1l1-1V9l-1-1V7h1l0.5,1L14,7h1V8z" xmlns="http://www.w3.org/2000/svg" />
</g>

<g transform="translate(17, 85)">
<style type="text/css" xmlns="http://www.w3.org/2000/svg">
	.stexpdis1{fill-rule:evenodd;clip-rule:evenodd;fill:#BDBDBD;}
</style>
<path class="stexpdis1" d="M13,0H4c0,0,0,0,0,0.1C4,1,4,6,4,6H0v7h4v3h12V3L13,0z M4,8L3,9v1l1,1v1H3l-0.5-1L2,12H1v-1l1-1V9L1,8V7h1&#xD;&#xA;	l0.5,1L3,7h1V8z M6,2h5v3h3v1H6V2z M10,9l1,1v1l-1,1H8v-1h2v-1H9L8,9V8l1-1h2v1H9v1H10z M5,7h1v4h1v1H5V7z M14,14H6v-1h6h2V14z&#xD;&#xA;	 M15,8l-1,1v1l1,1v1h-1l-0.5-1L13,12h-1v-1l1-1V9l-1-1V7h1l0.5,1L14,7h1V8z" xmlns="http://www.w3.org/2000/svg" />
</g>

<g transform="translate(34, 68)">
<g xmlns="http://www.w3.org/2000/svg">
	<path fill="#757575" d="M7,0v9h9V0H7z M14,5H9V4h5V5z" />
	<path fill="#757575" d="M0,7v9h9V7H0z M7,12H2v-1h5V12z" />
</g>
</g>

<g transform="translate(17, 17)">
<g xmlns="http://www.w3.org/2000/svg">
	<path fill="#BDBDBD" d="M7,0v9h9V0H7z M14,5H9V4h5V5z" />
	<path fill="#BDBDBD" d="M0,7v9h9V7H0z M7,12H2v-1h5V12z" />
</g>
</g>

<g transform="translate(85, 0)">
<path fill="#757575" d="M7,0v9h9V0H7z M14,5h-2v2h-1V5H9V4h2V2h1v2h2V5z" xmlns="http://www.w3.org/2000/svg" />
<path fill="#757575" d="M0,7v9h9V7H0z M7,12H5v2H4v-2H2v-1h2V9h1v2h2V12z" xmlns="http://www.w3.org/2000/svg" />
</g>

<g transform="translate(0, 68)">
<path fill="#BDBDBD" d="M7,0v9h9V0H7z M14,5h-2v2h-1V5H9V4h2V2h1v2h2V5z" xmlns="http://www.w3.org/2000/svg" />
<path fill="#BDBDBD" d="M0,7v9h9V7H0z M7,12H5v2H4v-2H2v-1h2V9h1v2h2V12z" xmlns="http://www.w3.org/2000/svg" />
</g>

<g transform="translate(34, 0)">
<path fill="#757575" d="M8,1C4.1,1,1,4.1,1,8s3.1,7,7,7s7-3.1,7-7S11.9,1,8,1z M12,9H9v3H7V9H4V7h3V4h2v3h3V9z" xmlns="http://www.w3.org/2000/svg" />
</g>

<g transform="translate(51, 85)">
<path fill="#BDBDBD" d="M8,1C4.1,1,1,4.1,1,8s3.1,7,7,7s7-3.1,7-7S11.9,1,8,1z M12,9H9v3H7V9H4V7h3V4h2v3h3V9z" xmlns="http://www.w3.org/2000/svg" />
</g>

<g transform="translate(68, 34)">
<g xmlns="http://www.w3.org/2000/svg">
	<path fill="#757575" d="M13.6,3.9C12.4,2.1,10.3,1,8,1C4.8,1,2.2,3.1,1.3,6h1.9C3.9,4.1,5.8,2.8,8,2.8c1.8,0,3.4,1,4.4,2.4L10.5,7h2.6&#xD;&#xA;		h1.8H15V2.5L13.6,3.9z" />
	<path fill="#757575" d="M8.2,13.3c-1.7,0-3.2-1-4.2-2.3l2-2H3.1H1.3H1v5l1.8-1.8C4.1,13.8,6,15,8.2,15c3.2,0,5.8-2.1,6.7-5H13&#xD;&#xA;		C12.3,11.9,10.4,13.3,8.2,13.3z" />
</g>
</g>

<g transform="translate(85, 68)">
<g xmlns="http://www.w3.org/2000/svg">
	<path fill="#BDBDBD" d="M13.6,3.9C12.4,2.1,10.3,1,8,1C4.8,1,2.2,3.1,1.3,6h1.9C3.9,4.1,5.8,2.8,8,2.8c1.8,0,3.4,1,4.4,2.4L10.5,7h2.6&#xD;&#xA;		h1.8H15V2.5L13.6,3.9z" />
	<path fill="#BDBDBD" d="M8.2,13.3c-1.7,0-3.2-1-4.2-2.3l2-2H3.1H1.3H1v5l1.8-1.8C4.1,13.8,6,15,8.2,15c3.2,0,5.8-2.1,6.7-5H13&#xD;&#xA;		C12.3,11.9,10.4,13.3,8.2,13.3z" />
</g>
</g>

<g transform="translate(17, 34)">
<path fill="#BDBDBD" d="M12,0H0v10h4h1l0,0V9l0,0V7l0,0V6l0,0V4h8V3V0H12z M1,1h3v2H1V1z M4,9H1V7h3V9z M4,6H1V4h3V6z M5,3V1h3v2H5z&#xD;&#xA;	 M9,3V1h3v2H9z" xmlns="http://www.w3.org/2000/svg" />
<g xmlns="http://www.w3.org/2000/svg">
	<path fill="#757575" d="M4,3v13h12V3H4z M15,15H5V4h10V15z" />
	<rect x="6" y="8" fill="#757575" width="8" height="1" />
	<rect x="6" y="10" fill="#757575" width="8" height="1" />
	<rect x="6" y="12" fill="#757575" width="8" height="1" />
	<rect x="6" y="6" fill="#757575" width="8" height="1" />
</g>
</g>

<g transform="translate(68, 68)">
<path fill="#BDBDBD" d="M12,0H0v10h4h1l0,0V9l0,0V7l0,0V6l0,0V4h8V3V0H12z M1,1h3v2H1V1z M4,9H1V7h3V9z M4,6H1V4h3V6z M5,3V1h3v2H5z&#xD;&#xA;	 M9,3V1h3v2H9z" xmlns="http://www.w3.org/2000/svg" />
<g xmlns="http://www.w3.org/2000/svg">
	<path fill="#BDBDBD" d="M4,3v13h12V3H4z M15,15H5V4h10V15z" />
	<rect x="6" y="8" fill="#BDBDBD" width="8" height="1" />
	<rect x="6" y="10" fill="#BDBDBD" width="8" height="1" />
	<rect x="6" y="12" fill="#BDBDBD" width="8" height="1" />
	<rect x="6" y="6" fill="#BDBDBD" width="8" height="1" />
</g>
</g>

<g transform="translate(85, 34)">
<g xmlns="http://www.w3.org/2000/svg">
	<path fill="#757575" d="M11.5,15C9,15,7,13.4,7,11.5S9,8,11.5,8S16,9.6,16,11.5S14,15,11.5,15z M11.5,9C10.1,9,9,10.1,9,11.5&#xD;&#xA;		s1.1,2.5,2.5,2.5s2.5-1.1,2.5-2.5S12.9,9,11.5,9z M11.5,13c-0.8,0-1.5-0.7-1.5-1.5s0.7-1.5,1.5-1.5s1.5,0.7,1.5,1.5&#xD;&#xA;		S12.3,13,11.5,13z M6,12l-2,2V7L0,4V2h10v2L6,7V12z" />
</g>
<g xmlns="http://www.w3.org/2000/svg">
	<path fill="#757575" d="M15,7l1,1l-8,8l-1-1L15,7z" />
</g>
</g>

<g transform="translate(68, 17)">
<g xmlns="http://www.w3.org/2000/svg">
	<path fill="#BDBDBD" d="M11.5,15C9,15,7,13.4,7,11.5S9,8,11.5,8S16,9.6,16,11.5S14,15,11.5,15z M11.5,9C10.1,9,9,10.1,9,11.5&#xD;&#xA;		s1.1,2.5,2.5,2.5s2.5-1.1,2.5-2.5S12.9,9,11.5,9z M11.5,13c-0.8,0-1.5-0.7-1.5-1.5s0.7-1.5,1.5-1.5s1.5,0.7,1.5,1.5&#xD;&#xA;		S12.3,13,11.5,13z M6,12l-2,2V7L0,4V2h10v2L6,7V12z" />
</g>
</g>

<g transform="translate(73, 102)">
<polygon fill="#BDBDBD" points="3,0 3,4 0,4 5,9 10,4 7,4 7,0 " xmlns="http://www.w3.org/2000/svg" />
</g>

<g transform="translate(62, 102)">
<polygon fill="#BDBDBD" points="7,9 7,5 10,5 5,0 0,5 3,5 3,9 " xmlns="http://www.w3.org/2000/svg" />
</g>

<g transform="translate(51, 68)">
<path fill="#EF5551" d="M8,2C4.7,2,2,4.7,2,8s2.7,6,6,6s6-2.7,6-6S11.3,2,8,2z M11,10l-1,1L8,9l-2,2l-1-1l2-2L5,6l1-1l2,2&#xD;&#xA;	l2-2l1,1L9,8L11,10z" xmlns="http://www.w3.org/2000/svg" />
</g>

<g transform="translate(52, 102)">
<polygon fill="#BDBDBD" points="0,7 4,7 4,10 9,5 4,0 4,3 0,3 " xmlns="http://www.w3.org/2000/svg" />
</g>

<g transform="translate(94, 110)">
<polygon fill="#666" points="7,0 0,0 3.5,4 " xmlns="http://www.w3.org/2000/svg" />
</g>

<g transform="translate(94, 102)">
<polygon fill="#666" points="7,0 0,0 3.5,4 " xmlns="http://www.w3.org/2000/svg" />
</g>

<g transform="translate(39, 102)">
<g xmlns="http://www.w3.org/2000/svg">
	<path fill="#666666" d="M0,0v1l5,5v6h2V6l5-5V0H0z" />
</g>
</g>

<g transform="translate(26, 102)">
<g xmlns="http://www.w3.org/2000/svg">
	<path fill="#666666" d="M0,0v1l5,5v6h2V6l5-5V0H0z" />
</g>
</g>

<g transform="translate(13, 102)">
<g xmlns="http://www.w3.org/2000/svg">
	<path fill="#009688" d="M0,0v1l5,5v6h2V6l5-5V0H0z" />
</g>
</g>

<g transform="translate(85, 85)">
<path fill="#666666" d="M7,12l0-8h2L6,0h0L3,4h2l0,8H7z" xmlns="http://www.w3.org/2000/svg" />
</g>

<g transform="translate(0, 102)">
<path fill="#666666" d="M5,0l0,8H3l3,4h0l3-4H7l0-8H5z" xmlns="http://www.w3.org/2000/svg" />
</g>


</svg>

