<?xml version="1.0" encoding="utf-8"?>

<svg version="1.1" xmlns="http://www.w3.org/2000/svg" xmlns:xlink="http://www.w3.org/1999/xlink" width="407" height="478">
<g transform="translate(257, 394)">
<g xmlns="http://www.w3.org/2000/svg">
	<path fill="#FFF" d="M21.3,9H18V8h2.9c-1.6-3-4.7-5-8.4-5c-4,0-7.4,2.5-8.8,6H2.6C4,4.9,7.9,2,12.5,2c4.2,0,7.8,2.5,9.5,6l0,0V4&#xD;&#xA;		h1v4v1h-0.6H21.3z M3.3,15H7v1H3.7c1.4,3.5,4.8,6,8.8,6c4.4,0,8.1-3,9.2-7h1c-1.1,4.6-5.3,8-10.2,8c-4.2,0-7.8-2.5-9.5-6v3H2v-4v-1&#xD;&#xA;		h0.3H3.3z" />
</g>
</g>

<g transform="translate(332, 394)">
<g xmlns="http://www.w3.org/2000/svg">
	<path fill-rule="evenodd" clip-rule="evenodd" fill="#009688" d="M12,1c6.1,0,11,4.9,11,11s-4.9,11-11,11S1,18.1,1,12S5.9,1,12,1z" />
</g>
<g xmlns="http://www.w3.org/2000/svg">
	<path fill-rule="evenodd" clip-rule="evenodd" fill="#FFFFFF" d="M16.7,15.3l-1.4,1.4L12,13.4l-3.3,3.3l-1.4-1.4l3.3-3.3L7.3,8.7l1.4-1.4l3.3,3.3l3.3-3.3l1.4,1.4L13.4,12L16.7,15.3z" />
</g>
</g>

<g transform="translate(394, 162)">
<polygon fill="#FFFFFF" points="10,3 5,8 0,3 " xmlns="http://www.w3.org/2000/svg" />
</g>

<g transform="translate(204, 444)">
<circle fill="#FFFFFF" cx="2" cy="8" r="2" xmlns="http://www.w3.org/2000/svg" />
<circle fill="#FFFFFF" cx="8" cy="8" r="2" xmlns="http://www.w3.org/2000/svg" />
<circle fill="#FFFFFF" cx="14" cy="8" r="2" xmlns="http://www.w3.org/2000/svg" />
</g>

<g transform="translate(394, 151)">
<polygon fill="#FFFFFF" points="10,3 5,8 0,3 " xmlns="http://www.w3.org/2000/svg" />
</g>

<g transform="translate(279, 423)">
<circle fill="#FFFFFF" cx="2" cy="8" r="2" xmlns="http://www.w3.org/2000/svg" />
<circle fill="#FFFFFF" cx="8" cy="8" r="2" xmlns="http://www.w3.org/2000/svg" />
<circle fill="#FFFFFF" cx="14" cy="8" r="2" xmlns="http://www.w3.org/2000/svg" />
</g>

<g transform="translate(307, 394)">
<g xmlns="http://www.w3.org/2000/svg">
	<path fill="#666666" d="M21.3,9H18V8h2.9c-1.6-3-4.7-5-8.4-5c-4,0-7.4,2.5-8.8,6H2.6C4,4.9,7.9,2,12.5,2c4.2,0,7.8,2.5,9.5,6l0,0V4&#xD;&#xA;		h1v4v1h-0.6H21.3z M3.3,15H7v1H3.7c1.4,3.5,4.8,6,8.8,6c4.4,0,8.1-3,9.2-7h1c-1.1,4.6-5.3,8-10.2,8c-4.2,0-7.8-2.5-9.5-6v3H2v-4v-1&#xD;&#xA;		h0.3H3.3z" />
</g>
</g>

<g transform="translate(289, 444)">
<polygon fill="#FFFFFF" points="4,13 3,12 7,8 3,4 4,3 8,7 12,3 13,4 9,8 13,12 12,13 8,9 " xmlns="http://www.w3.org/2000/svg" />
</g>

<g transform="translate(21, 423)">
<g xmlns="http://www.w3.org/2000/svg">
	<path fill="#FFFFFF" fill-rule="evenodd" clip-rule="evenodd" d="M19,18H1l-1-1V2l1-1h5l1,2h12l1,1v13L19,18z M18,7H2v9h16V7z" />
</g>
</g>

<g transform="translate(137, 423)">
<style type="text/css" xmlns="http://www.w3.org/2000/svg">
	.st0{fill:#757575;}
</style>
<path fill="#757575" d="M1,9l8,8l1.4-1.4L4.8,10H17V8H4.8l5.6-5.6L9,1L1,9z" xmlns="http://www.w3.org/2000/svg" />
</g>

<g transform="translate(156, 423)">
<style type="text/css" xmlns="http://www.w3.org/2000/svg">
	.st0{fill:#757575;}
</style>
<path fill="#757575" d="M9,1L7.6,2.4L13.2,8H1v2h12.2l-5.6,5.6L9,17l8-8L9,1z" xmlns="http://www.w3.org/2000/svg" />
</g>

<g transform="translate(328, 461)">
<g xmlns="http://www.w3.org/2000/svg">
	<path fill="#666666" d="M6,12l5-5.5L6,1H3l5,5.5L3,12H6z" />
</g>
</g>

<g transform="translate(394, 184)">
<polygon fill="#009688" points="3,1 4,0 10,6 10,6 10,6 4,12 3,11 8,6 " xmlns="http://www.w3.org/2000/svg" />
</g>

<g transform="translate(313, 461)">
<g xmlns="http://www.w3.org/2000/svg">
	<path fill="#666666" d="M11,12L6,6.5L11,1H8L3,6.5L8,12H11z" />
</g>
</g>

<g transform="translate(394, 0)">
<polygon fill="#009688" points="9,1 8,0 2,6 2,6 2,6 8,12 9,11 4,6 " xmlns="http://www.w3.org/2000/svg" />
</g>

<g transform="translate(238, 461)">
<g xmlns="http://www.w3.org/2000/svg">
	<path fill="#666666" d="M6,12l5-5.5L6,1H3l5,5.5L3,12H6z" />
</g>
</g>

<g transform="translate(268, 461)">
<g opacity="0.5" xmlns="http://www.w3.org/2000/svg">
	<path fill="#666666" d="M6,12l5-5.5L6,1H3l5,5.5L3,12H6z" />
</g>
</g>

<g transform="translate(391, 444)">
<g xmlns="http://www.w3.org/2000/svg">
	<path fill="#666666" d="M9,12l5-5.5L9,1H6l5,5.5L6,12H9z" />
	<path fill="#666666" d="M4,12l5-5.5L4,1H1l5,5.5L1,12H4z" />
</g>
</g>

<g transform="translate(343, 461)">
<g opacity="0.5" xmlns="http://www.w3.org/2000/svg">
	<path fill="#666666" d="M9,12l5-5.5L9,1H6l5,5.5L6,12H9z" />
	<path fill="#666666" d="M4,12l5-5.5L4,1H1l5,5.5L1,12H4z" />
</g>
</g>

<g transform="translate(298, 461)">
<g xmlns="http://www.w3.org/2000/svg">
	<path fill="#666666" d="M11,12L6,6.5L11,1H8L3,6.5L8,12H11z" />
</g>
</g>

<g transform="translate(283, 461)">
<g opacity="0.5" xmlns="http://www.w3.org/2000/svg">
	<path fill="#666666" d="M11,12L6,6.5L11,1H8L3,6.5L8,12H11z" />
</g>
</g>

<g transform="translate(358, 461)">
<g xmlns="http://www.w3.org/2000/svg">
	<path fill="#666666" d="M8,12L3,6.5L8,1H5L0,6.5L5,12H8z" />
	<path fill="#666666" d="M13,12L8,6.5L13,1h-3L5,6.5l5,5.5H13z" />
</g>
</g>

<g transform="translate(253, 461)">
<g opacity="0.5" xmlns="http://www.w3.org/2000/svg">
	<path fill="#666666" d="M8,12L3,6.5L8,1H5L0,6.5L5,12H8z" />
	<path fill="#666666" d="M13,12L8,6.5L13,1h-3L5,6.5l5,5.5H13z" />
</g>
</g>

<g transform="translate(282, 394)">
<g xmlns="http://www.w3.org/2000/svg">
	<path fill-rule="evenodd" clip-rule="evenodd" fill="#EBEBEB" d="M12,1c6.1,0,11,4.9,11,11s-4.9,11-11,11S1,18.1,1,12S5.9,1,12,1z" />
</g>
<g xmlns="http://www.w3.org/2000/svg">
	<path fill-rule="evenodd" clip-rule="evenodd" fill="#666666" d="M16.7,15.3l-1.4,1.4L12,13.4l-3.3,3.3l-1.4-1.4l3.3-3.3L7.3,8.7l1.4-1.4l3.3,3.3l3.3-3.3l1.4,1.4L13.4,12L16.7,15.3z" />
</g>
</g>

<g transform="translate(0, 197)">
<circle fill="#F1F1F1" cx="98" cy="98" r="98" xmlns="http://www.w3.org/2000/svg" />
<g xmlns="http://www.w3.org/2000/svg">
	<path fill="#8D8D8D" d="M95.7,22h-1.4v-6.9l-2.1,0.7v-1.2l3.3-1.2h0.2V22z" />
	<path fill="#8D8D8D" d="M104.4,22h-5.7v-1l2.8-3.1c0.4-0.5,0.7-0.8,0.9-1.1s0.3-0.6,0.3-0.9c0-0.4-0.1-0.7-0.3-1s-0.5-0.4-0.9-0.4&#xD;&#xA;		c-0.5,0-0.8,0.1-1.1,0.4s-0.4,0.7-0.4,1.2h-1.4c0-0.5,0.1-1,0.4-1.4s0.6-0.7,1-1s0.9-0.3,1.5-0.3c0.8,0,1.5,0.2,2,0.6&#xD;&#xA;		s0.7,1,0.7,1.7c0,0.4-0.1,0.9-0.4,1.3s-0.6,1-1.2,1.6l-2.1,2.2h4V22z" />
</g>
<g xmlns="http://www.w3.org/2000/svg">
	<path fill="#8D8D8D" d="M99.7,173.3v1.2h-0.2c-0.8,0-1.4,0.2-1.9,0.7s-0.8,1-0.8,1.8c0.5-0.5,1-0.7,1.8-0.7c0.8,0,1.3,0.3,1.8,0.8&#xD;&#xA;		s0.7,1.2,0.7,2.1c0,0.9-0.3,1.6-0.8,2.1s-1.2,0.8-2,0.8c-0.9,0-1.5-0.3-2.1-0.9s-0.8-1.5-0.8-2.5v-0.5c0-1.5,0.4-2.7,1.1-3.5&#xD;&#xA;		s1.8-1.3,3.1-1.3H99.7z M98.2,177.4c-0.3,0-0.6,0.1-0.9,0.3s-0.5,0.4-0.6,0.7v0.4c0,0.6,0.1,1.1,0.4,1.5s0.6,0.6,1,0.6&#xD;&#xA;		s0.8-0.2,1-0.5s0.4-0.7,0.4-1.2s-0.1-0.9-0.4-1.3S98.6,177.4,98.2,177.4z" />
</g>
<g xmlns="http://www.w3.org/2000/svg">
	<path fill="#8D8D8D" d="M54.7,35h-1.4v-6.9l-2.1,0.7v-1.2l3.3-1.2h0.2V35z" />
	<path fill="#8D8D8D" d="M61.5,35h-1.4v-6.9L58,28.9v-1.2l3.3-1.2h0.2V35z" />
</g>
<g xmlns="http://www.w3.org/2000/svg">
	<path fill="#8D8D8D" d="M137.1,35h-1.4v-6.9l-2.1,0.7v-1.2l3.3-1.2h0.2V35z" />
</g>
<g xmlns="http://www.w3.org/2000/svg">
	<path fill="#8D8D8D" d="M166,63h-5.7v-1l2.8-3.1c0.4-0.5,0.7-0.8,0.9-1.1s0.3-0.6,0.3-0.9c0-0.4-0.1-0.7-0.3-1s-0.5-0.4-0.9-0.4&#xD;&#xA;		c-0.5,0-0.8,0.1-1.1,0.4s-0.4,0.7-0.4,1.2h-1.4c0-0.5,0.1-1,0.4-1.4s0.6-0.7,1-1s0.9-0.3,1.5-0.3c0.8,0,1.5,0.2,2,0.6&#xD;&#xA;		s0.7,1,0.7,1.7c0,0.4-0.1,0.9-0.4,1.3s-0.6,1-1.2,1.6l-2.1,2.2h4V63z" />
</g>
<g xmlns="http://www.w3.org/2000/svg">
	<path fill="#8D8D8D" d="M167.2,133h1.1v1.1h-1.1v1.9h-1.4v-1.9h-3.7l0-0.9l3.7-5.8h1.5V133z M163.5,133h2.2v-3.6l-0.1,0.2&#xD;&#xA;		L163.5,133z" />
</g>
<g xmlns="http://www.w3.org/2000/svg">
	<path fill="#8D8D8D" d="M177.8,97h0.9c0.4,0,0.8-0.1,1-0.3s0.4-0.5,0.4-1c0-0.4-0.1-0.7-0.3-0.9s-0.5-0.3-1-0.3&#xD;&#xA;		c-0.4,0-0.7,0.1-0.9,0.3s-0.4,0.5-0.4,0.9h-1.4c0-0.4,0.1-0.8,0.3-1.2s0.6-0.6,1-0.8s0.9-0.3,1.4-0.3c0.9,0,1.5,0.2,2,0.6&#xD;&#xA;		s0.7,1,0.7,1.8c0,0.4-0.1,0.7-0.4,1.1s-0.6,0.6-0.9,0.8c0.5,0.2,0.8,0.4,1.1,0.8s0.4,0.8,0.4,1.2c0,0.8-0.3,1.4-0.8,1.8&#xD;&#xA;		s-1.2,0.7-2.1,0.7c-0.8,0-1.5-0.2-2-0.7s-0.8-1-0.8-1.7h1.4c0,0.4,0.1,0.7,0.4,0.9s0.6,0.4,1,0.4c0.4,0,0.8-0.1,1-0.4&#xD;&#xA;		s0.4-0.6,0.4-1c0-0.4-0.1-0.8-0.4-1s-0.7-0.4-1.2-0.4h-0.8V97z" />
</g>
<g xmlns="http://www.w3.org/2000/svg">
	<path fill="#8D8D8D" d="M133.7,165.2l0.5-4.3h4.6v1.2h-3.4l-0.2,2c0.4-0.2,0.8-0.3,1.3-0.3c0.8,0,1.4,0.3,1.9,0.8s0.7,1.2,0.7,2.1&#xD;&#xA;		c0,0.9-0.3,1.6-0.8,2.1s-1.2,0.8-2.1,0.8c-0.8,0-1.4-0.2-1.9-0.7s-0.8-1-0.8-1.8h1.4c0.1,0.4,0.2,0.7,0.4,1s0.6,0.3,0.9,0.3&#xD;&#xA;		c0.4,0,0.8-0.2,1-0.5s0.4-0.7,0.4-1.3c0-0.5-0.1-0.9-0.4-1.2s-0.6-0.5-1.1-0.5c-0.3,0-0.5,0-0.7,0.1s-0.4,0.2-0.6,0.4L133.7,165.2z&#xD;&#xA;		" />
</g>
<g xmlns="http://www.w3.org/2000/svg">
	<path fill="#8D8D8D" d="M59.9,161.8l-3.4,7.7H55l3.4-7.4H54V161h5.9V161.8z" />
</g>
<g xmlns="http://www.w3.org/2000/svg">
	<path fill="#8D8D8D" d="M28.5,63.1h-1.4v-6.9L25,56.9v-1.2l3.3-1.2h0.2V63.1z" />
	<path fill="#8D8D8D" d="M37.3,59.3c0,1.2-0.2,2.2-0.7,2.8S35.4,63,34.5,63c-0.9,0-1.6-0.3-2.1-0.9s-0.7-1.5-0.7-2.7v-1.5&#xD;&#xA;		c0-1.2,0.2-2.1,0.7-2.8s1.2-0.9,2.1-0.9c0.9,0,1.6,0.3,2.1,0.9s0.7,1.5,0.7,2.7V59.3z M35.8,57.7c0-0.8-0.1-1.4-0.3-1.8&#xD;&#xA;		s-0.6-0.6-1-0.6c-0.5,0-0.8,0.2-1,0.5s-0.3,0.9-0.3,1.7v1.9c0,0.8,0.1,1.4,0.3,1.8s0.6,0.6,1,0.6c0.5,0,0.8-0.2,1-0.5&#xD;&#xA;		s0.3-0.9,0.3-1.7V57.7z" />
</g>
<g xmlns="http://www.w3.org/2000/svg">
	<path fill="#8D8D8D" d="M33.6,129.6c0,0.4-0.1,0.8-0.3,1.1s-0.5,0.6-0.9,0.8c0.4,0.2,0.8,0.5,1,0.8s0.4,0.8,0.4,1.2&#xD;&#xA;		c0,0.8-0.3,1.3-0.8,1.8s-1.2,0.7-2,0.7c-0.8,0-1.5-0.2-2-0.7s-0.8-1-0.8-1.8c0-0.5,0.1-0.9,0.4-1.2s0.6-0.6,1-0.8&#xD;&#xA;		c-0.4-0.2-0.7-0.4-0.9-0.8s-0.3-0.7-0.3-1.1c0-0.7,0.2-1.3,0.7-1.7s1.1-0.6,1.9-0.6c0.8,0,1.4,0.2,1.9,0.6S33.6,128.9,33.6,129.6z&#xD;&#xA;		 M32.3,133.5c0-0.4-0.1-0.8-0.4-1s-0.6-0.4-1-0.4s-0.7,0.1-1,0.4s-0.4,0.6-0.4,1c0,0.4,0.1,0.8,0.4,1s0.6,0.4,1,0.4s0.8-0.1,1-0.4&#xD;&#xA;		S32.3,133.9,32.3,133.5z M32.1,129.7c0-0.4-0.1-0.7-0.3-0.9s-0.5-0.4-0.9-0.4s-0.7,0.1-0.9,0.3s-0.3,0.5-0.3,0.9&#xD;&#xA;		c0,0.4,0.1,0.7,0.3,0.9s0.5,0.3,0.9,0.3s0.7-0.1,0.9-0.3S32.1,130.1,32.1,129.7z" />
</g>
<g xmlns="http://www.w3.org/2000/svg">
	<path fill="#8D8D8D" d="M18.1,98.4c-0.5,0.5-1,0.8-1.7,0.8c-0.8,0-1.3-0.3-1.8-0.8S14,97.1,14,96.3c0-0.6,0.1-1.1,0.3-1.5&#xD;&#xA;		s0.5-0.8,1-1.1s0.9-0.4,1.5-0.4c0.9,0,1.5,0.3,2,1s0.8,1.5,0.8,2.6v0.4c0,1.5-0.3,2.7-1,3.5s-1.7,1.2-3.1,1.2h-0.2v-1.2h0.2&#xD;&#xA;		c0.8,0,1.5-0.2,1.9-0.6S18.1,99.2,18.1,98.4z M16.8,98c0.3,0,0.6-0.1,0.8-0.2s0.4-0.4,0.6-0.7v-0.6c0-0.6-0.1-1.1-0.4-1.5&#xD;&#xA;		s-0.6-0.6-1-0.6s-0.7,0.2-1,0.5s-0.4,0.8-0.4,1.3c0,0.5,0.1,1,0.4,1.3S16.3,98,16.8,98z" />
</g>
</g>

<g transform="translate(0, 0)">
<path fill="#009688" d="M100,93.4V49c0-1.1-0.9-2-2-2s-2,0.9-2,2v44.4c-1.8,0.8-3,2.5-3,4.6c0,2.8,2.2,5,5,5s5-2.2,5-5&#xD;&#xA;	C103,96,101.8,94.2,100,93.4z" xmlns="http://www.w3.org/2000/svg" />
</g>

<g transform="translate(197, 197)">
<path fill="#C2C2C1" d="M99,33c0-0.6-0.4-1-1-1s-1,0.4-1,1v65h2" xmlns="http://www.w3.org/2000/svg" />
</g>

<g transform="translate(197, 0)">
<path fill="#404040" d="M97,26v72h2V26c0-0.6-0.4-1-1-1S97,25.4,97,26z" xmlns="http://www.w3.org/2000/svg" />
</g>

<g transform="translate(394, 140)">
<polygon fill="#757575" points="10,3 5,8 0,3 " xmlns="http://www.w3.org/2000/svg" />
</g>

<g transform="translate(394, 173)">
<polygon fill="#bbbbbb" points="10,3 5,8 0,3 " xmlns="http://www.w3.org/2000/svg" />
</g>

<g transform="translate(119, 444)">
<circle fill="#757575" cx="2" cy="8" r="2" xmlns="http://www.w3.org/2000/svg" />
<circle fill="#757575" cx="8" cy="8" r="2" xmlns="http://www.w3.org/2000/svg" />
<circle fill="#757575" cx="14" cy="8" r="2" xmlns="http://www.w3.org/2000/svg" />
</g>

<g transform="translate(51, 444)">
<circle fill="#bbbbbb" cx="2" cy="8" r="2" xmlns="http://www.w3.org/2000/svg" />
<circle fill="#bbbbbb" cx="8" cy="8" r="2" xmlns="http://www.w3.org/2000/svg" />
<circle fill="#bbbbbb" cx="14" cy="8" r="2" xmlns="http://www.w3.org/2000/svg" />
</g>

<g transform="translate(228, 423)">
<path fill="#F34235" d="M0,14h15L7.5,2L0,14z M8,12H7v-1h1V12z M8,10H7V6h1V10z" xmlns="http://www.w3.org/2000/svg" />
</g>

<g transform="translate(99, 423)">
<style type="text/css" xmlns="http://www.w3.org/2000/svg">
	.st0{fill:#757575;}
</style>
<path fill="#757575" d="M12.5,11h-0.8l-0.3-0.3c1-1.1,1.6-2.6,1.6-4.2C13,2.9,10.1,0,6.5,0C2.9,0,0,2.9,0,6.5C0,10.1,2.9,13,6.5,13&#xD;&#xA;	c1.6,0,3.1-0.6,4.2-1.6l0.3,0.3v0.8l5,5l1.5-1.5L12.5,11z M6.5,11C4,11,2,9,2,6.5C2,4,4,2,6.5,2C9,2,11,4,11,6.5C11,9,9,11,6.5,11z" xmlns="http://www.w3.org/2000/svg" />
</g>

<g transform="translate(80, 423)">
<style type="text/css" xmlns="http://www.w3.org/2000/svg">
	.st0{fill:#757575;}
</style>
<path opacity="0.5" fill-rule="evenodd" clip-rule="evenodd" fill="#757575" d="M12.5,11h-0.8l-0.3-0.3c1-1.1,1.6-2.6,1.6-4.2C13,2.9,10.1,0,6.5,0C2.9,0,0,2.9,0,6.5C0,10.1,2.9,13,6.5,13&#xD;&#xA;	c1.6,0,3.1-0.6,4.2-1.6l0.3,0.3v0.8l5,5l1.5-1.5L12.5,11z M6.5,11C4,11,2,9,2,6.5C2,4,4,2,6.5,2C9,2,11,4,11,6.5C11,9,9,11,6.5,11z" xmlns="http://www.w3.org/2000/svg" />
</g>

<g transform="translate(61, 423)">
<style type="text/css" xmlns="http://www.w3.org/2000/svg">
	.st0{fill:#757575;}
</style>
<path fill="#757575" d="M1,9l8,8l1.4-1.4L4.8,10H17V8H4.8l5.6-5.6L9,1L1,9z" xmlns="http://www.w3.org/2000/svg" />
</g>

<g transform="translate(175, 423)">
<style type="text/css" xmlns="http://www.w3.org/2000/svg">
	.st0{fill:#757575;}
</style>
<path opacity="0.5" fill-rule="evenodd" clip-rule="evenodd" fill="#757575" d="M1,9l8,8l1.4-1.4L4.8,10H17V8H4.8l5.6-5.6L9,1L1,9z" xmlns="http://www.w3.org/2000/svg" />
</g>

<g transform="translate(118, 423)">
<style type="text/css" xmlns="http://www.w3.org/2000/svg">
	.st0{fill:#757575;}
</style>
<path fill="#757575" d="M9,1L7.6,2.4L13.2,8H1v2h12.2l-5.6,5.6L9,17l8-8L9,1z" xmlns="http://www.w3.org/2000/svg" />
</g>

<g transform="translate(42, 423)">
<style type="text/css" xmlns="http://www.w3.org/2000/svg">
	.st0{fill:#757575;}
</style>
<path opacity="0.5" fill-rule="evenodd" clip-rule="evenodd" fill="#757575" d="M9,1L7.6,2.4L13.2,8H1v2h12.2l-5.6,5.6L9,17l8-8L9,1z" xmlns="http://www.w3.org/2000/svg" />
</g>

<g transform="translate(34, 444)">
<path fill="#666666" d="M8,0C3.6,0,0,3.6,0,8s3.6,8,8,8s8-3.6,8-8S12.4,0,8,0z M8,15c-3.9,0-7-3.1-7-7s3.1-7,7-7s7,3.1,7,7&#xD;&#xA;	S11.9,15,8,15z" xmlns="http://www.w3.org/2000/svg" />
<circle fill="#009688" cx="8" cy="8" r="5" xmlns="http://www.w3.org/2000/svg" />
</g>

<g transform="translate(245, 423)">
<path opacity="0.5" fill="#666666" d="M8,0C3.6,0,0,3.6,0,8s3.6,8,8,8s8-3.6,8-8S12.4,0,8,0z M8,15c-3.9,0-7-3.1-7-7s3.1-7,7-7s7,3.1,7,7&#xD;&#xA;	S11.9,15,8,15z" xmlns="http://www.w3.org/2000/svg" />
<circle opacity="0.5" fill="#666666" cx="8" cy="8" r="5" xmlns="http://www.w3.org/2000/svg" />
</g>

<g transform="translate(102, 461)">
<path fill="#666666" d="M8,0C3.6,0,0,3.6,0,8s3.6,8,8,8s8-3.6,8-8S12.4,0,8,0z M8,15c-3.9,0-7-3.1-7-7s3.1-7,7-7s7,3.1,7,7&#xD;&#xA;	S11.9,15,8,15z" xmlns="http://www.w3.org/2000/svg" />
</g>

<g transform="translate(68, 444)">
<path opacity="0.5" fill="#666666" d="M8,0C3.6,0,0,3.6,0,8s3.6,8,8,8s8-3.6,8-8S12.4,0,8,0z M8,15c-3.9,0-7-3.1-7-7s3.1-7,7-7s7,3.1,7,7&#xD;&#xA;	S11.9,15,8,15z" xmlns="http://www.w3.org/2000/svg" />
</g>

<g transform="translate(394, 40)">
<g xmlns="http://www.w3.org/2000/svg">
	<path fill="#757575" d="M0,2l4.5,5L9,2H0z" />
</g>
</g>

<g transform="translate(394, 70)">
<g opacity="0.5" xmlns="http://www.w3.org/2000/svg">
	<path fill="#757575" d="M0,2l4.5,5L9,2H0z" />
</g>
</g>

<g transform="translate(394, 80)">
<g xmlns="http://www.w3.org/2000/svg">
	<path fill="#757575" d="M9,7L4.5,2L0,7H9z" />
</g>
</g>

<g transform="translate(394, 110)">
<g opacity="0.5" xmlns="http://www.w3.org/2000/svg">
	<path fill="#757575" d="M9,7L4.5,2L0,7H9z" />
</g>
</g>

<g transform="translate(394, 50)">
<g xmlns="http://www.w3.org/2000/svg">
	<path fill="#757575" d="M7,0L2,4.5L7,9V0z" />
</g>
</g>

<g transform="translate(394, 197)">
<g opacity="0.5" xmlns="http://www.w3.org/2000/svg">
	<path fill="#757575" d="M7,0L2,4.5L7,9V0z" />
</g>
</g>

<g transform="translate(394, 130)">
<g xmlns="http://www.w3.org/2000/svg">
	<path fill="#757575" d="M2,9l5-4.5L2,0V9z" />
</g>
</g>

<g transform="translate(394, 30)">
<g opacity="0.5" xmlns="http://www.w3.org/2000/svg">
	<path fill="#757575" d="M2,9l5-4.5L2,0V9z" />
</g>
</g>

<g transform="translate(29, 394)">
<circle fill="#FFFFFF" cx="14" cy="14" r="14" xmlns="http://www.w3.org/2000/svg" />
<rect x="7" y="13" fill="#BDBDBD" width="14" height="2" xmlns="http://www.w3.org/2000/svg" />
</g>

<g transform="translate(0, 394)">
<circle fill="#FFFFFF" cx="14" cy="14" r="14" xmlns="http://www.w3.org/2000/svg" />
<rect x="7" y="13" fill="#BDBDBD" width="14" height="2" xmlns="http://www.w3.org/2000/svg" />
<rect x="7" y="13" transform="matrix(4.482554e-011 -1 1 4.482554e-011 -6.293757e-010 28)" fill="#BDBDBD" width="14" height="2" xmlns="http://www.w3.org/2000/svg" />
</g>

<g transform="translate(382, 394)">
<g xmlns="http://www.w3.org/2000/svg">
	<path fill-rule="evenodd" clip-rule="evenodd" fill="#666666" d="M16.7,15.3l-1.4,1.4L12,13.4l-3.3,3.3l-1.4-1.4l3.3-3.3L7.3,8.7l1.4-1.4l3.3,3.3l3.3-3.3l1.4,1.4L13.4,12L16.7,15.3z" />
</g>
</g>

<g transform="translate(357, 394)">
<g xmlns="http://www.w3.org/2000/svg">
	<path fill="#FFF" d="M16.7,15.3l-1.4,1.4L12,13.4l-3.3,3.3l-1.4-1.4l3.3-3.3L7.3,8.7l1.4-1.4l3.3,3.3l3.3-3.3l1.4,1.4L13.4,12L16.7,15.3z" />
</g>
</g>

<g transform="translate(232, 394)">
<g opacity="0.5" xmlns="http://www.w3.org/2000/svg">
	<path fill-rule="evenodd" clip-rule="evenodd" fill="#666666" d="M16.7,15.3l-1.4,1.4L12,13.4l-3.3,3.3l-1.4-1.4l3.3-3.3L7.3,8.7l1.4-1.4l3.3,3.3l3.3-3.3l1.4,1.4L13.4,12L16.7,15.3z" />
</g>
</g>

<g transform="translate(262, 423)">
<g xmlns="http://www.w3.org/2000/svg">
	<path fill-rule="evenodd" clip-rule="evenodd" fill="#999999" d="M7.5,16C3.4,16,0,12.6,0,8.5S3.4,1,7.5,1S15,4.4,15,8.5&#xD;&#xA;		S11.6,16,7.5,16z M7.5,2C3.9,2,1,4.9,1,8.5S3.9,15,7.5,15S14,12.1,14,8.5S11.1,2,7.5,2z M8,13H7V9H3V8h4V4h1v4h4v1H8V13z" />
</g>
</g>

<g transform="translate(170, 444)">
<g xmlns="http://www.w3.org/2000/svg">
	<path fill-rule="evenodd" clip-rule="evenodd" fill="#13A10E" d="M7.5,16C3.4,16,0,12.6,0,8.5S3.4,1,7.5,1S15,4.4,15,8.5&#xD;&#xA;		S11.6,16,7.5,16z M7.5,2C3.9,2,1,4.9,1,8.5S3.9,15,7.5,15S14,12.1,14,8.5S11.1,2,7.5,2z M8,13H7V9H3V8h4V4h1v4h4v1H8V13z" />
</g>
</g>

<g transform="translate(85, 461)">
<g xmlns="http://www.w3.org/2000/svg">
	<rect x="2" y="1" style="fill:#9E9E9E;" width="5" height="2" />
</g>
<g xmlns="http://www.w3.org/2000/svg">
	<g>
		<rect x="2" y="4" style="fill:#44A147;" width="8" height="1" />
	</g>
	<g>
		<rect x="2" y="6" style="fill:#44A147;" width="8" height="1" />
	</g>
	<g>
		<rect x="2" y="8" style="fill:#44A147;" width="7" height="1" />
	</g>
	<polygon style="fill:#44A147;" points="14,10 12,10 12,8 10,8 10,10 8,10 8,12 10,12 10,14 12,14 12,12 14,12 	" />
</g>
</g>

<g transform="translate(153, 444)">
<g xmlns="http://www.w3.org/2000/svg">
	<rect x="2" y="5" style="fill:#44A147;" width="5" height="2" />
</g>
<g xmlns="http://www.w3.org/2000/svg">
	<g>
		<rect x="2" y="8" style="fill:#9E9E9E;" width="8" height="1" />
	</g>
	<g>
		<rect x="2" y="10" style="fill:#9E9E9E;" width="8" height="1" />
	</g>
	<g>
		<rect x="2" y="12" style="fill:#9E9E9E;" width="8" height="1" />
	</g>
</g>
<polygon style="fill:#44A147;" points="14,3 12,3 12,1 10,1 10,3 8,3 8,5 10,5 10,7 12,7 12,5 14,5 " xmlns="http://www.w3.org/2000/svg" />
</g>

<g transform="translate(296, 423)">
<path fill="#9E9E9E" d="M10.5,4C9.6,4,8.7,4.3,8,4.8C7.3,4.3,6.4,4,5.5,4C3,4,1,6,1,8.5S3,13,5.5,13c0.9,0,1.8-0.3,2.5-0.8&#xD;&#xA;	c0.7,0.5,1.6,0.8,2.5,0.8C13,13,15,11,15,8.5S13,4,10.5,4z M8,10.9c-0.6-0.6-1-1.5-1-2.4s0.4-1.8,1-2.4c0.6,0.6,1,1.5,1,2.4&#xD;&#xA;	S8.6,10.3,8,10.9z M2,8.5C2,6.6,3.6,5,5.5,5c0.6,0,1.2,0.2,1.7,0.5C6.5,6.3,6,7.3,6,8.5s0.5,2.2,1.2,3C6.7,11.8,6.1,12,5.5,12&#xD;&#xA;	C3.6,12,2,10.4,2,8.5z M10.5,12c-0.6,0-1.2-0.2-1.7-0.5c0.7-0.8,1.2-1.9,1.2-3s-0.5-2.2-1.2-3C9.3,5.2,9.9,5,10.5,5&#xD;&#xA;	C12.4,5,14,6.6,14,8.5S12.4,12,10.5,12z" xmlns="http://www.w3.org/2000/svg" />
<path fill="#317D3D" d="M8,4.8C7.7,5,6,6.2,6,8.5c0,2.4,1.7,3.6,2,3.8c0.3-0.2,2-1.4,2-3.8C10,6.2,8.3,5,8,4.8z" xmlns="http://www.w3.org/2000/svg" />
<path fill="#67BC6B" d="M8,10.9c-0.6-0.6-1-1.5-1-2.4S7.4,6.6,8,6c0.6,0.6,1,1.5,1,2.4S8.6,10.3,8,10.9z" xmlns="http://www.w3.org/2000/svg" />
</g>

<g transform="translate(221, 444)">
<path fill="#9E9E9E" d="M10.5,4C9.6,4,8.7,4.3,8,4.8C7.3,4.3,6.4,4,5.5,4C3,4,1,6,1,8.5S3,13,5.5,13c0.9,0,1.8-0.3,2.5-0.8&#xD;&#xA;	c0.7,0.5,1.6,0.8,2.5,0.8C13,13,15,11,15,8.5S13,4,10.5,4z M8,10.9c-0.6-0.6-1-1.5-1-2.4s0.4-1.8,1-2.4c0.6,0.6,1,1.5,1,2.4&#xD;&#xA;	S8.6,10.3,8,10.9z M2,8.5C2,6.6,3.6,5,5.5,5c0.6,0,1.2,0.2,1.7,0.5C6.5,6.3,6,7.3,6,8.5s0.5,2.2,1.2,3C6.7,11.8,6.1,12,5.5,12&#xD;&#xA;	C3.6,12,2,10.4,2,8.5z M10.5,12c-0.6,0-1.2-0.2-1.7-0.5c0.7-0.8,1.2-1.9,1.2-3s-0.5-2.2-1.2-3C9.3,5.2,9.9,5,10.5,5&#xD;&#xA;	C12.4,5,14,6.6,14,8.5S12.4,12,10.5,12z" xmlns="http://www.w3.org/2000/svg" />
<path fill="#B72025" d="M8,4.8C7.7,5,6,6.2,6,8.5c0,2.4,1.7,3.6,2,3.8c0.3-0.2,2-1.4,2-3.8C10,6.2,8.3,5,8,4.8z" xmlns="http://www.w3.org/2000/svg" />
<path fill="#EF5551" d="M8,11c-0.6-0.6-1-1.6-1-2.5S7.4,6.6,8,6c0.6,0.6,1,1.5,1,2.5S8.6,10.4,8,11z" xmlns="http://www.w3.org/2000/svg" />
</g>

<g transform="translate(272, 444)">
<g xmlns="http://www.w3.org/2000/svg">
	<path fill="#EF5551" d="M7.2,5.5C6.7,5.2,6.1,5,5.5,5C3.5,5,2,6.6,2,8.5S3.5,12,5.5,12c0.6,0,1.2-0.2,1.7-0.5C6.5,10.7,6,9.7,6,8.5&#xD;&#xA;		S6.5,6.3,7.2,5.5z" />
	<path fill="#EF5551" d="M10.5,5C9.9,5,9.3,5.2,8.8,5.5c0.7,0.8,1.2,1.9,1.2,3s-0.5,2.2-1.2,3c0.5,0.3,1.1,0.5,1.7,0.5&#xD;&#xA;		c1.9,0,3.5-1.6,3.5-3.5S12.4,5,10.5,5z" />
	<path fill="#B72025" d="M10.5,4C9.6,4,8.7,4.3,8,4.8C7.3,4.3,6.4,4,5.5,4C3,4,1,6,1,8.5S3,13,5.5,13c0.9,0,1.8-0.3,2.5-0.8&#xD;&#xA;		c0.7,0.5,1.6,0.8,2.5,0.8C13,13,15,11,15,8.5S13,4,10.5,4z M2,8.5C2,6.6,3.5,5,5.5,5c0.6,0,1.2,0.2,1.7,0.5C6.5,6.3,6,7.3,6,8.5&#xD;&#xA;		s0.5,2.2,1.2,3C6.7,11.8,6.1,12,5.5,12C3.5,12,2,10.4,2,8.5z M10.5,12c-0.6,0-1.2-0.2-1.7-0.5c0.7-0.8,1.2-1.9,1.2-3&#xD;&#xA;		s-0.5-2.2-1.2-3C9.3,5.2,9.9,5,10.5,5C12.4,5,14,6.6,14,8.5S12.4,12,10.5,12z" />
</g>
</g>

<g transform="translate(381, 423)">
<g xmlns="http://www.w3.org/2000/svg">
	<path fill="#67BC6B" d="M7.2,5.5C6.7,5.2,6.1,5,5.5,5C3.5,5,2,6.6,2,8.5S3.5,12,5.5,12c0.6,0,1.2-0.2,1.7-0.5C6.5,10.7,6,9.7,6,8.5&#xD;&#xA;		S6.5,6.3,7.2,5.5z" />
	<path fill="#67BC6B" d="M10.5,5C9.9,5,9.3,5.2,8.8,5.5c0.7,0.8,1.2,1.9,1.2,3s-0.5,2.2-1.2,3c0.5,0.3,1.1,0.5,1.7,0.5&#xD;&#xA;		c1.9,0,3.5-1.6,3.5-3.5S12.4,5,10.5,5z" />
	<path fill="#317D3D" d="M10.5,4C9.6,4,8.7,4.3,8,4.8C7.3,4.3,6.4,4,5.5,4C3,4,1,6,1,8.5S3,13,5.5,13c0.9,0,1.8-0.3,2.5-0.8&#xD;&#xA;		c0.7,0.5,1.6,0.8,2.5,0.8C13,13,15,11,15,8.5S13,4,10.5,4z M2,8.5C2,6.6,3.5,5,5.5,5c0.6,0,1.2,0.2,1.7,0.5C6.5,6.3,6,7.3,6,8.5&#xD;&#xA;		s0.5,2.2,1.2,3C6.7,11.8,6.1,12,5.5,12C3.5,12,2,10.4,2,8.5z M10.5,12c-0.6,0-1.2-0.2-1.7-0.5c0.7-0.8,1.2-1.9,1.2-3&#xD;&#xA;		s-0.5-2.2-1.2-3C9.3,5.2,9.9,5,10.5,5C12.4,5,14,6.6,14,8.5S12.4,12,10.5,12z" />
</g>
</g>

<g transform="translate(347, 423)">
<polygon style="fill:#010101;" points="14,4 12,2 8,6 4,2 2,4 6,8 2,12 4,14 8,10 12,14 14,12 10,8 " xmlns="http://www.w3.org/2000/svg" />
</g>

<g transform="translate(323, 444)">
<g xmlns="http://www.w3.org/2000/svg">
	<g>
		<circle style="fill:#67BC6B;" cx="3" cy="8" r="1.5" />
		<path style="fill:#317D3D;" d="M3,7c0.6,0,1,0.4,1,1S3.6,9,3,9S2,8.6,2,8S2.4,7,3,7 M3,6C1.9,6,1,6.9,1,8c0,1.1,0.9,2,2,2&#xD;&#xA;			s2-0.9,2-2C5,6.9,4.1,6,3,6L3,6z" />
	</g>
</g>
<g xmlns="http://www.w3.org/2000/svg">
	<g>
		<circle style="fill:#67BC6B;" cx="8" cy="8" r="1.5" />
		<path style="fill:#317D3D;" d="M8,7c0.6,0,1,0.4,1,1S8.6,9,8,9S7,8.6,7,8S7.4,7,8,7 M8,6C6.9,6,6,6.9,6,8c0,1.1,0.9,2,2,2&#xD;&#xA;			s2-0.9,2-2C10,6.9,9.1,6,8,6L8,6z" />
	</g>
</g>
<g xmlns="http://www.w3.org/2000/svg">
	<g>
		<circle style="fill:#67BC6B;" cx="13" cy="8" r="1.5" />
		<path style="fill:#317D3D;" d="M13,7c0.6,0,1,0.4,1,1s-0.4,1-1,1s-1-0.4-1-1S12.4,7,13,7 M13,6c-1.1,0-2,0.9-2,2c0,1.1,0.9,2,2,2&#xD;&#xA;			s2-0.9,2-2C15,6.9,14.1,6,13,6L13,6z" />
	</g>
</g>
</g>

<g transform="translate(340, 444)">
<polygon style="fill:#010101;" points="6,3 6,2 2,2 2,3 4,5 2,7 2,8 6,8 6,7 3,7 5,5 3,3 5,3 " xmlns="http://www.w3.org/2000/svg" />
<path style="fill:#010101;" d="M13.7,8.5C13.5,8.3,13.1,8,12.5,8H10l-1,6h1l0.8-5h1.7c0.2,0,0.3,0.1,0.4,0.1C13,9.2,13,9.4,13,9.4&#xD;&#xA;	L12.2,14h1L14,9.6C14,9.2,14,8.8,13.7,8.5z" xmlns="http://www.w3.org/2000/svg" />
<rect x="0.2" y="7.3" transform="matrix(0.7071 -0.7071 0.7071 0.7071 -3.3137 8)" style="fill:#010101;" width="15.6" height="1.4" xmlns="http://www.w3.org/2000/svg" />
</g>

<g transform="translate(0, 444)">
<g xmlns="http://www.w3.org/2000/svg">
	<path style="fill:#212121;" d="M7,11H6v-1l0,0c-0.4,0.7-1.1,1-2,1c-0.6,0-1.1-0.2-1.5-0.5S2,9.8,2,9.3c0-1.1,0.7-1.8,2.1-2L6,7.1&#xD;&#xA;		c0-1-0.4-1.5-1.3-1.5c-0.8,0-1.5,0.2-2.1,0.7v-1C3.2,5,3.9,4.8,4.8,4.8C6.2,4.8,7,5.5,7,7V11z M6,7.9L4.5,8.1&#xD;&#xA;		C4,8.1,3.6,8.2,3.4,8.4S3,8.8,3,9.2C3,9.5,3.1,9.8,3.4,10c0.2,0.2,0.5,0.3,0.9,0.3c0.5,0,0.9-0.2,1.2-0.5S6,9,6,8.5V7.9z" />
</g>
<polygon style="fill:#757575;" points="2,4 2,3 0,3 0,4 0,12 0,13 2,13 2,12 1,12 1,4 " xmlns="http://www.w3.org/2000/svg" />
<polygon style="fill:#757575;" points="7,4 7,3 9,3 9,4 9,12 9,13 7,13 7,12 8,12 8,4 " xmlns="http://www.w3.org/2000/svg" />
<g xmlns="http://www.w3.org/2000/svg">
	<path style="fill:#212121;" d="M11,10L11,10v1h-1V2h1v4l0,0c0.4-0.8,0.9-1.2,1.8-1.2c0.7,0,1.2,0.3,1.6,0.8C14.8,6.1,15,6.8,15,7.7&#xD;&#xA;		c0,1-0.2,1.8-0.7,2.4c-0.4,0.6-1,0.9-1.8,0.9C11.8,11,11.4,10.7,11,10z M10.9,7.6v0.8c0,0.5,0.1,0.9,0.4,1.3&#xD;&#xA;		c0.3,0.3,0.7,0.5,1.1,0.5c0.5,0,0.9-0.2,1.2-0.7s0.4-1.1,0.4-1.9c0-0.7-0.1-1.2-0.4-1.6c-0.3-0.4-0.7-0.6-1.1-0.6&#xD;&#xA;		c-0.5,0-0.9,0.2-1.2,0.6S10.9,7,10.9,7.6z" />
</g>
</g>

<g transform="translate(51, 461)">
<rect x="4" y="9" style="fill:#212121;" width="10" height="1" xmlns="http://www.w3.org/2000/svg" />
<path style="fill:#44A147;" d="M5,9C5,9,5,9,5,9c0-1.7,1.3-3,3-3s3,1.3,3,3c0,0,0,0,0,0h1c0,0,0,0,0,0c0-2.2-1.8-4-4-4S4,6.8,4,9&#xD;&#xA;	c0,0,0,0,0,0H5z" xmlns="http://www.w3.org/2000/svg" />
<g xmlns="http://www.w3.org/2000/svg">
	<circle style="fill:#67BC6B;" cx="3.5" cy="9.5" r="2" />
	<path style="fill:#317D3D;" d="M3.5,8C4.3,8,5,8.7,5,9.5S4.3,11,3.5,11S2,10.4,2,9.5S2.7,8,3.5,8 M3.5,7C2.1,7,1,8.2,1,9.5&#xD;&#xA;		S2.1,12,3.5,12S6,10.9,6,9.5S4.9,7,3.5,7L3.5,7z" />
</g>
<g xmlns="http://www.w3.org/2000/svg">
	<circle style="fill:#67BC6B;" cx="12.5" cy="9.5" r="2" />
	<path style="fill:#317D3D;" d="M12.5,8C13.3,8,14,8.7,14,9.5S13.3,11,12.5,11S11,10.3,11,9.5S11.7,8,12.5,8 M12.5,7&#xD;&#xA;		C11.1,7,10,8.1,10,9.5s1.1,2.5,2.5,2.5S15,10.9,15,9.5S13.9,7,12.5,7L12.5,7z" />
</g>
</g>

<g transform="translate(34, 461)">
<path style="fill:#9E9E9E;" d="M8,2C4.7,2,2,4.7,2,8s2.7,6,6,6s6-2.7,6-6S11.3,2,8,2z M8,13c-2.8,0-5-2.2-5-5c0-2.8,2.2-5,5-5&#xD;&#xA;	c2.8,0,5,2.2,5,5C13,10.8,10.8,13,8,13z" xmlns="http://www.w3.org/2000/svg" />
</g>

<g transform="translate(68, 461)">
<g xmlns="http://www.w3.org/2000/svg">
	<path style="fill:#212121;" d="M5,11H4v-1l0,0c-0.4,0.7-1.1,1-2,1c-0.6,0-1.1-0.2-1.5-0.5S0,9.8,0,9.3c0-1.1,0.7-1.8,2.1-2L4,7.1&#xD;&#xA;		c0-1-0.4-1.5-1.3-1.5c-0.8,0-1.5,0.2-2.1,0.7v-1C1.2,5,1.9,4.8,2.8,4.8C4.2,4.8,5,5.5,5,7V11z M4,7.9L2.5,8.1&#xD;&#xA;		C2,8.1,1.6,8.2,1.4,8.4S1,8.8,1,9.2C1,9.5,1.1,9.8,1.4,10s0.5,0.3,0.9,0.3c0.5,0,0.9-0.2,1.2-0.5S4,9,4,8.5V7.9z" />
</g>
<g xmlns="http://www.w3.org/2000/svg">
	<path style="fill:#212121;" d="M16,10.6c-0.4,0.3-0.9,0.4-1.5,0.4c-0.8,0-1.4-0.3-1.8-0.8C12.2,9.7,12,8.8,12,8&#xD;&#xA;		c0-0.9,0.3-1.6,0.8-2.1c0.5-0.6,1.2-0.9,2-0.9c0.5,0,0.9,0.1,1.2,0.3v0.9c-0.4-0.3-0.8-0.4-1.3-0.4c-0.5,0-1,0.2-1.3,0.6&#xD;&#xA;		c-0.3,0.4-0.5,1-0.5,1.7c0,0.7,0.2,1.2,0.5,1.6c0.3,0.4,0.8,0.6,1.3,0.6c0.5,0,0.9-0.2,1.3-0.5V10.6z" />
</g>
<g xmlns="http://www.w3.org/2000/svg">
	<path style="fill:#44A147;" d="M7,10L7,10v1H6V2h1v4l0,0c0.4-0.8,0.9-1.2,1.8-1.2c0.7,0,1.2,0.3,1.6,0.8C10.8,6.1,11,6.8,11,7.7&#xD;&#xA;		c0,1-0.2,1.8-0.7,2.4c-0.4,0.6-1,0.9-1.8,0.9C7.8,11,7.4,10.7,7,10z M6.9,7.6v0.8C6.9,9,7,9.4,7.3,9.7c0.3,0.3,0.7,0.5,1.1,0.5&#xD;&#xA;		c0.5,0,0.9-0.2,1.2-0.7s0.4-1.1,0.4-1.9c0-0.7-0.1-1.2-0.4-1.6C9.4,5.8,9,5.6,8.6,5.6C8,5.6,7.6,5.8,7.3,6.2S6.9,7,6.9,7.6z" />
</g>
</g>

<g transform="translate(136, 461)">
<polygon style="fill:#010101;" points="3,13 6,3 7.5,3 10,11.3 12.5,3 14,3 11,13 9.5,13 6.8,5 4.5,13 " xmlns="http://www.w3.org/2000/svg" />
</g>

<g transform="translate(187, 461)">
<polygon style="fill:#757575;" points="2,3 2,2 0,2 0,3 0,11 0,12 2,12 2,11 1,11 1,3 " xmlns="http://www.w3.org/2000/svg" />
<polygon style="fill:#757575;" points="8,3 8,2 10,2 10,3 10,11 10,12 8,12 8,11 9,11 9,3 " xmlns="http://www.w3.org/2000/svg" />
<g xmlns="http://www.w3.org/2000/svg">
	<path style="fill:#212121;" d="M15,10.6c-0.4,0.3-0.9,0.4-1.5,0.4c-0.8,0-1.4-0.3-1.8-0.8C11.2,9.7,11,8.8,11,8&#xD;&#xA;		c0-0.9,0.3-1.6,0.8-2.1c0.5-0.6,1.2-0.9,2-0.9c0.5,0,0.9,0.1,1.2,0.3v0.9c-0.4-0.3-0.8-0.4-1.3-0.4c-0.5,0-1,0.2-1.3,0.6&#xD;&#xA;		c-0.3,0.4-0.5,1-0.5,1.7c0,0.7,0.2,1.2,0.5,1.6c0.3,0.4,0.8,0.6,1.3,0.6c0.5,0,0.9-0.2,1.3-0.5V10.6z" />
</g>
<g xmlns="http://www.w3.org/2000/svg">
	<path style="fill:#212121;" d="M4,10L4,10v1H3V2h1v4l0,0c0.4-0.8,0.9-1.2,1.8-1.2C6.5,4.8,7,5,7.4,5.6C7.8,6.1,8,6.8,8,7.7&#xD;&#xA;		c0,1-0.2,1.8-0.7,2.4c-0.4,0.6-1,0.9-1.8,0.9C4.8,11,4.4,10.7,4,10z M3.9,7.6v0.8C3.9,9,4,9.4,4.3,9.7c0.3,0.3,0.7,0.5,1.1,0.5&#xD;&#xA;		c0.5,0,0.9-0.2,1.2-0.7C7,9.1,7.1,8.5,7.1,7.7c0-0.7-0.1-1.2-0.4-1.6S6,5.6,5.6,5.6C5,5.6,4.6,5.8,4.3,6.2S3.9,7,3.9,7.6z" />
</g>
</g>

<g transform="translate(255, 444)">
<g xmlns="http://www.w3.org/2000/svg">
	<rect x="3" y="5" style="fill:#212121;" width="10" height="2" />
	<rect x="3" y="9" style="fill:#212121;" width="10" height="2" />
</g>
</g>

<g transform="translate(170, 461)">
<polygon style="fill:#9E9E9E;" points="5,6 5,5 1,5 1,6 3,8 1,10 1,11 5,11 5,10 2,10 4,8 2,6 " xmlns="http://www.w3.org/2000/svg" />
<path style="fill:#010101;" d="M9,1H8C7.4,1,7,1.4,7,2v4.8C7,6.9,7,7,6.9,7.1L6,8l0.9,0.9C7,9,7,9.1,7,9.2V14c0,0.6,0.4,1,1,1h1v-1&#xD;&#xA;	H8V9.2C8,9.1,8,9,7.9,8.9L7,8l0.9-0.9C8,7,8,6.9,8,6.8V2h1V1z" xmlns="http://www.w3.org/2000/svg" />
<polygon style="fill:#9E9E9E;" points="15,4 15,3 10,3 9,3 9,4 9,6 9,7 10,7 11,7 11,9 10,9 9,9 9,10 9,12 9,13 10,13 15,13 15,12 &#xD;&#xA;	10,12 10,10 11,10 12,10 15,10 15,9 12,9 12,7 15,7 15,6 12,6 11,6 10,6 10,4 " xmlns="http://www.w3.org/2000/svg" />
</g>

<g transform="translate(119, 461)">
<polygon style="fill:#212121;" points="4,13 10.5,8 4,3 5,2 13,8 5,14 " xmlns="http://www.w3.org/2000/svg" />
</g>

<g transform="translate(313, 423)">
<polygon style="fill:#212121;" points="3,12 9.5,7 3,2 4,1 12,7 4,13 " xmlns="http://www.w3.org/2000/svg" />
<polygon style="fill:#212121;" points="14,9 6,15 5,14 13,8 " xmlns="http://www.w3.org/2000/svg" />
</g>

<g transform="translate(102, 444)">
<polygon style="fill:#212121;" points="11,14 3,8 11,2 12,3 5.5,8 12,13 " xmlns="http://www.w3.org/2000/svg" />
</g>

<g transform="translate(17, 461)">
<polygon style="fill:#212121;" points="12,13 4,7 12,1 13,2 6.5,7 13,12 " xmlns="http://www.w3.org/2000/svg" />
<polygon style="fill:#212121;" points="2,9 10,15 11,14 3,8 " xmlns="http://www.w3.org/2000/svg" />
</g>

<g transform="translate(374, 444)">
<g xmlns="http://www.w3.org/2000/svg">
	<path style="fill:#212121;" d="M5,11H4v-1l0,0c-0.4,0.7-1.1,1-2,1c-0.6,0-1.1-0.2-1.5-0.5S0,9.8,0,9.3c0-1.1,0.7-1.8,2.1-2L4,7.1&#xD;&#xA;		c0-1-0.4-1.5-1.3-1.5c-0.8,0-1.5,0.2-2.1,0.7v-1c0.6-0.4,1.3-0.6,2.1-0.6C4.2,4.7,5,5.5,5,7V11z M4,7.8L2.5,8&#xD;&#xA;		C2,8.1,1.6,8.2,1.4,8.4S1,8.8,1,9.2c0,0.3,0.1,0.5,0.3,0.7s0.5,0.3,0.9,0.3c0.5,0,0.9-0.2,1.2-0.5S4,8.9,4,8.4V7.8z" />
</g>
<g xmlns="http://www.w3.org/2000/svg">
	<path style="fill:#212121;" d="M16,10.6c-0.4,0.3-0.9,0.4-1.5,0.4c-0.8,0-1.4-0.3-1.8-0.8C12.2,9.6,12,8.8,12,8&#xD;&#xA;		c0-0.9,0.3-1.6,0.8-2.1c0.5-0.6,1.2-0.9,2-0.9c0.5,0,0.9,0.1,1.2,0.3v0.9c-0.4-0.3-0.8-0.4-1.3-0.4c-0.5,0-1,0.2-1.3,0.6&#xD;&#xA;		c-0.3,0.4-0.5,1-0.5,1.7c0,0.7,0.2,1.2,0.5,1.6c0.3,0.4,0.8,0.6,1.3,0.6c0.5,0,0.9-0.2,1.3-0.5V10.6z" />
</g>
<g xmlns="http://www.w3.org/2000/svg">
	<polygon style="fill:#44A147;" points="10,5 6,10 7,11 11,6 	" />
	<circle style="fill:#44A147;" cx="7" cy="6" r="1" />
	<circle style="fill:#44A147;" cx="10" cy="10" r="1" />
</g>
</g>

<g transform="translate(330, 423)">
<g xmlns="http://www.w3.org/2000/svg">
	<circle style="fill:#67BC6B;" cx="10.5" cy="4.5" r="3" />
	<path style="fill:#317D3D;" d="M10.5,2C11.9,2,13,3.1,13,4.5S11.9,7,10.5,7S8,5.9,8,4.5S9.1,2,10.5,2 M10.5,1C8.5,1,7,2.6,7,4.5&#xD;&#xA;		S8.5,8,10.5,8S14,6.4,14,4.5S12.4,1,10.5,1L10.5,1z" />
</g>
<g xmlns="http://www.w3.org/2000/svg">
	<path style="fill:#010101;" d="M8,15c1.7,0,3.3-0.5,4.5-1.5L14,15v-3.3V10h-1.3H9l2.1,2.1c-0.8,0.6-1.9,1.1-3.1,1.1&#xD;&#xA;		c-3.9,0-6.5-1.8-7-4.1C1.5,12.4,4.4,15,8,15z" />
</g>
</g>

<g transform="translate(153, 461)">
<g xmlns="http://www.w3.org/2000/svg">
	<circle style="fill:#67BC6B;" cx="4.5" cy="11.5" r="2" />
	<path style="fill:#317D3D;" d="M4.5,10C5.4,10,6,10.7,6,11.5S5.4,13,4.5,13S3,12.3,3,11.5S3.7,10,4.5,10 M4.5,9&#xD;&#xA;		C3.2,9,2,10.1,2,11.5S3.2,14,4.5,14S7,12.9,7,11.5S5.9,9,4.5,9L4.5,9z" />
</g>
<g xmlns="http://www.w3.org/2000/svg">
	<path style="fill:#010101;" d="M8,2C6.3,2,4.7,2.5,3.5,3.5L2,2v3.3V7h1.3H7L4.9,4.9C5.8,4.3,6.9,3.9,8,3.9c3.9,0,6.5,1.8,7,4.1&#xD;&#xA;		C14.5,4.6,11.6,2,8,2z" />
</g>
</g>

<g transform="translate(187, 444)">
<g xmlns="http://www.w3.org/2000/svg">
	<g>
		<circle style="fill:#EF5551;" cx="3" cy="8" r="1.5" />
		<path style="fill:#B72025;" d="M3,7c0.6,0,1,0.4,1,1S3.6,9,3,9S2,8.6,2,8S2.4,7,3,7 M3,6C1.9,6,1,6.9,1,8c0,1.1,0.9,2,2,2&#xD;&#xA;			s2-0.9,2-2C5,6.9,4.1,6,3,6L3,6z" />
	</g>
</g>
<g xmlns="http://www.w3.org/2000/svg">
	<g>
		<circle style="fill:#EF5551;" cx="8" cy="8" r="1.5" />
		<path style="fill:#B72025;" d="M8,7c0.6,0,1,0.4,1,1S8.6,9,8,9S7,8.6,7,8S7.4,7,8,7 M8,6C6.9,6,6,6.9,6,8c0,1.1,0.9,2,2,2&#xD;&#xA;			s2-0.9,2-2C10,6.9,9.1,6,8,6L8,6z" />
	</g>
</g>
<g xmlns="http://www.w3.org/2000/svg">
	<g>
		<circle style="fill:#EF5551;" cx="13" cy="8" r="1.5" />
		<path style="fill:#B72025;" d="M13,7c0.6,0,1,0.4,1,1s-0.4,1-1,1s-1-0.4-1-1S12.4,7,13,7 M13,6c-1.1,0-2,0.9-2,2c0,1.1,0.9,2,2,2&#xD;&#xA;			s2-0.9,2-2C15,6.9,14.1,6,13,6L13,6z" />
	</g>
</g>
</g>

<g transform="translate(85, 444)">
<rect x="1" y="9" style="fill:#212121;" width="14" height="1" xmlns="http://www.w3.org/2000/svg" />
<path style="fill:#EF5551;" d="M1,4v1c1.7,0,3,1.3,3,3c0,0,0,0,0,0h1c0,0,0,0,0,0C5,5.8,3.2,4,1,4z" xmlns="http://www.w3.org/2000/svg" />
<path style="fill:#EF5551;" d="M15,4v1c-2,0-3,1.3-3,3c0,0,0,0,0,0h-1c0,0,0,0,0,0C11,5.8,13,4,15,4z" xmlns="http://www.w3.org/2000/svg" />
<g xmlns="http://www.w3.org/2000/svg">
	<circle style="fill:#EF5551;" cx="4.5" cy="9.5" r="2" />
	<g>
		<path style="fill:#B72025;" d="M4.5,8C5.3,8,6,8.7,6,9.5S5.3,11,4.5,11S3,10.3,3,9.5S3.7,8,4.5,8 M4.5,7C3.1,7,2,8.1,2,9.5&#xD;&#xA;			S3.1,12,4.5,12S7,10.9,7,9.5S5.9,7,4.5,7L4.5,7z" />
	</g>
</g>
<g xmlns="http://www.w3.org/2000/svg">
	<circle style="fill:#EF5551;" cx="11.5" cy="9.5" r="2" />
	<g>
		<path style="fill:#B72025;" d="M11.5,8C12.3,8,13,8.7,13,9.5S12.3,11,11.5,11S10,10.3,10,9.5S10.7,8,11.5,8 M11.5,7&#xD;&#xA;			C10.1,7,9,8.1,9,9.5s1.1,2.5,2.5,2.5S14,10.9,14,9.5S12.9,7,11.5,7L11.5,7z" />
	</g>
</g>
</g>

<g transform="translate(17, 444)">
<path style="fill:#9E9E9E;" d="M8,2C4.7,2,2,4.7,2,8s2.7,6,6,6s6-2.7,6-6S11.3,2,8,2z M8,13c-2.8,0-5-2.2-5-5c0-2.8,2.2-5,5-5&#xD;&#xA;	c2.8,0,5,2.2,5,5C13,10.8,10.8,13,8,13z" xmlns="http://www.w3.org/2000/svg" />
<circle style="fill:#9E9E9E;" cx="8" cy="8" r="3.5" xmlns="http://www.w3.org/2000/svg" />
</g>

<g transform="translate(221, 461)">
<g xmlns="http://www.w3.org/2000/svg">
	<path style="fill:#212121;" d="M5,11H4v-1l0,0c-0.4,0.7-1.1,1-2,1c-0.6,0-1.1-0.2-1.5-0.5S0,9.8,0,9.3c0-1.1,0.7-1.8,2.1-2L4,7.1&#xD;&#xA;		c0-1-0.4-1.5-1.3-1.5c-0.8,0-1.5,0.2-2.1,0.7v-1C1.2,5,1.9,4.8,2.8,4.8C4.2,4.8,5,5.5,5,7V11z M4,7.9L2.5,8.1&#xD;&#xA;		C2,8.1,1.6,8.2,1.4,8.4S1,8.8,1,9.2C1,9.5,1.1,9.8,1.4,10s0.5,0.3,0.9,0.3c0.5,0,0.9-0.2,1.2-0.5S4,9,4,8.5V7.9z" />
</g>
<g xmlns="http://www.w3.org/2000/svg">
	<path style="fill:#212121;" d="M12,10L12,10v1h-1V2h1v4l0,0c0.4-0.8,0.9-1.2,1.8-1.2c0.7,0,1.2,0.3,1.6,0.8C15.8,6.1,16,6.8,16,7.7&#xD;&#xA;		c0,1-0.2,1.8-0.7,2.4c-0.4,0.6-1,0.9-1.8,0.9C12.8,11,12.4,10.7,12,10z M11.9,7.6v0.8c0,0.5,0.1,0.9,0.4,1.3&#xD;&#xA;		c0.3,0.3,0.7,0.5,1.1,0.5c0.5,0,0.9-0.2,1.2-0.7s0.4-1.1,0.4-1.9c0-0.7-0.1-1.2-0.4-1.6c-0.3-0.4-0.7-0.6-1.1-0.6&#xD;&#xA;		c-0.5,0-0.9,0.2-1.2,0.6S11.9,7,11.9,7.6z" />
</g>
<g xmlns="http://www.w3.org/2000/svg">
	<path style="fill:#EF5551;" d="M10,10.6C9.6,10.9,9.1,11,8.5,11c-0.8,0-1.4-0.3-1.8-0.8S6,8.8,6,8c0-0.9,0.3-1.6,0.8-2.1&#xD;&#xA;		S7.9,5,8.8,5C9.2,5,9.6,5.1,10,5.3v0.9C9.6,5.9,9.2,5.8,8.7,5.8c-0.5,0-1,0.2-1.3,0.6C7,6.8,6.9,7.4,6.9,8.1c0,0.7,0.2,1.2,0.5,1.6&#xD;&#xA;		c0.3,0.4,0.8,0.6,1.3,0.6c0.5,0,0.9-0.2,1.3-0.5V10.6z" />
</g>
</g>

<g transform="translate(238, 444)">
<g xmlns="http://www.w3.org/2000/svg">
	<g>
		<rect x="3" y="5" style="fill:#212121;" width="10" height="2" />
		<rect x="3" y="9" style="fill:#212121;" width="10" height="2" />
	</g>
	<polygon style="fill:#212121;" points="5,14 4,13 11,2 12,3 	" />
</g>
</g>

<g transform="translate(306, 444)">
<g xmlns="http://www.w3.org/2000/svg">
	<path style="fill:#212121;" d="M5,11H4v-1l0,0c-0.4,0.7-1.1,1-2,1c-0.6,0-1.1-0.2-1.5-0.5S0,9.8,0,9.3c0-1.1,0.7-1.8,2.1-2L4,7.1&#xD;&#xA;		c0-1-0.4-1.5-1.3-1.5c-0.8,0-1.5,0.2-2.1,0.7v-1c0.6-0.4,1.3-0.6,2.1-0.6C4.2,4.7,5,5.5,5,7V11z M4,7.8L2.5,8&#xD;&#xA;		C2,8.1,1.6,8.2,1.4,8.4S1,8.8,1,9.2c0,0.3,0.1,0.5,0.3,0.7s0.5,0.3,0.9,0.3c0.5,0,0.9-0.2,1.2-0.5S4,8.9,4,8.4V7.8z" />
</g>
<g xmlns="http://www.w3.org/2000/svg">
	<path style="fill:#212121;" d="M16,10.6c-0.4,0.3-0.9,0.4-1.5,0.4c-0.8,0-1.4-0.3-1.8-0.8C12.2,9.6,12,8.8,12,8&#xD;&#xA;		c0-0.9,0.3-1.6,0.8-2.1c0.5-0.6,1.2-0.9,2-0.9c0.5,0,0.9,0.1,1.2,0.3v0.9c-0.4-0.3-0.8-0.4-1.3-0.4c-0.5,0-1,0.2-1.3,0.6&#xD;&#xA;		c-0.3,0.4-0.5,1-0.5,1.7c0,0.7,0.2,1.2,0.5,1.6c0.3,0.4,0.8,0.6,1.3,0.6c0.5,0,0.9-0.2,1.3-0.5V10.6z" />
</g>
<g xmlns="http://www.w3.org/2000/svg">
	<polygon style="fill:#EF5551;" points="10,5 6,10 7,11 11,6 	" />
	<circle style="fill:#EF5551;" cx="7" cy="6" r="1" />
	<circle style="fill:#EF5551;" cx="10" cy="10" r="1" />
</g>
</g>

<g transform="translate(357, 444)">
<polygon style="fill:#757575;" points="13,2 4,2 3,2 8,8 3,14 4,14 13,14 13,12 6.5,12 10,8 6.5,4 13,4 " xmlns="http://www.w3.org/2000/svg" />
<rect x="12" y="3.5" style="fill:#757575;" width="1" height="1.5" xmlns="http://www.w3.org/2000/svg" />
<rect x="12" y="11" style="fill:#757575;" width="1" height="1.5" xmlns="http://www.w3.org/2000/svg" />
</g>

<g transform="translate(204, 461)">
<g xmlns="http://www.w3.org/2000/svg">
	<path style="fill:#757575;" d="M2,1v14h12V1H2z M12,13H4V3h8V13z" />
	<rect x="5" y="5" style="fill:#757575;" width="6" height="1" />
	<rect x="5" y="7" style="fill:#757575;" width="6" height="1" />
</g>
<rect x="5" y="9" style="fill:#757575;" width="6" height="1" xmlns="http://www.w3.org/2000/svg" />
</g>

<g transform="translate(0, 461)">
<g xmlns="http://www.w3.org/2000/svg">
	<path style="fill:#212121;" d="M2,1v14h12V1H2z M12,13H4V3h8V13z" />
	<rect x="5" y="5" style="fill:#212121;" width="6" height="1" />
	<rect x="5" y="7" style="fill:#212121;" width="6" height="1" />
</g>
<rect x="5" y="9" style="fill:#212121;" width="6" height="1" xmlns="http://www.w3.org/2000/svg" />
</g>

<g transform="translate(194, 423)">
<g xmlns="http://www.w3.org/2000/svg">
	<path style="fill:#757575;" d="M10,2l-8,8v4h3.9L14,6L10,2z M5,13l-2-2l6-6l2,2L5,13z" />
	<rect x="9" y="13" style="fill:#757575;" width="5" height="1" />
</g>
</g>

<g transform="translate(136, 444)">
<g xmlns="http://www.w3.org/2000/svg">
	<path style="fill:#212121;" d="M10,2l-8,8v4h3.9L14,6L10,2z M5,13l-2-2l6-6l2,2L5,13z" />
	<rect x="9" y="13" style="fill:#212121;" width="5" height="1" />
</g>
</g>

<g transform="translate(364, 423)">
<g xmlns="http://www.w3.org/2000/svg">
	<path fill-rule="evenodd" clip-rule="evenodd" fill="#999999" d="M7.5,16C3.4,16,0,12.6,0,8.5S3.4,1,7.5,1S15,4.4,15,8.5&#xD;&#xA;		S11.6,16,7.5,16z M7.5,2C3.9,2,1,4.9,1,8.5S3.9,15,7.5,15S14,12.1,14,8.5S11.1,2,7.5,2z" />
</g>
<g xmlns="http://www.w3.org/2000/svg">
	<path fill-rule="evenodd" clip-rule="evenodd" fill="#999999" d="M11.5,11.5l-0.7,0.7L7.6,9.1l-3.1,3.1l-0.7-0.7l3.1-3.1L3.7,5.3&#xD;&#xA;		l0.7-0.7l3.1,3.1l3.1-3.1l0.7,0.7L8.3,8.4L11.5,11.5z" />
</g>
</g>

<g transform="translate(211, 423)">
<g xmlns="http://www.w3.org/2000/svg">
	<path fill-rule="evenodd" clip-rule="evenodd" fill="#B22222" d="M7.5,16C3.4,16,0,12.6,0,8.5S3.4,1,7.5,1S15,4.4,15,8.5&#xD;&#xA;		S11.6,16,7.5,16z M7.5,2C3.9,2,1,4.9,1,8.5S3.9,15,7.5,15S14,12.1,14,8.5S11.1,2,7.5,2z" />
</g>
<g xmlns="http://www.w3.org/2000/svg">
	<path fill-rule="evenodd" clip-rule="evenodd" fill="#B22222" d="M11.5,11.5l-0.7,0.7L7.6,9.1l-3.1,3.1l-0.7-0.7l3.1-3.1L3.7,5.3&#xD;&#xA;		l0.7-0.7l3.1,3.1l3.1-3.1l0.7,0.7L8.3,8.4L11.5,11.5z" />
</g>
</g>

<g transform="translate(394, 364)">
<g xmlns="http://www.w3.org/2000/svg">
	<path fill="#FFFFFF" d="M0,2l4.5,5L9,2H0z" />
</g>
</g>

<g transform="translate(394, 60)">
<g xmlns="http://www.w3.org/2000/svg">
	<path fill="#FFFFFF" d="M0,2l4.5,5L9,2H0z" />
</g>
</g>

<g transform="translate(394, 90)">
<g xmlns="http://www.w3.org/2000/svg">
	<path fill="#FFFFFF" d="M9,7L4.5,2L0,7H9z" />
</g>
</g>

<g transform="translate(394, 20)">
<g xmlns="http://www.w3.org/2000/svg">
	<path fill="#FFFFFF" d="M9,7L4.5,2L0,7H9z" />
</g>
</g>

<g transform="translate(394, 374)">
<g xmlns="http://www.w3.org/2000/svg">
	<path fill="#FFFFFF" d="M7,0L2,4.5L7,9V0z" />
</g>
</g>

<g transform="translate(397, 384)">
<g xmlns="http://www.w3.org/2000/svg">
	<path fill="#FFFFFF" d="M7,0L2,4.5L7,9V0z" />
</g>
</g>

<g transform="translate(394, 100)">
<g xmlns="http://www.w3.org/2000/svg">
	<path fill="#FFFFFF" d="M2,9l5-4.5L2,0V9z" />
</g>
</g>

<g transform="translate(394, 120)">
<g xmlns="http://www.w3.org/2000/svg">
	<path fill="#FFFFFF" d="M2,9l5-4.5L2,0V9z" />
</g>
</g>

<g transform="translate(87, 394)">
<circle fill="#009688" cx="14" cy="14" r="14" xmlns="http://www.w3.org/2000/svg" />
<rect x="7" y="13" fill="#FFFFFF" width="14" height="2" xmlns="http://www.w3.org/2000/svg" />
</g>

<g transform="translate(116, 394)">
<circle fill="#009688" cx="14" cy="14" r="14" xmlns="http://www.w3.org/2000/svg" />
<rect x="7" y="13" fill="#FFFFFF" width="14" height="2" xmlns="http://www.w3.org/2000/svg" />
</g>

<g transform="translate(58, 394)">
<circle fill="#009688" cx="14" cy="14" r="14" xmlns="http://www.w3.org/2000/svg" />
<rect x="7" y="13" fill="#FFFFFF" width="14" height="2" xmlns="http://www.w3.org/2000/svg" />
<rect x="7" y="13" transform="matrix(4.482554e-011 -1 1 4.482554e-011 -6.293757e-010 28)" fill="#FFFFFF" width="14" height="2" xmlns="http://www.w3.org/2000/svg" />
</g>

<g transform="translate(203, 394)">
<circle fill="#009688" cx="14" cy="14" r="14" xmlns="http://www.w3.org/2000/svg" />
<rect x="7" y="13" fill="#FFFFFF" width="14" height="2" xmlns="http://www.w3.org/2000/svg" />
<rect x="7" y="13" transform="matrix(4.482554e-011 -1 1 4.482554e-011 -6.293757e-010 28)" fill="#FFFFFF" width="14" height="2" xmlns="http://www.w3.org/2000/svg" />
</g>

<g transform="translate(174, 394)">
<circle fill="#bdbdbd" cx="14" cy="14" r="14" xmlns="http://www.w3.org/2000/svg" />
<rect x="7" y="13" fill="#ededed" width="14" height="2" xmlns="http://www.w3.org/2000/svg" />
</g>

<g transform="translate(145, 394)">
<circle fill="#bdbdbd" cx="14" cy="14" r="14" xmlns="http://www.w3.org/2000/svg" />
<rect x="7" y="13" fill="#ededed" width="14" height="2" xmlns="http://www.w3.org/2000/svg" />
<rect x="7" y="13" transform="matrix(4.482554e-011 -1 1 4.482554e-011 -6.293757e-010 28)" fill="#ededed" width="14" height="2" xmlns="http://www.w3.org/2000/svg" />
</g>

<g transform="translate(0, 423)">
<path fill="#FFFFFF" d="M10,5c-2.8,0-5,2.2-5,5s2.2,5,5,5s5-2.2,5-5S12.8,5,10,5z M10,0C4.5,0,0,4.5,0,10s4.5,10,10,10s10-4.5,10-10&#xD;&#xA;	S15.5,0,10,0z M10,18c-4.4,0-8-3.6-8-8s3.6-8,8-8s8,3.6,8,8S14.4,18,10,18z" xmlns="http://www.w3.org/2000/svg" />
</g>


</svg>

